/* XPM */
static char *xpm_[] = {
/* columns rows colors chars-per-pixel */
"95 64 256 2 ",
"   c black",
".  c #010101",
"X  c #020202",
"o  c gray1",
"O  c #040404",
"+  c gray2",
"@  c #060606",
"#  c #070707",
"$  c gray3",
"%  c #090909",
"&  c gray4",
"*  c #0B0B0B",
"=  c #0C0C0C",
"-  c gray5",
";  c #0E0E0E",
":  c gray6",
">  c #101010",
",  c #111111",
"<  c gray7",
"1  c #131313",
"2  c gray8",
"3  c #151515",
"4  c #161616",
"5  c gray9",
"6  c #181818",
"7  c #191919",
"8  c gray10",
"9  c #1B1B1B",
"0  c gray11",
"q  c #1D1D1D",
"w  c #1E1E1E",
"e  c gray12",
"r  c #202020",
"t  c gray13",
"y  c #222222",
"u  c #232323",
"i  c gray14",
"p  c #252525",
"a  c gray15",
"s  c #272727",
"d  c #282828",
"f  c gray16",
"g  c #2A2A2A",
"h  c gray17",
"j  c #2C2C2C",
"k  c #2D2D2D",
"l  c gray18",
"z  c #2F2F2F",
"x  c gray19",
"c  c #313131",
"v  c #323232",
"b  c gray20",
"n  c #343434",
"m  c #353535",
"M  c gray21",
"N  c #373737",
"B  c gray22",
"V  c #393939",
"C  c #3A3A3A",
"Z  c gray23",
"A  c #3C3C3C",
"S  c gray24",
"D  c #3E3E3E",
"F  c #3F3F3F",
"G  c gray25",
"H  c #414141",
"J  c gray26",
"K  c #434343",
"L  c #444444",
"P  c gray27",
"I  c #464646",
"U  c gray28",
"Y  c #484848",
"T  c #494949",
"R  c gray29",
"E  c #4B4B4B",
"W  c #4C4C4C",
"Q  c gray30",
"!  c #4E4E4E",
"~  c gray31",
"^  c #505050",
"/  c #515151",
"(  c gray32",
")  c #535353",
"_  c gray33",
"`  c #555555",
"'  c #565656",
"]  c gray34",
"[  c #585858",
"{  c gray35",
"}  c #5A5A5A",
"|  c #5B5B5B",
" . c gray36",
".. c #5D5D5D",
"X. c gray37",
"o. c #5F5F5F",
"O. c #606060",
"+. c gray38",
"@. c #626262",
"#. c gray39",
"$. c #646464",
"%. c #656565",
"&. c gray40",
"*. c #676767",
"=. c #686868",
"-. c DimGray",
";. c #6A6A6A",
":. c gray42",
">. c #6C6C6C",
",. c #6D6D6D",
"<. c gray43",
"1. c #6F6F6F",
"2. c gray44",
"3. c #717171",
"4. c #727272",
"5. c gray45",
"6. c #747474",
"7. c gray46",
"8. c #767676",
"9. c #777777",
"0. c gray47",
"q. c #797979",
"w. c gray48",
"e. c #7B7B7B",
"r. c #7C7C7C",
"t. c gray49",
"y. c #7E7E7E",
"u. c gray50",
"i. c #808080",
"p. c #818181",
"a. c gray51",
"s. c #838383",
"d. c #848484",
"f. c gray52",
"g. c #868686",
"h. c gray53",
"j. c #888888",
"k. c #898989",
"l. c gray54",
"z. c #8B8B8B",
"x. c gray55",
"c. c #8D8D8D",
"v. c #8E8E8E",
"b. c gray56",
"n. c #909090",
"m. c gray57",
"M. c #929292",
"N. c #939393",
"B. c gray58",
"V. c #959595",
"C. c gray59",
"Z. c #979797",
"A. c #989898",
"S. c gray60",
"D. c #9A9A9A",
"F. c #9B9B9B",
"G. c gray61",
"H. c #9D9D9D",
"J. c gray62",
"K. c #9F9F9F",
"L. c #A0A0A0",
"P. c gray63",
"I. c #A2A2A2",
"U. c gray64",
"Y. c #A4A4A4",
"T. c #A5A5A5",
"R. c gray65",
"E. c #A7A7A7",
"W. c gray66",
"Q. c #A9A9A9",
"!. c #AAAAAA",
"~. c gray67",
"^. c #ACACAC",
"/. c gray68",
"(. c #AEAEAE",
"). c #AFAFAF",
"_. c gray69",
"`. c #B1B1B1",
"'. c #B2B2B2",
"]. c gray70",
"[. c #B4B4B4",
"{. c gray71",
"}. c #B6B6B6",
"|. c #B7B7B7",
" X c gray72",
".X c #B9B9B9",
"XX c gray73",
"oX c #BBBBBB",
"OX c #BCBCBC",
"+X c gray74",
"@X c gray",
"#X c gray75",
"$X c #C0C0C0",
"%X c #C1C1C1",
"&X c gray76",
"*X c #C3C3C3",
"=X c gray77",
"-X c #C5C5C5",
";X c #C6C6C6",
":X c gray78",
">X c #C8C8C8",
",X c gray79",
"<X c #CACACA",
"1X c #CBCBCB",
"2X c gray80",
"3X c #CDCDCD",
"4X c #CECECE",
"5X c gray81",
"6X c #D0D0D0",
"7X c gray82",
"8X c #D2D2D2",
"9X c LightGray",
"0X c gray83",
"qX c #D5D5D5",
"wX c gray84",
"eX c #D7D7D7",
"rX c #D8D8D8",
"tX c gray85",
"yX c #DADADA",
"uX c gray86",
"iX c gainsboro",
"pX c #DDDDDD",
"aX c gray87",
"sX c #DFDFDF",
"dX c gray88",
"fX c #E1E1E1",
"gX c #E2E2E2",
"hX c gray89",
"jX c #E4E4E4",
"kX c gray90",
"lX c #E6E6E6",
"zX c #E7E7E7",
"xX c gray91",
"cX c #E9E9E9",
"vX c #EAEAEA",
"bX c gray92",
"nX c #ECECEC",
"mX c gray93",
"MX c #EEEEEE",
"NX c #EFEFEF",
"BX c gray94",
"VX c #F1F1F1",
"CX c gray95",
"ZX c #F3F3F3",
"AX c #F4F4F4",
"SX c gray96",
"DX c #F6F6F6",
"FX c gray97",
"GX c #F8F8F8",
"HX c #F9F9F9",
"JX c gray98",
"KX c #FBFBFB",
"LX c gray99",
"PX c #FDFDFD",
"IX c #FEFEFE",
"UX c white",
/* pixels */
"4XrXXXT.@X;X}.}.4X'.(.R. X{.oX[.;X<X}.=X,X8X1X:XsXXX X5X$X1X%X:X=X2X3X=X+XXX'.W.].*XeX4X'.|.4X0XfX2X;X`._.{._.3XiX3X+X.XyXpXhX>X4X%XoX[._.%X<XXXqXfX<X].0X1X:X:X%X,XsX2X2X:X-X&X(.tXjX7X/.3XdX",
"].K.C.E. X{.`.|.*X#X.X(.8XT.@X*X3X+X+X0X:X<X>X7XL.P.T.qXyXH.W.5XiXrX6X<X,X1X2X2XyX7X>X<X|.+X$X-X<X-X@X=XOX+X].2X!.OX>X-X%XT.-XfX4X:Xy.J.aX8XqX8XsX0Xn.N.(.m.OX$X'.1X8X,X'.F.|.=X4X0XhX3X:X%XqX",
"#X XXXoX@X0XtX#XXX#XM.B.-XQ.}.`.%XT._.&X X:X{.[.Z.8X&X6X0X0.F.:X.X1X*XT.E.1XsXwXaX1X{.+X#X5X8XyX5X%XQ./.oXoX1XuX@X7X%XT.R.Y.+X1XR.m.N.].xXCX9XrX4X;XJ.!.}.V.@X.XT.yX Xk.-.p.;X-XhXlXCXrX2X*XuX",
"J.OX6X<X;X<X^.e.!.=XF.Y.J..X%X8X!.}.8X,XXX5X(.}./.kX=X*X4XC.).-XR.'./.L.'.9XqX+X,X;XOX/.oX2XtXqXD.!..X#XuX+X9X1XsX7XL.V.%XrXqX%XZ.P.tX7XaXNX'.~.|.#XyX>X&X-X3X$X!. XU._. X;XaX0XfXCXzX9X'.<X5X",
".X+XXX-X1XR.j.B.9X+X`.@XF.OXT.~.%X-X@X_.*XiX^.oX;X1X].,X7X$X_.[.XXS.Z.&XaX1X/.I.L._.&XY.@X3XiX Xz.'.#X>X>X}.4XrXsX-XE.;XjXqX%XoXF.aX7X&XkXuX].!.oX%XpXOX{.<XqX%X<.F.<XuXxXSXmXiXjX2XD.p.8.R.}.",
"eX@XZ.Z.^.F.K.wXyXb.T.}.).Q.t.-.D.G.I.#XyX2Xg.c.0XwX0X3XoX6X}.'._.J.E.-X:X!.P.'.m.H.@X_.:XqXtXK.E.OX`.rX&X%XR._.2X4X:XyX2X.X/.R.T.-X-X@X8X9X>X0X=X,X>X,X<X@X8X(.9.{.vX:XrXJXnX X0X(.H.m.Q.XXsX",
"=X&X^.I.|.,X1X2XV.g.}.$X`.G.B.H.Q.W.(.oXH.N.U.8X6XeX7X_.].wX:XoXF.}.3X-XQ.J.'.4X'.U. X1XXX%X+XC.fX|.C.(.^.E.n.(.+X3X;X%XR.+X*XY.#X[.tX8XOX>X3XsX1X4X0XiXsX-X4X XtX3XiXuXUXsX-Xc.B.Z.+X9XlXyXgX",
"{.{.'.Q.[.0X6XT.b.XX;X=XT.W.W.{.#X).].<XR._.3X3XhX+XS.n.2X3X~.N.Z.`.4X8X XL.E.+X|.C.L.qXU.).{.}.-Xv.U.!.$Xg.s._.qX4X#X%XL.|.$XK.OXdX;X5XqX;XlXbXeX4XcX,X-X<X2XfX-XrXbX8X>X6.B.f.#X,X4XdXiXVXlX",
"Z.,XW.D.=X>X^.N.:X-X@X.X$X).D.{.`.Q.L.5X=X.X%X2X<XV.d.J.9X&XI.i.OX-X X+X).J._.W.E.Y.W.D.W.|.;X[.,.^.tX X_.n.`.=X8X$X{.V.$X=X6XoXpXeX6XrX8X2XpXdX). XqX].|.tXgX2X-X4X3X1X-XI.:XdXmX4X3XkXxXrX1X",
"D.`.Q.+X>XL.J.*X X2X$Xm.A.J.!.(.Q.|.{.5X-X>X,XOX#X|.|.}.qX:Xg.W.#X+X#XXX1XJ.Q.@XL.U. XoX1X<X2X{.-X3X,XR.V..XtXOX&X(._.oX3X-X2X6X4XlXsX3X&X-X6X;X!.=XeXpXcXrX`.>XyX4XrXeX%XfXIXlXtXfXrX0XrX1X;X",
"Y.#X].[.,X%X}.}.(.B.H.J.(.{.M.T.2X%X X7X>X$X=X:X-XY. X=X1XOX;.oX|.9X[. X|.OX^.,X*X-X4X|._.!.}.!.>X-X+X;X^.@XXX[.F.).&X1X*XpXgX8XpXeX].!. XoX%X*X4X4X&X4X<X XE.gXjX6XeXvXeXPXZX<X1X{.:XhXaXyXuX",
"|.OXD./.uXQ.p.{.K.{ j.=X=X@X%.F.kX>XOX4X<X$X=X3XK.w.'.%X_.].g.'.%XsX).$X!.(./..X&XOXOXW._.%XuX0XoXdX=XP.U.#XE.~.P.].&X*X&XvXdXE.XXQ.e.y.P.R.!.|.tX=X>X>X).W.%XpX>XsXwX7XOX{.{..XE.XXkXZXaXfXCX",
"7Xg.].gXH.u.Q.[.W.j.+XyX.XA.a.{.rX6X6X:X:X2X;X].@.b.8X/.B.).+X}.wX;X}.%X`.@.!./.yXXX}..X1X;X,X+X%X&X4X#X.Xn.x.=XOXJ.^.<XiXqX@Xv.:.x.k.V..X<X9XrXtX,XuX2X;X/.8XuXiX9XW.I.'.E.&X}.s.gXFXaXxX0X(.",
"Q.W.XX^.L.$X5X%X$X=XiXyX}.3.#X3XeX1XqX-X#X.X`.E.t.+X;Xk.c.L.*X>X2XXXR.!.f.` |.#X&XU.^.OX:X X7XcX|.S.@Xm.x.F.,X>XN.b.}.eXpX-X+X`.T.+X,XhXVXaXrXaX5X6X8X@XgX^.;XlX5Xp.6.W.=X_.,XW.;XjXjXdXsX!.5.",
"P.V.H.P.XXeX:X].#X#X-X-XF.5.@XoXOX/.<X*XoXE.E.[.OX XZ.f.D.Q.OX,X%X@XF.L.i.L.=X>X|..X,XoX{.].wXlXR...V.Y.,X5X<XV.8.Q.;X;X X,X&X].`.'.:XGXHX4X3XhXW. X*X>XBXOX:XtX#XS.:XsX;X#X2XuXwXW.(.%XF.t.n.",
"J.P.@X=X-X$XW.~.oX@X<XXX1.G.Q./.7.v.<X@XXX XoX.X$XZ.x.R.Q.8X8XoX9X{./.`.5XsX%X XI.;XyX[.].&XOXg.x.v.8X$X8X7XoXN.I.2X}.W.F.<XY.w.(.;XlXGX3XC.Z.Y.K.T..X4XtX5XnXsX<XdXCXY.h.8X#XqX/.A.P.@XqXCXUX",
"L.!.=XU.{.eX,XT.&X5XOXC.6.^.M.L.L.}.XX@X=X^.R.>XqX[.).Q.XXtXwXuX2X-XwX0X%XQ.#X/.D.3XfX{.Y.U.c.A.}.!.&X5X4X$X>XD.D.R.Q./.oX@X(.L.@XrXdX&XC.F.B.{.W.`.7X,XpXxXdX=X$X5XyXu.m.:X@X2X,X-X>XsXDXUXsX",
"_.'.}.W.rX9X(.oX1X^.!.#.>._.P.U.I.G.~.=X1X;X%X#X#X=X/.Z.OXdX6X=X).=X9X5X!.Q.%X|.!.*X8X'.P.-X*X.X>XOX%X*X;X.X Xl.c.G.~.}.$X*X>X7X5X3X<X@X#X5X*X5X6XqXpXwX8XuX6X8XtX>X1X&XtXnX;XyXfX=XkXPXUXeX~.",
"+X[.*X;XdX'.x.oXtXZ. Xo.6.F./.-XT.m./.%XE.Y.`.L.*X#Xj.s.@X5XoX|.:XwX3X6X}.2X5X}.n.}.0XrX*XeX3X5XoX+X}.'.+X{.Q.i.I.}.*X+X|.+X2XeX3X3XeX8XsXaX8XqXkXfX0XdXzXBX,X4X0X!.W.xXHXlX*XbXhX XaX1X7XU.F.",
"2XOXgXpX;XI.T.3X$X$.N.8.W.!.+X3X'.k.b.E.Q.OX-XE.oXW.*.2.^.OX.X_.!.#X&X#XV.v.J.I.@X6X3X0XOX'.Q.6X!.=X$XoX>X&X].Z.I.}.@X`._.,XtX8XeX5X2X|.-X*XqXkXcXpX=X*X9X4XD.B.uX).E.zXCXqX5XNX,XZ.}.V.P.L.$X",
">X@X6X~.I.!.|.>XK.4.I./.#XY.oX;X'.(.`./.L.I.`.|.s.~.^.(..X=X,XR.W._.$X+XK.5.v.E.>X'.T.).C.F.W.).x.}.[.(._.^.U.D.W.T.~.'.#XeXsX3X*X}.!.I.=X>XqX9XeX5XOXG.).W.C.H.0X7XzXUXUXzXhX1XI.r.(. XoX=XsX",
"<X8X@Xh.).&XI.H.Q.}.7X&XG.l.).>X#X XE.Y.{.{.I.Z..X].T.Q.@X8X-XV.W.L.Q.).(.a.C.W.{.E.=X:XH.XXjXQ.N.OXXX}.(._.[.OXXXY.).4XeXrX9X=XY.).(.XXqX6X-X^.#X[.`.D.oX&X:X5X&XjXUXhX<X8XCX1Xs.j.<XuX3XsXlX",
"!.[.~.i.R.Q.p.y.@XoX.XU.Z.W.Q.'.G.Y.^.|.>X6X:XoXi.L.@X@X[.J.h.x.R..X+XXX/.S.^.+X'.+X1XI.l.I.eXI.B.[._.}.!._. X&XJ.J.@XuXqX6X3XXXR.;X#X*X&X-X=X X-X[.|.OX4XqX4X9X9XhXhXJ.q.+XSXrXG.U.0X8X2XxXxX",
").W.;X'.(.`.XX3X:XXX,X|.{.+XB.J.3X.X}.#X,X3X].f.H.`.L.q.D..XP.!.+X4X]._.(.%X XW.{.eXoXp.).].2XoXY.XX{.=X[.|..X+Xu.Y.0X0X|..X}.M.Z.=X$X2X:X8X7X=XqX1XqXvXwXrX9XmXwXqX9X}.T.VXhXV.rX/.;X7XhXvXmX",
"'.=XxX<X9XXX@X@X{.].[.%XI.{.G.XX0X3XI.|.,XC.j.~.pXW.a.1.K././.{.I.qXb.'.gXgXf.L._.(.$.W.>X2X<X}.@X$X<X$X-X'.!.G.c.k.[. XL.T.Y.T.-X#XsX8XZXiX0XlXpXnX0X5XwXyXCXAXrXtX6XXX1XxX/.#XrX8X%XjXuXjXSX",
"^.@X/.R..XU.qX}.-X}.I.'._.]..X>X-XJ.XX6XA.r.OXiX[.I.i.q.P.~.`.%X<X].}.1XaXR.x.h._.'.K.;X>X#X~.W.OX^.XX+X.XI.P.A.N.T./.E.).'.OXkX7X9XsX$XrX~._.E.J.-X<X=XfXhXeX=X:X X$X[.nXbXY.wXLX2XXXwXhXjXyX",
"L.T.+X].#X X+XV.2X.XT.#X8X[..X^.=X|.;X^.).|.<X+X X~.I.}.oXoXY.f.$X X1X<X].(.'.D.).E.=X4X@X}.K./.Q.,X].W.tXU.u.|.1X+X`.'.[.;XfXiXiX<X(._.1XQ.'.U.j.p.@XsXvXgXsX&X}.C.b.eXKXD.P.rXyX>X7X-XyXlX9X",
"R.P.<X.XOX3X8X.X#XI.b.W.%X].oX.Xx.OX;Xi. X6X%X.X_.Z.@XsXOX:XU.1.~.tXyX$X_.=XU.b.{.K.XX|.Q.^.^.+X[.%X>X*X2XT.U.=X2X&X*XrX5X5X0XK.+XS.u.`.$X/.^.#X|.(.1X1XcXyX6XhXQ.`.|.pX(.y.tXsX_.<XgX=X7X5X-X",
"~.#X+X-X XI.|.r.[.I.W. X X/.k.h.F.Q.>Xm.U.+X7X-X!.J.3X,XI..XJ.(.yX8X.Xk.I.J.Z._.oX^.!.~.J.G.{.+XoX%X0X=X].T.$X6X3X7X X%X$XH.D.U.~.m.~.-X$XU.U.3XnX,XsX=X.XuXcX*X(.M.].:XOXjX0XT.=XeXrX4X6X~.`.",
"XX{.Q.^.`..X<X^.].T.!.E.~.;X[.@X%X+X4XT.E.:XeXR.U.~.].N.S.Y.l.6X%XQ.~.Q.^._.D.E. X@XQ.}.T.D.|.oX+X2X1X!.~.Q.$X9X:XK.z.I.L.k.L.;X:X(.uX#X,X`.-XrXgXjX0X:XeXrX~.N.4.Z.$XsXqX3XT.(.4XbXfX7X$X!.:X",
"H.V.Q.W./.{.S.B.{.@X>XXX,X7X-XE.m.+X$XT._.*X*XH.g.b.c.k.U.F.J.3X=XoXOX^.D.$X_.}.=X2XE.XX).).|.+X2X/.@X'.J.(.5X^.g.%.x.XX X@X-XOX<X}.*X|.%X*XtXqXxXyX<XjX;X/.k.7.n.iX<X%X=X#X7X1X;XhXzXqX.X;XqX",
"F.`.K._.).L.{.[.[.;X-X~.2X=X4XM.J.!.F.).&X#X}.F.S.Z.Q.%X'.C.7X0X@X.XwXB..X X,XtXdXrXI.`.`.&X].OXoX[.Q.K.OX.X~.A.r.L.;X@X&X3X).Y.[.OX/.aX#X,X5X7X*XaX_.}.F.G.S.`.:X<XqX;X2X:XyXdXiX;X7XaX2XqX{.",
"P.Q.4X}.R.R.XX.X^.'.p.H.@X7XZ.A.}.XX|.&X].%X}.^.`.].[.1X).!.OX9X$X*X!.&X(.}.7X+X@X|.`.l.7X:X~.|.W.^.].|._.Y.G.G.N.$XoX6X<Xl.l.^.4X_.J.oXrXeX5X;X&X{.). X X%X8X*X0XrXwXeXBXfXjXwX>X*XqXqX6X0XZ.",
"}. XoX}.J.|.!.J.G.^.N.R.@X&XC.H.>X'.!.;X@XOX}.$X{.k.^.=X3XR.|.oX'.@X}.T.Q.P.!.H.E./.W.'.:X|.t.P.%X%X#X|.!.L.P.R.}.$X+X,XK.:.F.8X8XXX_.>X9X=X=X8X/.U.$X2X2XyXiXgXpXGXxXyX;X2X9X8X0X5X4XsXdXiX'.",
"OX.X[.^.G.oX|.|.XXL.T.OX#X:X#XP.>XOX[.@X{..X].(.D.h.I.`.[.0X-XW.#X).).k.XX[.'..XXXXX`.oX@X'.p.~.7X8X2XOX~.T.^.{.-X{.}.*XB.t.{.2X XoXOX$X&XOX&XqX8X{.6X7XeXlX<X5XjXpX!.#X$XxXeX=X|.>X2XtXoXE.^.",
"}.E.{.^.OX#X:X<X/.}./._.hX5X'.{.+X+X%X%X]._.~.I.7X{.'. XQ..Xz.C.^.x.K.s.E.P.F.[.*X'.[.b.(.U.S.~.+X;X;X X!.Q.`. X@X X|. XL.T.%X~.J.oX*X_.OX9X6X3X2X X=X%X6XzXqXqX+X).m.oX|.3X2X9X6X2X3XyX>X@X>X",
"].F.(.#XpX=X!.I.n.G.|.OX6X`.~.!.oX/.+X6X%XU.~.&X!.Q.#XP.*X}.P.%Xf.b.:X:X].[.'.%X].T.#XB._.J.I.!.[.&X:X+X{.XX&X-X*X>X.X!.Q.].XX^./.-X;X).,XzX3X@XP..X=X-X4XaXvXvXyX0X8XaX3X&XyXlX1X#XrXdXtXwXqX",
"Q.I.Q.<X:X].h.B.v.{.W.F.9X/.M.+X@X).OX&X|.L.{.3XN.#X2X!.OX@XL.`.5.H.%XrX}.2X,X(._.`.4X:X`.W.U.&X[.%X&X X}.$X;X&X,X%XW.E.%X=X.XoX<X>X%X_.2XwX(.(.[.0XwXyXgXgXjXtXkXtXeX*X-X#XrXOXU.(.iXsXqX%X.X",
"J.W.).OX/.I.c.(.@X X'.].-X X{.%X;X}. X~.!.I.|.@X`.[.Q.>XoX{.S.'.~.:XY.,X=X,X*Xm.W.}.,X3XC.!.J.#XW.].'.E.W.'.).P.$X X).{.4X9X&X@X1X>X&X~.#X=XU.oXiXiXtXtXxXzX9X0X8X8XdX,X;X&XkX,X^.OX7XjXZX6X%X",
"H.T.|.!.OX^.R.].OX-X4XqX8X+X|.:XwXW.T.(.|.J.).$X#XQ.Q.Q.[.}.:XW.OX3Xg.%XtX X.XD.G.[.;XoXj.`.I.R./. X.X_.'..X^.B.}.-XqX-X.X-X:X&X#X5X6X!.|.1X.XiXFXaXaX1X2X<X'.tXqX<XrXuXuX9XnX9Xn.%X4XlXBX.X,X",
").U.^.|.*XXX/.OX@X=XL.=X@X'.$X X].Y.0X!.@XK.Q.;X.XE.`._.L.T.|.'.|./._.Z.).}.P.B.'.(.XX].=X*XI.$XE.Q.`.*X<X`.Z.C.E.{.Q.~.rXtXhX3X4X=X<X[.3X8X9XjXtX@X=X<X,X X7X=XaXaXtXiXhXqX.XQ.h.$X5XVX8X5XXX",
"!.!. X=X:X1X`.E.;X*XA.{.OXU.H.). X#XyXP.Q.L._.oX[.[.]._.I.Y.OX#XJ.D.L.n.'.oXU.N.2X-X>X`.!.I.A.5X~.>X$X;X3X~.j.R.L.F.P..X,X{.+X3X`.G.)._.R.1XeX,X{.5XcXfX8X&XtX3XeX6X<X1X&X!.Q.$X7X3XqXVX=X3XpX",
"U.F.(.1XE.G.j.A.W.+XD.Y.2X XM. XyX8X#XA.T.W.E.A.R.5X>X|.I.U.+X&XJ.R._.P.oXOX{..X1X8X,XJ.T.#X[.@X`.+X^. X@X'.x.M.R.D.^.$X^.K.!.9X~._.x.k.(.wX_.).>XiXaX8X7X*X3X,X#XeX8XoX%XiXvXvX,X8XqXhXuX7XpX",
"].P.E.$Xz.x.d.F.H.N.|.$X'.<X%XI.>X;X{.).T.m.F./.W.rXOX~.W.}.-X%XR.).$XOX>X[.{.;X'.#X.XH.].eX#XY.Q.!.].|.j.L.).T.{.}.%X(.f.I.).,X`.A.j.Z.^.wX4X`.9XMX5XQ.|.,X:X_.<X+X[.;XgXzXhXxXU.:XiXpXgX=X5X",
"[./.I.P.s.`.K.f.G._.#XR.{.$XY.^.;X_.Z.`.#X`.R.^.`.XXb.L.XX>X$X:XG.J.|.:X:XL.Y._.^.Q././.(.Q.L.W..X_.).Y.s._.,X~.`.XXXXN.4.W.].{.W.J.!.`. X X>X$X8XuX%X$X*X^.^.:X1XXXXXtXmXpX6XiXOX#XfXiX*X].rX",
"W.W.Y.L.c.(.V.q.{.).{.K.!.^.^.,X$X-X%X X/.Y.K.^.I.G.m.#X-X[.D.;XJ.L.$X1X_.v._.@X/.R.Y.U.D.B.L.'.`./.D.m.[.1X).p.D.L.J.c.z.'.OX|.~.#X@X.X0X(.^.oXeX6X}.<X=XP.T.tX@X5XiXaXqX-X>XiX<X&X,X:X1X&XtX",
"`.).|.}.Q.!.S.G.'.&X).C.$X].`.hXtX>XOXA.P.^.F.A.K.I.`.<X(.L.d.=X/.E.%X%XK.N.*X].B.B.V.G.U.).oX{.x.D.!.E.<X|.P.h.G.P.G.K.{. X$XoX}.Q.[.1X%X@X9X}.&XgX#XT.T.,X6X:X1X*X,XwX$XC.P.wX>X%X).$XhX8X4X",
"{.XXoXW.[.-XoX{.#XoX-X].}.|.1X#X-X/./.a.m.T.U.|.OX|.{.Y.j./.A.,X).B.K.W.P.!.oX-.6.2.f.].&X XOX@XT.l./. X7XOX:XQ..X$X'._.<X]..X/.).,X`..X}.oX$X=XXX:X).|.|.<XwXjX,X3X<X;X>X>X9XxXzX X`.eXwX-X6X",
"{.!.}.'.[.Y.|.$X X&X|./.%X{.&X`.T.).A.h.`.`.@X=X~.XXK.{.(.].I.$XU.w.d.I.|.J.g.%.u.h.@XOX{.{.-X+XK.C.#X;X.X~.@X~.W.*X}.OX7X@X^.).4X#X`.>X/.].,X2X4X1X8X;X@X%XXX#X*X5X-X5XrXpXVXbXoX(.6XfXvX9X,X",
" X.X_.E..X.X[._.XX}.Y.P..X).oX`.~.G.K.3X!.@X@XL.OX~.m.].XXoXU.P.j.2.Y.@X'.{.@Xi.M.L.*X'.[.OXOXR.W.U.=X$XT.N.U.B.'.=X XXX=X X X*X9X1X<X`.Q.-X,XeXsXiXeX_.S.`.$X&X<XgXqX3X5X3X1X[.|.(.$X1X2X_.[.",
"}.W.S.'.*X{.E.%X`._.U.F.U.D.`.$X).P.`.&XQ.m.!.W.^.W.I.oX[.I.L.P.!._.;X`.J.A.T.m.|.|.>X&X&X(.K.T.B.b.!.(.T.!.;X%XXXXX).{.oXoX<X6X&X2X=X~._.&X5XtX&X/./.D.N. X2X*X0XcX4X.X1XaXrX#X#X#X=X2X;XE.$X",
"Z.v.P.tX>XI.b.(.~.'.Q.H.P.E.OX4X|.^.`.(.(.u.A./.{.}.G.W.&X'.!.L.`..XoXK.G.F.@XtX'.+X<X-X&XE.N.^.E.I._.'.Q./.[.U.'.I.G.`..XOX>X#XU.&XT.-X+X`.uX2X!.n.^.&XOX>X5X>X7XvX0X_.'.:XqXpX6XeX8XeX3X).eX",
"J.C.!.;XS.n.A.I.).|.(.T.}.4X-X.X6XW.z.+XoX+XP.d.!..Xi.y.]./.G.n.+XQ.|.P.g.m.$X.Xc.|.#XE./.}.G.G.y.b.Q.{.!./.W.C.I.V.G. X|./.'.I.G.XXT.9X[.}.yX X`.Q.rXzX$X).}.+XrXoXM.l.}.eX1XXXpXfX9X5X-X(.uX",
").n.Z.^.M.C._.OXW.#X&X[.[.:X!.Z.(.OX^.W.L.D.U._./.&Xr.y.^.!.G.M.B.A.J.a.g.K.OX!.A.).Q.H.^.XXV.x.g.Y.|.].V.Z.A.C.P.J./.:X.XL.I.F.!.oX$X[.S.%X&XR.{.{.9X2XW.T.].+X).G.A.V.P.oX2XaXfXiX6X;X=X+XlX",
"L.N.U.&X6X].Q.).G.@X2X XK.~.B.Z.&XoXm.:.R.`.XXI.R.H.' e.A.J.n.3.M.!.I.h.!.{.{.`.{./.L.~.[.}.b.B.S.{..X/.b.H.T./.~.Y.Q.&X+XT.W.W.{.*X-Xl.D.'./.U.OX_.+XoX`. X-XwX`.H.(.^.P.].*X4XtX5X7X<X8XqXvX",
"].2X1X.XrX+XK.S.F.`.XX/.F.(.K.`.oX!.S.J.N.4X0Xk.L.J.r.].Z.M.I.C.V.x.T._.OXXX$X!./.'.Q.!.~.+XI.I.P..X|.`.G.^.Y.K._.F.b.^.OX`.'.'.|.5X}.9.[.A.!.^.@X(.@X>XOX!.'.yXv.c.#X*XR./.[.'.1X$X7X2XrXyXrX",
"&XwXqX$XH.m.F.n.L.^.W.).P.~.T.~.+X/.d.k.(.:X$XI.-XF.6X`.N.^.Q.m.K.G.C.1XXXQ.].H.`.E.R.}._.$X!.P.~.I.OXD.N.XXW.R.E.A.B.~.P.}.$X;XXXH.Z.M.V.E.).{.=X,XqX<X+X|.'.+X-.p.;X-X X$X[._.%XOX7XdX7X,X,X",
"P.;X X~.j.R.!.C.M.L.G.L.Q.}.]..X`.z.r.T.qXs.}.^.`.4.F.).D.n.Z.a.R.'.[.XXK.R./.~.Q.R.^.@X]././.).[.{.B./.=X$XJ.I.B.L.Y.!.P.&X$X~.[.^.J.Z.Q.^.(.rX].5X2X3X+XH.W.+XV.(.#XeX:XG.}.|.&X5XqXqXeXqX3X",
";X#XQ.(.Q.{.[.L.W.}.`.Q.:X,X+X.XH.k.$XI.H...Z. X!.} 9.(./.R.,X{.S._.[.I.A.}.Q.W.'.).).@X[.Z.!.!.^.F.j.{.^..XG.5.T.F.K.|.).(.). X#XF.I.T.G._.=X>XeXmXT.f.M.C./.E.'.oX<XqX%XR.C.^. X0X4X&X3X:X(.",
":X}.+X/.].b.Q.I.n.I.P.D.1X=X).Y.c.x.oXz.6.F.].%Xh.U w.(././.].d.k._.'.`.}.=X/.!.-X$X'..X.XS.|.W./.l./.@XJ.].S.0.'.D.L.$X].C.L.2X].k.P.Y.h.(.7X.XoXtX[._.#XR.L.E.|.-XAX~.[.z.K.[.&X7X2X=X2X<XXX",
"4X<X7X X2X$X9X_.K.~.E.K.3X$XQ.L.P.|.|. Xt.i.`.-XC. .P. X[.&X_.s.a.|.(.$XOXW.T._.{.}.T.L.U.N. XY.(.F..X#X-XW.Z.Q.I.'.oX).I.J.`.:X1X_.[.).I._.&X5X<X2X^.N.Q.XX{.+X5XAX'.j.M.).eX{.>XOX%X<X1XeXkX",
"].].R.].].%X%X/.;X;X.X{.5X=X].{.@XG.v.L.L.K.$X7X~.>.R.^.(.>X#X].Z.OXG.].{.Y./.{.!._.U.C.c.c.(.T.~.'. X$X5XW.*XU.Q.:X;XD.A.^.>X6X).2.r.T.).#X8XuXoXb.a.c.`.9X,X@XZX!._ Y.}.{.+XxX%X`.$X8X<X5XiX",
"P.'.).@XB.C.Q.&XE.U.D.!.|..X{.;X XQ.).B.N.G.].3XXXV.oXXX@X,X%X_.[.>XE.!.}.>X;X+XoX}.!.Y.C.I._.].{.;X<X,X=XXX6Xp.^.oX{.C.W.[.-X>X%Xr.D.:X.X#X$XL./.%.7.,XqX=XrXhXI.b.~.G..X`.7XrX,X1X8X9X2X;X%X",
";X2XOX~.R.|.:X`.Y.H.S.{.'.}.[.<XM.XXS.R.~.W.5X+X@X`.[.I.!.OX1X_.Q.:X$XY.I.1X+X`. XL.m.G.A.).!.`.}.3X1XOX;X|.k.6.z.I.!.S.OX&X{.D.;.u.(.@X{.^.Z.z. XF.H.<X,XwXaX9.G.{.b.zXoX%X-X#X3XaX4X X+X#X.X"
};
