/* XPM */
static char *_a58a9eb00064ce5dafb8d4a2f9677bbRBxGgBmipqS3AlzS[] = {
/* columns rows colors chars-per-pixel */
"64 64 254 2 ",
"   c #3C3B2B",
".  c #3A3925",
"X  c #3C3B32",
"o  c #38381C",
"O  c #443B24",
"+  c #42362B",
"@  c #443C2B",
"#  c #4B3D2C",
"$  c #463824",
"%  c #533D29",
"&  c #453D33",
"*  c #4A3E33",
"=  c #443E3B",
"-  c #493B39",
";  c #513F32",
":  c #3E4129",
">  c #3E4532",
",  c #47461C",
"<  c #56491D",
"1  c #444324",
"2  c #45442C",
"3  c #4A442C",
"4  c #4B4A2C",
"5  c #484825",
"6  c #53432C",
"7  c #544B2A",
"8  c #5B5B2C",
"9  c #56552C",
"0  c #454334",
"q  c #4C4434",
"w  c #4D4A34",
"e  c #45443C",
"r  c #4C443B",
"t  c #46493D",
"y  c #4D4A3C",
"u  c #474934",
"i  c #524434",
"p  c #534B34",
"a  c #5B4C35",
"s  c #52453A",
"d  c #534B3B",
"f  c #5B4C3C",
"g  c #584635",
"h  c #4E5138",
"j  c #545333",
"k  c #5B5533",
"l  c #5C5C34",
"z  c #54523C",
"x  c #5B533B",
"c  c #5C5B3C",
"v  c #565937",
"b  c #4C512B",
"n  c #644A2F",
"m  c #605C2D",
"M  c #654D38",
"N  c #635C34",
"B  c #64533B",
"V  c #6C533C",
"C  c #635C3D",
"Z  c #6B5C3D",
"A  c #695635",
"S  c #72563B",
"D  c #755A2D",
"F  c #5C602C",
"G  c #5E6135",
"H  c #5E623C",
"J  c #646434",
"K  c #63633C",
"L  c #6A643B",
"P  c #6B6D3B",
"I  c #686937",
"U  c #72663C",
"Y  c #6D7238",
"T  c #73743B",
"R  c #747A3C",
"E  c #7B7D3C",
"W  c #747536",
"Q  c #69692A",
"!  c #453D44",
"~  c #503E4A",
"^  c #464342",
"/  c #4C4442",
"(  c #4C4B43",
")  c #464549",
"_  c #4B454B",
"`  c #4C4B4B",
"'  c #474A42",
"]  c #514542",
"[  c #534B43",
"{  c #5A4D42",
"}  c #534C4A",
"|  c #584A4B",
" . c #555244",
".. c #5C5344",
"X. c #5D5B42",
"o. c #55534A",
"O. c #5C544B",
"+. c #5E5A4B",
"@. c #4D4A52",
"#. c #534854",
"$. c #5B5653",
"%. c #4C5148",
"&. c #635443",
"*. c #6B5542",
"=. c #635B44",
"-. c #6C5B44",
";. c #63564A",
":. c #645B4B",
">. c #6B5C4B",
",. c #6B574C",
"<. c #735C45",
"1. c #715D4B",
"2. c #765A42",
"3. c #645B52",
"4. c #6A5D52",
"5. c #635A58",
"6. c #715C50",
"7. c #614E43",
"8. c #656343",
"9. c #6B6444",
"0. c #6C6C42",
"q. c #64614A",
"w. c #6D634B",
"e. c #6E6C4C",
"r. c #656A43",
"t. c #736344",
"y. c #7C6445",
"u. c #736B45",
"i. c #73634C",
"p. c #7B654C",
"a. c #736C4C",
"s. c #7B6B4C",
"d. c #7A6A45",
"f. c #6D7147",
"g. c #747543",
"h. c #767B43",
"j. c #7A7B43",
"k. c #74744C",
"l. c #7C734C",
"z. c #7C7B4C",
"x. c #767749",
"c. c #6D6354",
"v. c #6D645B",
"b. c #6C6954",
"n. c #746453",
"m. c #7A6553",
"M. c #746C54",
"N. c #7C6B54",
"B. c #73655A",
"V. c #796659",
"C. c #746A5B",
"Z. c #7C6C5C",
"A. c #7B7355",
"S. c #7C735C",
"D. c #7A7955",
"F. c #6D7150",
"G. c #7B6D63",
"H. c #766E63",
"J. c #7D7264",
"K. c #7A7268",
"L. c #6B6762",
"P. c #826C3E",
"I. c #856A4C",
"U. c #84794C",
"Y. c #836C53",
"T. c #826D5A",
"R. c #876D56",
"E. c #837254",
"W. c #8B7454",
"Q. c #837A54",
"!. c #84735C",
"~. c #8B745B",
"^. c #8C7B5B",
"/. c #877C5A",
"(. c #927C5B",
"). c #967957",
"_. c #94774F",
"`. c #816F63",
"'. c #837464",
"]. c #897664",
"[. c #847A65",
"{. c #8B7A64",
"}. c #82766A",
"|. c #857A6B",
" X c #8B7C6C",
".X c #89746B",
"XX c #937D64",
"oX c #927E6A",
"OX c #957B65",
"+X c #8B7D71",
"@X c #857C74",
"#X c #7B813D",
"$X c #7D824B",
"%X c #7C8142",
"&X c #7E8153",
"*X c #83853D",
"=X c #828444",
"-X c #83844C",
";X c #8B8C4C",
":X c #868948",
">X c #8A8A53",
",X c #888458",
"<X c #93825D",
"1X c #9C8C5E",
"2X c #96885A",
"3X c #94925A",
"4X c #8E924F",
"5X c #A3885C",
"6X c #A0935F",
"7X c #8C816B",
"8X c #898764",
"9X c #958363",
"0X c #93836C",
"qX c #9B846B",
"wX c #9D8B6A",
"eX c #998766",
"rX c #979465",
"tX c #8C8273",
"yX c #8C8578",
"uX c #948474",
"iX c #9B8B74",
"pX c #958B7B",
"aX c #9B8C7C",
"sX c #968776",
"dX c #9C9178",
"fX c #A28463",
"gX c #A28B64",
"hX c #AC896A",
"jX c #A58A69",
"kX c #B38E6B",
"lX c #A59265",
"zX c #A3936C",
"xX c #AC936B",
"cX c #AC986B",
"vX c #B4936D",
"bX c #B5986C",
"nX c #A48D76",
"mX c #A49272",
"MX c #AB9474",
"NX c #A8967A",
"BX c #B39473",
"VX c #B39B74",
"CX c #B89875",
"ZX c #B38E73",
"AX c #B8A277",
"SX c #B0A06C",
"DX c #C6A47E",
"FX c #C0997A",
"GX c #9D9384",
"HX c #988D82",
"JX c #A39382",
"KX c #A89788",
"LX c #AC9786",
"PX c #BEA485",
/* pixels */
"@.^ ] * i * s [ ] / ( / ( } _ _ e ( z w 4 u t ` @.` e ( %.t t ' ' ^ t y y ..* i i i d d { d e  .@.^ t u u { d q s s s s d ] #.#.",
") } C.n.N.'. X`.v...+.:.+.o.( $.o.+.x v X.+.o.` ! ^ ( t o.o.t $.' / ( v.:.>. X+XZ.V.Z.'.[.J.c.y @.( X.F.M.M.c.9.i.V.B.c.>. ./ _ ",
"r ..7XwXzXNXLXiXB =.w.=.z d q y 3 4 5 7 K S.H.v.$.$.O.e q.v.' L.o.y [ J.&.f T.].!.{.oXiXsX XJ.d / u b K 9.w.u.l./.mX0Xt.L w.O./ ",
"d p ^.cXVXcXVXzX7 t.Q.u.l v p w 6 k m m U A.M.:.| $.3.r [ } e 5.o.& ;.'.n.m.p.~.s.Y.Y.oX!.Z. Xg @ 1 l j.,X<X2XwX1XAXwXU I u.=.y ",
"q 6 /.zXbXcXVXgXt.d./.Q.L 9 7 8.d.U.>X2X1X<Xw.q / r r r r / / = r * ..Z.'.oXR.qXR.y.y.XX!.T.].g 5 9 T :X>X1XlX6XbXxX1X2X,XL 4 u ",
"q x 9XzXVXAXCXgXY.E.Q.u.9 5 j M.<X1X6XcXAXMXE.f | - * [ r r O.= * d i w.m.p.R.~.~.Y.~.qX~.Y.Z.i 8.l.>X1X1XlXbXbXCXxXlXlX,X0.v y ",
"r :.iXmXVXVXMXnX!.!./.8.4 4 X.C.zXzXlXlXcXwXN.x - [ c.>.w #  .v.d d # -.-.<.W.R.Y.Y.OXOXY.Y.m.i 4 Z 2XSXAXCXCXvXvXBXMX<Xu.9.q./ ",
"/ O. XwXmXwXjXNX!.N.A.M.c 3 d H.iXmXzXzXzX^.i...s f Z.S.S.M.X.C.C.3 i -.B s.p.I.I.y.Y.p.p.].N.i ..t.2XAXAXvXvXCXBXhXZX9XZ j  .e ",
"_ } ..B p.i.p.m.,.&.=.=.=.+.( $.`.].-.s.E.C x # s w ;./.rX>X,XD.b.d d :.n.w.*.p.Y.~.T.oXZ.Z.Z...i 0XMXCXCXBXFXfXZXhXjXMX^.a.y ` ",
"_ e * $ 6 % % % # $ p j z y X } * i # $ 6 3 i d r ;.a.,XrX3Xg.K c.q q X.>.n.N.XXp.T.<.n.n.Z.V.q g E.zXVXBXhXhXkXhXZXeX9X<XS.+.e ",
"$.( { 9./.^.qXnX{.!.0X0X7Xc.r $.K.:.f 7 =.S.C.O.r d w.z.-X>X-XJ q.u X.S.S.Z.N.Y.m.~.-.,.n.'.Z.s g N.lXlXxXCXvXvXkXxXfX(./.9.z ( ",
") X w s.wXzXCXPXNXeXNXNXiXw.q [ O.:.e.8.C S.[.C.q z k J R Y F P C.u ..M.c.i.i.i.1.!.-.,.>.Z.V.{ a E.gX5XlXCXvXkXxX5X2XU L k 2 ( ",
"%.e z ,XzXcXVXAXMX9XMXzXwXw.3 w 3 A.8X,XL C e.z q q 9.z.T T j.P C.q d :.,.i.p.i.<.N.*.1.1.V.n.{ &.N.U.gXxX1XxXxXxX1XgX7 8 l.d r ",
"' 0 x /.2XVXAXPXjXW.wX9X9XC O # l ,X3XrXrX8X0X=.O w.D.z.>X3X,X,X:.2 z n.n.i.V B p.p.*.Z.n.Z.V.s g p.d.2XxXeXMXjXmX(.mXZ N A.d ( ",
"` 0 w 9.y.eXBXCXOXE.jX9XwXi.g f L 3X3X;X-Xz.u.p p =.A.l.U l.Q.u.X.q d =.-.B M B <.<.<.T.,.n.V.# - >.p.W.9XeXeX^.~.-.E.s.k c q / ",
"` e 2 a n (.MXLXqX{.NXqXnXi.f f 8 j.=XQ Y x.9.B # f -.u.s.u.t.9.X.w f ,.i.i.<.E.2.Y.~.oX,.V.'.s | { t.E.~.N.V <.-.a f i.x q.+._ ",
") '   @ @ { J.Z.:.c.b.v.v.{ q ;.A.a C a f b.:.i r & x O p q s ..e ( y q p i g &.g f i d q ..o.y = * i % % # + q & + ; # ; { / _ ",
"$.^ 0 p # # s ; # # @ q [ r @ @ x O 3 q @ r s r d { &.p x f i q [ y r ;.B.Z.&.&.*.1.,.>.4.v.+.r [ d &.-.<.<.w.C.C.&.-.i.m.n./ ` ",
"^ e ;...i &.6.7.>.>.:.{ r [ &.;..... .O...o.| r { J.[.!.n.n.V.V.( 0 [ @XaXKX'. XLXJXsX XKXKXK.r d q s.zXMXmXiXNXNXmXNXMXmXiX:.e ",
"( ..7Xm.&.].JXnX{.0XuXn.s &.'.[.[.pXG.K.K.@X@X| q '. X!.n.n. X+X3.r { @XpXpXn.N.JXJXJX'.pXtXC.r @ p ^.lXgXcXVXMXmXwXxXgXwX0X:.r ",
"y @ N.Z 6 B Y.{.Z i.N.&.# &.!.N.Z.7X:.:.4.K.G.r d Z.[.n.Z.V.uX XH.0 r J.JXJX'.].JXaXNXZ.+X}.4.= u S.MXU.D 5XAXxX<XW.gXCXMX!.q u ",
"d 3 A.9.Z p.!.R.Z t.s.&.i ,.{.E.^.0XN.{.Z.}.G.{ d c.J.:.C.c.|..XC.r s G.aXoX X{.0Xn.!.n.pXGX|.d ..S.MXgX).vXAXVXA D ).vXMX{. .( ",
"r d S.-.s.~.qX~.s.!.!.>.s >.{.qX(.9X~.qXT..XZ.d + r +.r [ y ..3.r r { uXaXaXLXLXnX].nXoXuXuXG.s y ;.XXCXDXDXvXvXCXBXCXfX(.{.+.^ ",
"] q :.x -.a <.i.a Z >.{ * { V.!.W.W.2.p.*.'.G.s { r r 0 r [ = ( * d s pXsXiXNXqXoX>. X X XpXJ.d r C.iXMXvXCXkXBXCXhXhXfXOX XO.^ ",
"^ o.J.S.n.Z. XZ.i.7X X4./ s c.sX9X^.i.oX'..X'.f s d d  .r [ v.r ..d s V. X'. X].n.1.aX XB.|.4.d [ c.~.jXhX5XhXZXhXhXjX).~.Z.o./ ",
"} e  .=.>.n.'.'.i.[.[.3./ ] 3.J.'.n.f Z.C.C.B.[ s :.x f ,.n.>.7.{ d q >.n.>.Z. XV.m.'.Z.Z.J.b.# 0 ;.{.fXP.P.jXjXW.fXhX).Y.n. ./ ",
") X   . q i ..g p q 0 & e ] r + 0 0   ( r = / r # -.i.M M S M V &.d g  XsXoXZ.Z.0XuX'.[.JXpXyXz u =./.fX_.).jX(.n I.jXfX9X{.;.t ",
"@.t y p z 3 q i 3 3 d  .} / ] { 0 o.( e / e [ [ p &.!.2.n S 2.S d w d tXuXtXJ. X X XC.C.GXtX[.q 2 9.s.).jXgX<XW.9XwXjX(.(.!.x   ",
"( e q.S.7Xw.>.n.C x ..+.o.e s c.|.yXK.d v.K.K.O.q i *.n n 2.V M { s s }.+XtXG.+XtXtX}.C.pX|.C. .2 w.s.W.).W.E.0X{.{.^.W.~.A.X.y ",
"o.y x j 8.A.iXiXA.w.=.C.K.3.{ c.iXdX Xi V.+XuX>.d 4.&.g *.-.f ,.c.{ q :.v.K.....q.;.:.y :.+.d y w p B t.S V i.>.B.V.Y.Y.N.>.y y ",
"  u w.u.l.^.9Xs.N a.M.S.K.{ q w.9XXX{.6 V.'. X>.* :.f q f q & O.{ s w @ . @ @ d 2 @ q . 2 u @ 0 q q # 6 6 i d = + @ # $ # q e ( ",
" .3 a.9X,Xt.s.d.U Q.u.:.b.{ # -.gXW.W.M ].'.'.f * i @ d d r | } q q  .d x q.x j j c X.X.z z y y +.tXS.B B g 4.@X5.v.B.&.;.3.| ` ",
"y h 8X8Xm 8 J m m 0.A.S.H.O.e } K.b.B.s 4.>.V.f g f &.,.&.*.m.1.{ g 4 8.D.,X-X=XU.z.-X-Xj.J 0 #.w.[.Q.l.l.B V.{.V.V.i.w.iXpX+./ ",
"2 4 D.,XP T j.T z.x.,XdXtX3.r =   @ 2 w # i i q g B *.1.V *.m.1.&.p 7 0.,X>X:X#X=XU.-X:X:Xg.z / w./.x.l.9XN.!.{.i.i.-.7 w.S.[ ] ",
"4 j z.>X;X4X4X:X3Xg.0.a.X.y r r q u w z 2 3 # i i B *.<.V V <.2.&.p 7 u.,X-X>X=Xj.j.-XE R g.+.) a.Q.N < d.-.Y.oX{.{.!.N B >.d / ",
"4 5 8 T :X;X=X=X>Xj.L C x d w d :.+.q.d w.>.n.&.; M *.2.V M S V { i i 8.e.0.x.-XQ.z.-XT 8 j y ! p A.d.U (.t.Z p.M Z E.E.l.S.;.] ",
"j 1 , P >X;X;X3X>X>Xx.u.A.x 3 c [.7XpXw.NXaXnXn.; V V 2.S M S V ..p 5 c K l P j.z.x.Q.g.F j y ) =./.l.U ^.y.y.XXE.s.^.^./.!.&.* ",
"2 . 5 k.,XU.U.-X,X,Xu.a.S.p 1 M.7XaXaXw.0XuX0X,.i *.V V S V V V B 7 5 l P P R %Xg.Y j.-Xz.0.v h X.w.L L ^.N.p.XXs.Z U A Z s...s ",
"y y z S.D.e.e.K C w.q.q.c.d w b.Z. X'.-.'..X XZ.i &.M M V V V V k 7 , G g.T j.%Xj.T j.z.$X0.b 1 d z k N E.p.i.{.t.t.l.t.a.!.;.q ",
"e e X q 2 O p 5 . p d & X r [ +.z z =.p '.>.>.&.; 7.f a V V M M a 7 5 9 G G P Y J J J J 0.r.b b w 3 7 7 t.B C {.i.E./.N C A.;.r ",
"` ^ = = r @ w q q q [ * e / ] + @ $ $ # # q . q @ i q # 6 6 % g s d r 0 2 : 1 2 @ 2 w q y ( t ( ! = & & r r / / [ d d & r } _ #.",
"^ O.L.v.C.:.J.[.[.c.G.@X}.O.[ 3.c.Z.n.:.&.C.;.{ s ;.>.i.Z.V.1.1.:...r y X.c j j p 4 4 q r r e u r r q w q q r [ q 3 4 3 y [ ^ ) ",
"/ 3.yXyXGX[.sXaXaXc.B.}.J.s ..tX{.NXnX XJ. X>.q s C. X0XuX0X].].[.>.p z F.D.k.k.0.K K :.o. .X.v c c c K J C K 9.8.K K l H X.y ( ",
"r ..pXsXKX XiXdXaXJ.+XuX X=.&.7X{.0XoX!.Z. XZ.C.q B.'.!.{.{.!.!.!.x 3 c k.&X$Xz.Q 8 N =.q 0 v F g.g.g.j.j.g.x.x.$Xh.h.T g.K b w ",
"[ ;.pX XuXV.7XNX XZ.sXuX+X>.x N.Y.~.!.N.n.'.Z.J.i &.&.-.E.XXE.t.s.p 3 9.&X-X-X-XR Y I 8.y u r.Y R E #X*X=X=X#XR R R =X:X$XP 4 4 ",
"r s }.Z.[.V.Z. X+XV..XG.Z.&.g !.Y.OXOX~.Y.{.V.>.g -.-.i.^.eX(.Y./.x p e.$X>X4X4X;X=XI C d d f.Y R R #X*X:X;X:XE j.R #X=X$X0.w w ",
"[ s '. XaXaXaXKXJX+XGXpXsX6.g {.W.eX(.I.Y.qX{.!.6 i.!.!.XX9X^.^.7Xx 3 C g.=X;X=X:X;XR 9...d f.R T R E *X:X4X;X-X-XT Y T g.K w r ",
"s r B.n.n.V.Z.pX.XV.uX+X X,.i '.I.I.I.y.p.~.i.>.6 -.N.E.~.W.y.y. Xx 3 L z.;X=XQ Q ;XU.u...0 8.Y T E E P.*X=X=Xj.-XT Y g.z.M.d [ ",
"s { J.;.V.'.1.T.n.m.aX X[.4.* G.<.XXW.I.y.~.`.+X& :.i.s.<XeX~.Y.n.x , I $Xh.-Xj.z.z.Q.K k 5 G g.E =X-X=XW W =X>Xj.j.#X:X:Xz.w [ ",
"r ;.|. XsXaXn.m.Z.n.aXsX X>.q :.T.iXqX(.p.T.n.B.s 4.C.m.!.{.!.T.G.:.5 l k.z.z.P D.l.u.k p 4 c f.U.z.z.g.T j.j.P x.g.g.%X$Xk.u = ",
"d O.3.c.4.c.g g ,.g V.C.b.O.O.;.,.V.m.m.-.,.;.3.| :.:.=.=.,.>.;.4.O.q d X.c c x x c c p d w z X.c =.=.v 8 N N k 9.8.J 8 l 8.y ` ",
"q r r r * $ # q # # q @ & & r = * + $ g % # * ] e = @ @ O @ * + s s & 0 q @ @ 3 O 3 6 3 s r 0 r q d d 4 5 1 1 1 2 5 4 5 , 1 & @.",
"( 3.tXyXpXZ.tXtX}.uX[.H.|.+.{ o.C.&.*.-.Z &.:.{ d z =.8.c f d { 4.c.;.r d :.:.x >.9.B a :.:.[ r y y w j K c v c w j F.D.k.c y $.",
"= +.HXHXGXJ.GXaX XHXtX+XGX3.r B.uX.X0X{./.0X0X>.3 X.D.&Xr.w w ..{.aXuX;.{ [.tXn.9X^.t.s.0XuX3.r w x X.8.k.k.0.e.w 5 e.8X8X8.y ^ ",
"r O.tX}.}.n. X XV.'.G.B.tX..+ v.'.i.^.^.E.^.8XC 5 8.D.&Xf.4 3 :.E.7XiX&.# Z. Xn.Y.E.A d.eXaX;.= x e.9.l J J 8 l x 1 8.k.k.c [ ` ",
"r O.@X+X}.'. X X XJXHX}.uXv.r 4.sXm.XXwX<XQ.,Xw.1 j H r.K 5 2 :.Q.a.!.&.q Z.'.-.s.E.D U ^.0X;.] c 9.9 , 8 P G 9 w 1 v 9 9 1 r / ",
"s ..C.G.uXZ.oXiX!.]. XV.+X..* ;..X,.T.(.~./.N.i.O 4 j 5 : 3 y & t.C f q * 4.+XV.Y.~.(.^.!.n.O.] j v b l P J G c y u @ . o 2 ( @.",
"* { B.>.'.>.T.Z.B n.Z.,. X..* c..X6.!.~.Y.E.i.B 4 5 1 1 4 w y r O O 3 s d B.+XV.i.Y.E.Y.T.n.{ r 5 j j P h.T 0.8.y y y z w w ` @.",
"d C.pX'.aX].JXaX!.aXaX'.GXB.d }.KX XnXnX^.0X{.V.w 5 5 H F.q.d d C 8.X.p w C.aX{.p.I.d.p.V.B...r 9 K K P h.R g.0.z y z q.X.h ( ` ",
"q v.pXJ. X>. X Xn.sX+XC.uX4.@ v..X*.N.s.Z s.n.,.w w j F.8XF.w w e.D.F.p 3 M.iXN.i.s.s.s.!.n...u l 0.L P Y Y P G z u  .F.e.v y ) ",
"* :.}.C.}.:.'.'.n.+X[.B.tXc.= 3. X>.!.^.Y.!.'.J.d w 2 j r.c 2 u v 8.c 4 2 w.7XS.-.N.^.{.7XJ.X.4 9 r.0.T R T P H d u z F.F.c y e ",
"] O.v.v.@XG.+X+XJ.tX@XG.@XH.[ $.J.>.S.^.!.'.C.G.( y : . 2 2 2 u : : . 2 u z e.C.f >.n.B.B.c. .w 4 c c G I I I c o.0 & w w 4 t ( ",
"= ^ = / o.[ [ r s s [ [ } } = e [ & d d d [ - _ _ / t > > 0 e t . X X y y 0 r r - ] ] - ! ^ e e e ( 0 1 5 5 w u } e X   .   y ` ",
"^ } / / / r / r [ - [ ( e ` ` _ ( r d * r } ! #.@._ ` %.t ' %.` ` $.' t e r [ / ~ #.#.#.#.#.` ( _ @./ y w w y r ) ` @.( u t ' ) "
};
