/* XPM */
static char *a6be7f419e8f4b1aaf065309d00b73d6RwlnYGtPa0svARbO[] = {
/* columns rows colors chars-per-pixel */
"64 64 256 2 ",
"   c #2C0702",
".  c #360A05",
"X  c #281308",
"o  c #39150B",
"O  c #380D14",
"+  c #2A1918",
"@  c #331414",
"#  c #3C1514",
"$  c #341C14",
"%  c #3C1914",
"&  c #3B141C",
"*  c #331C1C",
"=  c #3B1C1B",
"-  c #35141B",
";  c #2B0D13",
":  c #2C241C",
">  c #292419",
",  c #34241D",
"<  c #3C231C",
"1  c #382818",
"2  c #36331B",
"3  c #291926",
"4  c #341D23",
"5  c #3C1E23",
"6  c #321D2A",
"7  c #391928",
"8  c #371B34",
"9  c #300F21",
"0  c #2C2424",
"q  c #25232B",
"w  c #2C232C",
"e  c #2D2B2C",
"r  c #282B23",
"t  c #342323",
"y  c #3C2324",
"u  c #3C2C23",
"i  c #33252B",
"p  c #3B242C",
"a  c #342B2B",
"s  c #3C2B2C",
"d  c #342B24",
"f  c #3C322D",
"g  c #373128",
"h  c #2C2734",
"j  c #342432",
"k  c #3B2433",
"l  c #342C33",
"z  c #3C2C33",
"x  c #342C3C",
"c  c #3C2C3C",
"v  c #36263A",
"b  c #343233",
"n  c #3C3334",
"m  c #3C333B",
"M  c #3A383A",
"N  c #2D3330",
"B  c #1C1816",
"V  c #460905",
"C  c #570C06",
"Z  c #4B130D",
"A  c #461707",
"S  c #581607",
"D  c #440C15",
"F  c #590C17",
"G  c #441513",
"H  c #441D14",
"J  c #42131C",
"K  c #431A1C",
"L  c #4B1C1B",
"P  c #4B1816",
"I  c #541C14",
"U  c #581A18",
"Y  c #760B03",
"T  c #651709",
"R  c #761808",
"E  c #661A18",
"W  c #751915",
"Q  c #6A0808",
"!  c #572309",
"~  c #432413",
"^  c #44231C",
"/  c #4C231C",
"(  c #482817",
")  c #5B241B",
"_  c #572719",
"`  c #57331D",
"'  c #4A2912",
"]  c #66260A",
"[  c #62241C",
"{  c #682617",
"}  c #762819",
"|  c #79341B",
" . c #6F2E12",
".. c #431C23",
"X. c #4A1D22",
"o. c #471929",
"O. c #571B26",
"+. c #441D33",
"@. c #4D1933",
"#. c #691C25",
"$. c #721C22",
"%. c #432424",
"&. c #4B2423",
"*. c #442B24",
"=. c #4B2B25",
"-. c #43242B",
";. c #4C242B",
":. c #442B2C",
">. c #4A2C2C",
",. c #532323",
"<. c #532B24",
"1. c #5C2B25",
"2. c #532C2B",
"3. c #5D2B2C",
"4. c #582428",
"5. c #44332D",
"6. c #4C332E",
"7. c #483628",
"8. c #52332C",
"9. c #5C352C",
"0. c #573627",
"q. c #432433",
"w. c #442D34",
"e. c #4B2C33",
"r. c #432D3C",
"t. c #4B2C3A",
"y. c #472438",
"u. c #572A35",
"i. c #443234",
"p. c #4A3334",
"a. c #4B3B33",
"s. c #43333C",
"d. c #4B343B",
"f. c #433B3C",
"g. c #4B3B3C",
"h. c #433B34",
"j. c #523333",
"k. c #5C3434",
"l. c #543B35",
"z. c #5C3B34",
"x. c #54353C",
"c. c #533B3C",
"v. c #5B3B3C",
"b. c #5B343B",
"n. c #64242B",
"m. c #642C2B",
"M. c #682826",
"N. c #772C26",
"B. c #673729",
"V. c #753828",
"C. c #662C35",
"Z. c #6B3A34",
"A. c #64343B",
"S. c #633A3B",
"D. c #673737",
"F. c #763936",
"G. c #7D2B35",
"H. c #3C4136",
"J. c #7D4212",
"K. c #49453A",
"L. c #54443C",
"P. c #5C433D",
"I. c #584537",
"U. c #57422B",
"Y. c #78442A",
"T. c #684639",
"R. c #784739",
"E. c #6B4A31",
"W. c #3B3944",
"Q. c #362C45",
"!. c #3B1D41",
"~. c #443B43",
"^. c #4B3C43",
"/. c #493746",
"(. c #533C43",
"). c #5B3C43",
"_. c #563947",
"`. c #4F324B",
"'. c #663945",
"]. c #763A44",
"[. c #67394F",
"{. c #3B4349",
"}. c #4C4243",
"|. c #494549",
" X c #544344",
".X c #5B4344",
"XX c #53434C",
"oX c #5B444B",
"OX c #5C4C4B",
"+X c #574B47",
"@X c #5A5348",
"#X c #584955",
"$X c #5C5858",
"%X c #4D4B54",
"&X c #634244",
"*X c #684949",
"=X c #754847",
"-X c #67544A",
";X c #77544A",
":X c #674A56",
">X c #774853",
",X c #685657",
"<X c #775657",
"1X c #786359",
"2X c #6C5763",
"3X c #696566",
"4X c #8D1908",
"5X c #852804",
"6X c #872A18",
"7X c #983519",
"8X c #8E3111",
"9X c #A5321A",
"0X c #863728",
"qX c #863A36",
"wX c #953A34",
"eX c #913127",
"rX c #AD3727",
"tX c #8A1A26",
"yX c #90481B",
"uX c #B1481C",
"iX c #884529",
"pX c #96482B",
"aX c #884838",
"sX c #944935",
"dX c #995539",
"fX c #90572C",
"gX c #A64737",
"hX c #A55639",
"jX c #BB5837",
"kX c #B34C2E",
"lX c #A86731",
"zX c #C65338",
"xX c #D36333",
"cX c #874746",
"vX c #944B44",
"bX c #845449",
"nX c #975647",
"mX c #985652",
"MX c #885758",
"NX c #A45747",
"BX c #B0544A",
"VX c #926450",
"CX c #BA6748",
"ZX c #B66A54",
"AX c #A96B51",
"SX c #886966",
"DX c #AC7367",
"FX c #9E5C60",
"GX c #C95A45",
"HX c #CB7352",
"JX c #C07467",
"KX c #973745",
"LX c #BE823A",
"PX c #B88158",
"IX c #D58D6C",
"UX c #DAA265",
/* pixels */
"%.:.k 8 5 :.f a n o [ T Z & k Q.g > >.^ & '.'.y.`.`.#X%X|.|.|.+X+Xg. Xi.p :.).5 b.x.&X*X X$X3X2X-XK.h.u 1 A S iX` 0.7.a j x x v ",
"*.:.k k 5 y t w i ; M.T Z K s.~.s :.@ %.=X;.;.*X:X:XXX~.m f.f.f.}.i. X,X(.p - e._.x..X:X-X,X3X,Xi.n ,X,Xl.1.mXnX` 7.f i i h x x ",
"u s z s s s k v 6 J G.S Z * a f r.p -.v.*X&X1X1X<X-X&X(.d.i.i.i.g.g.g..X).v.%.v.*X).OX,X,X,XOXn ~.#X#Xc.<XT.=X3.:.f n z p w N l ",
"s z a a f i.s.c O m.N.C H t e a t.y.x.p.5.@X+X+X+XOXOX(.w.y 5 t * i.p = @ %.j.&Xx.w.w.s.^.^.i.0 /.|.oXv.z.S.A.;.z b m t.e.s d i ",
"v c z a g n z 3 P nXW C X.w q q ;.-.>.p., n r N b b z p t 5 -.>.s y ; = = @ z.v.(.w.i w l m g.i./.^.j.3.B.VXD...z N l w.e.:.y 4 ",
"v c n a g a 4 ; M.ZXW C L 3 3 6 # ;.%.v.*.f f.M l e w l s.c.v.P.:Xc.&.<.<.% S.z.(.^.s.m s.^. X Xg.h.S.V.S NXN.G i.b e p >.>.:...",
"8 q.w.s a t 4 7 E qX0XS 4.-.j.x.H =X9./ 0.^ :.(.^.f.f.^. X(.l.j.x.&X&X<./ / <.S.y z s.~.|.XXc.c.I.I._ | pXHX} U :.a e i z i.i.-.",
"y.q.-.:.t + 7 u.O.M.mXM.D.u.=XR.E.` R.) Z V C.A.:.:.i.i.i.5.6.8.t.e.&.L Z.bXH / p.g.~.~./.g.i.:.U.( Y.HXCXCXeXT K t w w l m n y ",
"a a a + y O O.].J cX=XI ` 2.j.e.-XI.E.V.} E T E [ m.D.z.*XP.*.-X:X:XS.=XD.bX1.1.v.x.(._.XXi.i.v.P.l.bXV. .0XsXC Z H 4 q h v j z ",
"q e 3 t @ L n.n.].D.9.` A ( X i.*.T.R.R.F.0XqX0XF.R.F.Z.9.T.*X< q.j.v.=XD.D.<.Z.>.&X:X).s y :.j.X.D.M.S S C hX6XT C D 7 r.c 3 + ",
"q q 0 * o 1.U F.;XT.=.~ ' ' 5.w p d.4 -.u.k.].4.Z 4.n.4./ ;XSX8.d.e.).*X<XZ.3.D.k.S.k.*.= >.j.j.C.].F F I V pXkXR T E O.y + > > ",
"t t = G 3.m.m.R.j.>.5.=.B.A ,.-.-.-.p (.c.y l.*Xu.u.;.J ,.T.S.9.p.y :.j.<X*XS.D.) L G H o ^ e.&XA.#.F F ,.A  .kX7X4XY Q A % ~ o ",
"G U C N.F.C.=X2.%.t d.<.V.ZXS O.P o % >.>.y p.:X:X_.y.;.'.k.o / :.:.s w.oX'.A.'.mXV.U V.B.z.>.-.2.G n.3.z.U.Y.hXjXrXrXtX} E E C ",
"U E wXNXS S.).4 i.d.j.P vXIXaXF.F.M.) P ,.A.j.e.q.q.5 _.&X=.>.>.s i./.XXoX_.A.4.qXqXsXnXB.8.y t X G n.1.*.8.E.V.iXgXGXgXsXN.G.$.",
"S.) nXNXV k.u s 5.>.&.3.cXM.R.bXY.pXhXhXpX| { U <.&...e.:.= e.-., i m #X#X).'.L S E N.aX) / = @ % 1.M.n.&.*.8.=.~ _ V.V.bX=X=X'.",
"#XT.S | { % 7.a.a.*.^ T.S.=.*.U.fXdXlXIXHXpXdXnXaX_ o o %.c.w.w.g.n ~.%X#X/.*X,.aXaXvXmX) P % %._ U E E O.K @ -.6.z.E.0.T.7. X:X",
"@X1XD.S iX] =.* 1 < *.b.c.e.p.p.E.0.VXAXmX;XS.>XA.A.C.m.<.>.s./._.(.m %X~.p.=X,.Z.=XA.>X>X'.k.T.Y.iX5XQ W M.4.k.*X-X Xd.d.d.(.#X",
"3X<Xu.E dX .9.>.s s p p.i.:.5.*.1 ( B.bX=Xv.c.5.>.2.<.<.j.p.i.s. XXX|.W.|.g.&.Z.<.&...t.t.*X<X;XZ.aXBXBXvX].=X*Xz.P.OXoXoX.X.XOX",
"%XoXC.n.sX{ ,.& 7 q.q.-.t + , < 1 0.S.*X).a M r , u < y 5.i.a b a b W.M |.p.# =X,...w.r.8 p i., <.V.sXJXM.k.>.6.8.L.-X,X*XL.a.5.",
"/..X&X4.V.{ n.O.O.n.n.3.<.^ ( ~ ( 0.S.b.z e r r : d t * a d d f d a b f.g.%.3.MXX.& 6 3 v 9 ; > $ . _ aX<.p.}.a.< *.L.OX Xa.5.u ",
"e.l..X<.V.} G.G.W W Y R { ) / ~ _ / P J 5 i r r , t * * s s a i.g.f.a s :.K n.FXA...p 3 y.o.= = < o _ M.S.c.^.n :.s s.^.d.i.5.g ",
"&.< u ~  .6XW W 7X9X4X4X} ) 1.z.9.Z.U O.X.- p y = @ @ 5 :.:.:.:.d.c.d.y j.2.L MXMX.X,Xd.& O.u.J G [ { [ S.*X(. Xc.d.s./.r.z b b ",
"<X*Xa._ 6XjX9XrXzXGXuX7XiXB.&X<XS.>X].m.O.K -.e.@...X.2.=.%.-...e.x.).x.&XS.2.D.<XL.-Xl.O C.].C.Z.vXnXU =Xd.XXs.i.w.k r.`./.W.{.",
"_..X*.A R zX4X4XHXjX7X| Y.I.j._.).=XMXD.D.=X).[.'.C.].=X=.= e.;.t.d.e.).p.p.*X= +Xa.K.l.A.cX#.P I aXaX_ *.s.M b :.z k r.`.~.b b ",
"Q.h t A R xXrX6X] S k.,X Xf k p s y >.*.j.*X:X:X>X>X<X<X6.6.;.u.t.g.p.%.+ < &.=.I.I.7.B.F.vXC V # A ) H w.~.M }.i.s.r.k p z n r ",
"3 j > A 8XzXgX| B.9.:X:X5., w._.OXs * * 5.+XOX,X[.&X:X:Xl.p.k.o.e.4 ; @ 5 %.L # $ 8.0.I S 0XE V   A _ <.i.m M |.g.s 6 k w.i : r ",
"o.:.7.A iXhXaXE.L.}._./.t :..X*Xa : t a n M f.|. XoXoX(. Xl.=X3.e.w.x.'.).C.].MX9.o )  .C 0XaXI o A . / -.m ~.|.p.g.r.k 6 4 : r ",
"C.[ A Y.ZXaXVX-XK.}.`./.s 6.i.* X t z i 0 b |.$X+XXXXX^.XX&X>XF.e.s :.d.j.;.u.A.MXMXY.T  .aXaXZ.1.I C U &._.(.XX(.(.r.k q.w.s f ",
"C R 0XdXsXY.;X+XL..X`.7 X > a i y w.i.z m |.$X,X X}.XX#XXX*XD.F.-.t : 0 -.;...5 >.=XaXV.aXR.;XSXm.M.sXN.n.)._.(.w.d.s.k q.x.p.u ",
"C NXBXCX| ) SXg.$ *.t.-.1 1 a l i.d.g.OXOX XOXOXoX(.XXXXg.v.L n.; + > > * & p z t K F.mXB.% 6.g.z.m.vXN.4.u.q.-.w.y 4 -.>.8.^   ",
"1.[ W wXN.1.v.p.t y p p u g l m /.XX XOX+Xg.oX:X:X:XXX^.h.6.&.O.X.= > > 5 5 0 3 + %.U M.Z $ y s.g.=.B.O.J +.k 4 , + 6.T.~   ' Y.",
"s S.[ N.N.) b.5 i w j r.5.u x /.~.#X+X@X@XOX2X:X[.:X#X}.@Xa.8.J P # + > %.5 w q 0 @ P cXU @ t w.N w.2.C.& 6 c z *.*.^ X A VXAXB.",
"j.,.C.E 6X0XJ +.6 i + u 1 , M %X%X+X*X-XOX%X%X$X,X*X-Xc.p.:.<.G B.~ 1 : l m 3 3 3 + ..C.P J * y l y P ,.J 7 p :.j.o . J.LXfX[ '.",
"i.:.b.U ]  .D o.& ..5 =.< y s.`.,X-X-X,X$X|.W.x g.*X:.t d.4 %.% ) ' ^ + 3 j 6 6 - - L 1.  ; + l e y . R.X.- 7 ;.K B.AXUXlX! B.).",
"M f._.u.) { U O.O.3.,.8.:.:.t.y.`.(.L.L.f.e q 3 6 t.5 4 p s l.$ I I L - 3 j j k G . A _ o y 3 B B X   R.k.;.J D ,.B.nXUXfX! z.c ",
"M f./.t./ ) n.O.#.n.,.p.p.w.w.q.v j s , > + + i k 3 w.w.y w.s 4 C.n.O.@.q.j 4 - P V _ _ =.i.6 3 X 8.E.` H # ..u.4.O.I fXiX! 5.{.",
"L.L.d.d.:.>.u.@.O.O...s M b n i.W.h + + $ < d d q 3 6 p >.%.@ .XC.C.O.@.t.s.:.% D I R.~ < t p 6 H R.0.X 1 < ;.;.u.;.O.V.Y.~ : {.",
"I.l.p.w.i.r.`.@.n.4.J * M M n a x h i y *.=.:.a h x 3 = % / 8..Xu.A.u.X...>.8.H 4.3.;XH 2.v.2.# V F.H 1 , $ :.>._.w.t.m.F.` u N ",
"u 2 u a n n q.u.M.N.U O :.z i.%.q e m i.>.*.w.s.~.|.g./ A V.R.&.&X*X8.^ = # = @ &.G ,.G <.Z.I I cXm.o 1 : g f :.z z d.u.F.U 1.*.",
"d 2 f n K.h.5 ,.C 0X0XZ D - e.u.s n n i.i.p.d./.Q.c p.` V.AXY.=X-XI.1 *.&.@ = = ,.D ,.m.1.M.) AXvX. =.: > f u :.z m k u.mXS { _ ",
"d 5.U.E.=.2.B.U W wXpXN.E F F E I _ 8.i.K.n n f./.e.L N.dX] R.-XI.U.*.u , $ P Z M.F M.{ NXvXZ =XD.# t b e a *.0.s.i.t.J NXhXC ! ",
"2./ ! ! m.U cXmXN.N.{ { F.qX$.W } T ) l.s n }.m r.>.1.aXS V.*XL.a.7.$ @ % 3.E C qXN.C C N.Z A / k.%.s n l z *.^ s y e.O.eXjXHXT ",
"V [ V.} wXqX0X{ V.Y.B.` _ [ } 0XjX8XV / l.L.p.i.2.u.R.B._ *X.Xf.:.* $ H Z E Q W gXgXW N.F.Z &.= -.-.s n m n :.< d u >.[ 7XzXjXuX",
"#.].AXNXwXtXY } B.R.-XI.8.B.N.} jXHXaX_ % = &.&.I I B.H -XOXXX/.k 6 y P C R Y rX6X} M.n.C.X.^ + 5 -.4 k s.n h.f d 1 / { 8X9XY jX",
"'.*XT.{ } rXuX5X] ` a.K.K.z.Z.Z.] ] Y.bX=X/ I C ] { _ T.2X#Xm i !.8 5 V T gXrXBXE V L & 7 = * $ 4 %.- q.s.z h.h.K.*.D.N.7X7X7X6X",
":X#X@X1XbXY uXuX{ P p W.n u l.;XB.0.0.<.*XT.V.R 7XNXS &.XXQ.j s.8 8 & Z } iXiXsX,.K 6 6 4 * s , t 5 X.>.w.s f g %.9.Z { 6XCX{ [ ",
"6 m H.K.<X} jXxX} U +.`.(.j.j.j.l.T.*XOX:X9.| HX5XhXT # #Xv 3 = 6 9 J I Z.' ~ B.*.4 i w q + t + , = &.;.%.:.:.( ,.1.n.C CXsXH 8.",
"-.z H.N g.B.8XHXW F +.+.+.2.j.>.(.d..XXX X*X] 8XkXjX] L s.j p % 4 & L G z.$ u a.>.* m q q 0 * t > $ =./ = 6.8.<.O.M.E BX0XS 8., ",
"r d d.s.XX&XM.gX6X$.u.+.e.l.p. XT.P.oX^.m L.E.] yXUXyXV c l - ..8 o.F [ / @ * p @ = t j v j : 1 d B ~ R.[ S C S T } sXN.) =.*., ",
"d 5.t c #X'.N.6X4XW ].[.)..XP..X-X XXXXXM h.I.T.! PXdXA s.m p 7 7 J S { ) % @ @ A.&.- 6 x j * 1 > u . F.DXY.iXfXNXZXaX) ,.%.* d ",
"u a.p k (.k.{ 6X8XQ n.'.).OXP.=.a a f.%X$X$X2X2XE.B.pX] 5 + i 9 ..V T sXaX) U C.F.3.J 7 /.v 4 < % G F #.m.Z.Y.dXIXnXH e.q.p a d ",
"1 u z j ~.z.[ hXgXT Z ;.p. X X= i i t d f.#X#X:XA.V HXpXG $ @ k = 1.B.|  .V.cXcXcX=XA.-.7 7 # G Z F Q KX) _ iXS C ! $ p k k a g ",
"h.l m l g.8.I aXgX} U X.6 x ~.p j i.s * t p y.`.O.S 7XzXaX  . # > K.-XE.E.T.T.a.S.=X*X).2.X.Z C T T tXBXDXR.NXhX .A ( s k k 5.g ",
"M W.m ~.p.o G 9.V.[ S P 4 q x x 0 p p :.e.-.o.u.C.C kXGXCXsXS V K.K.H.@X-XI.P.+X:.p.(.OX&X3.E } V.N.qXG.Z.B. .dXIXI ^ i.s p a.2 ",
"q x x >./ A / l.4.N.T Z %.l c c n z p t a s -.u.1.] GX5XC iXCXsX= s l z t.b.).i.K.f.n i.p.<.[ N.B.B./ A.8.T.R.R.aXB.^ t n n d g ",
"Q.q z # A ) ~ *.3.qXR C / 4 j c n XXXXs.l f 5.=.1._ CX5XT S yXNXJ 7 3 8 o...:.i.: n M n h.6./ I 1 > l.s f u %.*XR.A.- s a e a a ",
"z y ^ A ZXhXA 9._ dXrXY S o -.q.-.p ~.%XM a.( A   V.NXqX_ <.Y.Y.Z.v.XX`.].D J - %   x Q.M a.% t 0 B > h. X}.f.s.<XS.1.~ *.f a z ",
"- X.<.R.ZXZXA A I 0X9X7X! % X.& % - + + ^ I V } FXV.S U S.&X=X;X=X*XoX:X=XC.A.S.H . 6 x +X*.. >.@ t f :.5.a.f.i.>.3.V.! ' < - & ",
"/ L % ` { iX_ ! iXsXgXgXB.0.3.3.1.<.z.Z.} 6XgXGXqXM.m.A. X(.).:XP.I.f.|.T.T.;XVXDX! -.d.e.# M.L J = u ^ K * 0 0 5 3.V.nXR.~ # X.",
"&./ 8.z.Z.Z.Z.' V.vX0XE / =.2.C.B.;XB.| kXrXzXrX$.Z.T.P.^./.#X:X,X,X,X3X,XT.I.` ZXpXL & L Z N.S O...= ^ &.y d N s L { ZXVXX ;.o.",
":.y s i j.-.v.8.) m.n.D , 5.j.2.' 0.` { gXrX9X4XR.Z.8.a.f.}.oX#X'.S.,X2XSX<X<XB. .8XZ K Z E wXW @.e.:.5 %.i.m h i 2.S AX' u p 7 ",
"a z a n d.w.i.g.k...C.,.u h.oXt.^ @ &XZ.| 7X} N.z.l.8.l.L. X(.^._.u._.s.OX+X-X<.5X8XA ;.D n.vXN.@.e.w.p t a l z w.K bXE.7.g c 8 ",
"N a 0 a p w.l f.x.5 O.X.$ g i.k e.t.t.>.z.U.~ 9.}.^.b.b.P.-X+Xf.f.i.g.~.|.K. Xo yXjXZ 6 _.b.k.D.j.y t s b N n c.,.) R.0.a.e l v ",
"N d g u %.w.n z -.-.X.P 1 5.4 j 7 `.8 s.> 2 @X XW./.'.'.l.a.h.M }.g.g.|.K.|.L.o yXjXZ.#X2X#XOXl.-XL.u t r r , # U R._ ~ u a l m "
};
