/* XPM */
static char *de3ee966114c439eac107fa60608ba15J0mja95yeTNmFqZo[] = {
/* columns rows colors chars-per-pixel */
"64 64 143 2 ",
"   c #20190F",
".  c #2D261D",
"X  c #2F281E",
"o  c #30291F",
"O  c #342D23",
"+  c #363024",
"@  c #383127",
"#  c #373028",
"$  c #3C352C",
"%  c #3F382E",
"&  c #3F3830",
"*  c #40392F",
"=  c #433D33",
"-  c #474036",
";  c #484137",
":  c #474039",
">  c #4C453B",
",  c #4F483D",
"<  c #504A3F",
"1  c #4D4640",
"2  c #4F4840",
"3  c #534D43",
"4  c #575046",
"5  c #585147",
"6  c #575048",
"7  c #5C554B",
"8  c #5F584D",
"9  c #5F5850",
"0  c #605A4F",
"q  c #635C53",
"w  c #676055",
"e  c #686257",
"r  c #676059",
"t  c #6B645B",
"y  c #6F685D",
"u  c #706A5F",
"i  c #6F6860",
"p  c #746D63",
"a  c #756E68",
"s  c #777065",
"d  c #787267",
"f  c #777068",
"g  c #7C756B",
"h  c #7F786D",
"j  c #7D7670",
"k  c #7F7870",
"l  c #80796F",
"z  c #837C73",
"x  c #867F79",
"c  c #878075",
"v  c #888177",
"b  c #878078",
"n  c #8B847B",
"m  c #8F887E",
"M  c #90897F",
"N  c #8E8781",
"B  c #8F8880",
"V  c #948D83",
"C  c #979085",
"Z  c #989187",
"A  c #979088",
"S  c #9C958B",
"D  c #9F998D",
"F  c #9E988C",
"G  c #9F988E",
"H  c #9F988D",
"J  c #9F9890",
"K  c #9F9890",
"L  c #A0998F",
"P  c #A19B8F",
"I  c #A19A8E",
"U  c #A09991",
"Y  c #A19A90",
"T  c #A29B91",
"R  c #A29C90",
"E  c #A39D91",
"W  c #A39C92",
"Q  c #A49D93",
"!  c #A49E92",
"~  c #A59F93",
"^  c #A39C94",
"/  c #A49D95",
"(  c #A59E94",
")  c #A69F95",
"_  c #A39C92",
"`  c #A6A094",
"'  c #A7A195",
"]  c #A7A096",
"[  c #A7A095",
"{  c #A8A197",
"}  c #A8A296",
"|  c #A9A397",
" . c #A9A396",
".. c #A7A098",
"X. c #A7A098",
"o. c #A9A298",
"O. c #AAA399",
"+. c #AAA498",
"@. c #ABA599",
"#. c #ABA49A",
"$. c #ACA59B",
"%. c #ACA69A",
"&. c #ADA79B",
"*. c #ABA49C",
"=. c #ADA69C",
"-. c #AEA79D",
";. c #ABA59A",
":. c #AEA89C",
">. c #AFA99D",
",. c #AFA89C",
"<. c #B0AA9E",
"1. c #B1AB9F",
"2. c #B1AA9E",
"3. c #AFA8A0",
"4. c #B1AAA0",
"5. c #B2ABA1",
"6. c #B2ACA0",
"7. c #B3ADA1",
"8. c #B4ADA3",
"9. c #B4AEA2",
"0. c #B5AFA3",
"q. c #B5AEA4",
"w. c #B6AFA5",
"e. c #B3ADA2",
"r. c #B6B0A4",
"t. c #B7B1A5",
"y. c #B7B0A6",
"u. c #B7B0A4",
"i. c #B9B3A7",
"p. c #B9B3A6",
"a. c #B9B2A8",
"s. c #BAB4A8",
"d. c #BBB5A9",
"f. c #BEB7AD",
"g. c #BBB4A9",
"h. c #BEB8AC",
"j. c #BFB8AD",
"k. c #C1BBAF",
"l. c #C0BAAE",
"z. c #C3BCB2",
"x. c #C6C0B4",
"c. c #C8C1B7",
"v. c #D3CCC2",
/* pixels */
"+.} ` <.+.V 5 = ` ! +.<.r.&.c 4 F E F F T a 8 m V V m 6 f m m ( V u 3 z S ! ` >.r.D C ! >.+.>.s.s.F ; e C D P M v = p Z ! O.O.-.",
"` +.! <.s.E q 4 ` r.r.<.>.+.c - t y q 8 e ; 8 m Z f f q p m V A v z 3 ` &.! >.+.V S E } +.&.<.6.w.E > p V V Z O.V = p T } ( ( -.",
"6.+.9.i.! ` z 8 ` h.s.9.6.>.V < p z x z v 4 y v a y h p p m V B l d % 5 } 6.P D ! >.9.6.>.<.9.r.f.! = a P } V V p = v &.T E +.+.",
"r.<.6.` V ` n 4 ! 6.&.6.9.+.V 7 m ( T S ` d q s t B A a t v v v c t - y 8 V D +.<.+.+.>.>.} } >.w.( > a f v v v m = h } P F E } ",
"Z &.C n P ! e 4 ` 6.>.9.9.} n 3 V } F V ! v = q m *.J a 3 h b n s q 3 M c 0 ` l.+.} &.r.r.&.} } s.Z 3 z y d Z ( z ; z D Z F T F ",
"p c c m V h > 3 F &.9.&.+.+.l ; z T ( Z S m > v ^ ..^ v # 3 a p q y # v F v s 5.-.9.r.5.+.O.( ! w.z ; Z F Z F V n 3 h V Z F Z V ",
"3 3 y h 8 3 ; , p d n h d l 7 @ 8 y p y y e ; h x V V v . > t q q = $ 8 t q 7 q y y y y y y u p q 3 O c ( P ( T ( % - t z p q y ",
"m C Z C V ` D E } S <.! F E l h F n v C P c 7 > = q 7 9 $ g A A m a * x V m m z 5 > 3 s m m v m C Z 3 q s u a p t q V v v V x a ",
"P ! ! ! } >.&.` &.! 9.6.<.i.z l O.} F Z -.Z f n 8 z V x h b A T m e < z Z F O.w.E 6 - l F Z Z -.T E q . q q q q = n C m T O.Z x ",
"E ` ` E P E ! E +.` <.9.9.r.d s O.S C Z M V Z V q 9 V Z y V F ( m q ; l F P ( ` F n 3 p Z ! F Z V V c 3 Z F V d q Z E Z T T V z ",
"} &.>.+.! ! &.<.i.6.&.6.>.6.p d } D m V Z C V V x V q v e q w.v } p = a m V F F D -.8 h ! F V F C F V $ y m Z l C &.( V V V Z C ",
"E ` ` E F F ` &.>.>.` 9.9.6.u p +.Z M m Z V d v 5.5.*.p a p V ( S y O e a y e q 7 t O > h t y z h z e O t m P P T ( T F V M C V ",
"} ` E D S S D E >.&.E <.6.6.h h +.z V v d n d f F J V V 5.f a m s e , F T v h p x m f 3 h d p q x d * 8 S F Z ( +.! D ! F V V m ",
"Z C V V C C C Z } ! ` >.&.` h y S z v f c T l p e z V V V T p 3 e r 3 *.-.F T ( ( F T 8 A 3.T v m n - p F Z v z O.T V Z V n m v ",
"n n M V C V C Z V S i.z.l.+.z 7 h h e e m m y p g q v Z a a 8 z z g 3 ( J V O.w.5.^ F 3 m ( C V y p 5 l Z ( F h V F F T F V m x ",
"0 q e y y e w t 7 7 s d d u q $ w 0 > q q - 8 p p 9 2 $ = q p p y t > ( ( Z O.5.*.w.K 2 h J A ..V 8 3 z V F S z 4 q q 8 8 8 q q ",
"V n S v m v x = = f V m Z e > 9 v C h ( V q y P F -.x > q m m V P n e <.Z C &.<.r.>.M , d V F ! P q ; M P F z V Z 2 2 p v 3 9 v ",
"z V Z m Z V Z ; 9 N J T O.V q 3 x n d m c q e T -.m 5.q q x V V V c 0 } ` V i.9.9.E V 3 h Z V C T d > m V V Z ( V 6 > p f t 6 v ",
"v Z V V ( V M $ p v V ^ F J p : v n m n m t p T E <.m e 8 h m Z D m 7 E &.z >.6.6.P E < p D S Z V z > V D F ( C V & f J ( V a 6 ",
"x m m Z } m z > v x V T V Z z 6 z m m h x 8 p F V T V 3 > q C C C v 8 +.u.v F >.M V &.7 p D Z n V l 3 Z ( P ( V V $ h V V m Z k ",
"v m ! T F m d 0 Z v T ^ A V n 6 a M M v V 6 h Z Z C q v 5.e c F E V 8 n c s y z V c z = < p s d 8 6 < T O.T T ( F e q V K V z x ",
"3 3 y q t h 0 $ m n ( F Z V z & > q 5 7 e $ d T V 3 z v.c.&.c c n h - q q p 8 q q 5 , 0 z v h h u 8 > F ` T F ( T 3 $ 3 q 3 9 e ",
"F M V m v V p O x B ^ ^ F S z 2 S -.-.5.+.q e z q x h.5.w.P O.z z u < C s.x.r.+.r.>.s ` x.i.<.>.z.F 3 V F C E T K 2 f b f q V K ",
"V m V E V M x 3 z m Z *.S Z x a z.s.r.9.5.h z 5.s.s.5.w.>.T O.-.} p $ V z.<.6.+.<.h.w Z <.&.9.>.O.Z < S E V O.C V 3 f J A V h n ",
"M V V V V v v 3 i A T ) ^ F h a s.r.w.5.<.e f s.5.5.9.+.( 6.P 6.+.u = ` h.s.9.` } +.y E &.6.} &.-.v 8 m ( D Z F V 3 p ..N n x V ",
"z m V V V m v > a V Z K ^ K f q -.5.w.5.-.q s 9.O.9.s.} &.5.s.Z +.p = E s.i.i.>.F E y F &.+.P S ` V 3 v F T T F b 3 j ( Z V V Z ",
"l v V C F C M 3 e x m F ( ( h q +.w.s.6.-.q u ! 5.w.+.m -.-.F ( D p > +.l.s.r.>.` } y z D P +.+.} V ; d x z z a p 2 j F ( F F V ",
"q y p p h h s # = 6 6 8 9 r 2 $ q u d h v 3 q M c O.d m F V S T C p < &.l.r.9.>.s.6.q 7 u e s s h q X ; q 5 3 3 = . 3 y q 6 q e ",
"f z z z v v z = i z h f a f 6 $ h x z d z - ; y q 6 q y q Z ( V C d < E r.<.9.r.&.<.p p D Z ! E Z z p 8 m v v n z = # r g v h a ",
"O.6.w.9.r.<.E 8 F ( T ( ( O.z 3 ! O.( F ! e y V m P 9.O.s 3 v z v p < E r.<.<.9.6.h.c V l.r.s.r.s.O.&.q F } } T V q 8 V V V V m ",
"T -.9.5.5.} Z 3 F T Z S S O.m q m Z F V C 6 w V V v ! ` -.x q e p t , ! h.9.>.>.<.s.h n s.9.6.9.&.T F 5 V F T S V 7 q V B z f q ",
"P -.6.>.<.O.F 4 x S O.5.....h 3 z V F V m > 8 V M c V F m V z x y w ; D i.6.<.9.>.9.p n i.9.<.9.w.` V e F V Z C z ; q m V x V a ",
"h ( 5.>.>.-.V 0 C O.&.O.O.D z ; a v V v z 3 8 S M V V Z F n h l V h > a 6.T F T F } h z w.5.w.-.-.&.v w C Z m Z V 3 q V m n V z ",
"3 h ` Z n V h 7 +.6.O.F ( D y O , 6 8 6 0 = = q y y y y p e 6 3 8 ,   $ q 7 0 w q q > f h.+.&.w.>.6.n > t q t q e = 3 p y u s q ",
"8 * 3 8 8 q < - T <.w.( P Z u e V V V m Z m m m V n n M V V M z v h - q a z z h e a 3 e O.( >.<.F T u > q t m m m z v m l h d q ",
"n z m V V T n 6 ( ! O.( O.F e z h.i.s.&.+.! &.+.<.+.<.9.9.h.h.+.6.T y C V ( E Z V E q $ 6 6 0 3 3 e > V O.5.w.<.s.f.h.i.>.-.} Z ",
"m m l c M T F < m m V m S F q z h.9.s.<.&.E >.>.&.+.6.6.&.<.<.E -.F u D n V V Z m V 0 3 l h v v z f $ m D -.5.-.} -.&.` } ` T F ",
"h l y v Z V m ; 5 q 8 > 3 p < y 6.` &.>.r.&.6.<.6.9.s.i.6.6.6.<.s.D y D V V M V V V q e O.-.w.5.s.( 0 v } w.h.&.w.w.<.&.>.O.T T ",
"h Z n l s h v q T F x f h V p n 1.} &.&.h.u.t.9.9.u.u.u.u.1.1.i.i.Z q V F Z m n m V q q P +.5.! Z m > q x T 9.&.O.O.} } O.} T T ",
"D S Z ! F z y 8 n V C F h y 3 z i.u.9.&.s.u.i.u.i.s.1.<.1.+.} 9.5.D p ! &.E Z Z v V t y T T +.` -.} 6 y y m V T ` +.+.} ( ! F Z ",
"m z p s C m a > V V T S V S 4 h s.<.&.} } 9.&.1.+.+.9.s.<.} +.<.s.V e z y a z h y F u w } ! <.s.5.&.6 p V y D ! F <.>.} ( ! Z m ",
"q 3 7 e m M a > v <.( n E h.q a &.} } ` &.i.+.P } P ` +.P F +.9.O.} = q m z l v n ` a p <.` +.5.5.( < 8 p 5 d d f a h z z h u e ",
"q 8 e q y t 7 @ F ( F Z C } 8 q P &.9.} P F E ! +.>.>.! F ! P M h z ; c ( F ( F S &.a e S D O.<.h.S > q v x V v z 3 7 8 5 8 5 0 ",
"V V F ` 5.} Z 8 V D F S n T q > w q 8 7 8 4 e t q 0 8 0 t p e , 5 = > m v V F m V ! y 4 f M ` &.} v 6 V f.z.f.5.O.w m F F O.! -.",
"v Z V S P V Z 4 z Z m m V n ; = V F Z n t + 7 s h e q y d h h d z y ; f M Z V D v x 5 - > , < > , = = T w.6.O.>.! 8 V T S F M m ",
"V T V V F V V 4 v v v V n y 8 w S F Z E M , p z T T F V V P ` F P V O 3 q , 3 5 8 5 3 h V S Z Z q > = <.w.5.-.s.P 5 V T F F Z V ",
"s h h h F T z = 0 e s 8 8 p M w m T T ( x @ e l h n V v v T ( V V z $ p p e z h z h l S V V v z ! d 3 w.5.5.-.+.T 3 x Z V z h d ",
"f c V 8 3 6 ; % h h u 3 x V V q D O.S Z z @ y f h y p v V V V C S z 8 n C Z C F F ` ( D z m Z V V f 3 s.>.6.6.O.S $ 4 e y q a z ",
"B m p a x v h > x V h z V n A 6 a x v l 8 p &.F F V a p A ^ V Z V v > x V V v V C E ! n m m B z x g 3 8.5.5...*.v & h V V F m n ",
"x p i m F T v > f v g N S V z = a h y a v S ! m m F m e y V T V A x > z V V V V S S S m m m Z B z j 3 V x x g p > $ d E v z n v ",
"> 3 p x p e e = 6 t q a h b p 7 c -.5.>.f.O.V S F F F z q e f i a q = a d y p a p z V V n f x z i q O 8 q t h h p ; p V n z z u ",
"8 q u u 0 q q > e y q q e e > & V -.-.T &.Z x ` ..V B V p 3 6 q 6 = . 6 q 3 q 8 e q = % q 8 8 3 = = $ m w.-.w.5.w.; 3 6 u p y w ",
"h.r.&.+.9.w.-.-.9.i.z.s.z...y = n Z P D ( F V } ( Z m V z a v V O.b q Z s.s.l.<.<.&.w 5 F F V V x p ; h ( F +.O.` 5 h r.z.l.&.i.",
"&.&.+.&.<.D V r.s.9.5.V Z v f e u c E -.T V V V V V x x p e n S b p 3 V 5.>.&.P F 6.s y -.F B B m l < h +.>.9.+.+.d y l.6.9.@.9.",
"u.&.1.&.+.E Z &.E } O.F V v a 6 l v v V V C ` Z F V n V t q B V f h q ` 9.+.E } <.+.e t +.D C v V z > z &.&.+.E Z h u <.&.h.s.&.",
"9.9.h.! M P } +.9.>.F O.( O.x > h M h f d d V c x a a f > 8 T V z v q E <.<.+.h.i.` u d D m F V Z h * z ` D S ! D M 6.} P &.9.&.",
"+.' I I +.<.&.&.<.<.+.<.&.! v = q 0 q 8 q $ 3 q 7 q 8 8 $ h ^ x v x 7 ! 5.>.i.<.<.6.p a Z M B S x w * c F ` V &.Z V Z P <.P &.&.",
"+.P I } <.1.<.<.` &.+.&.} ` V 4 F Z ( O.F 7 y V V h V g ; n v a x z q ( +.&.6.+.>.` w q V m v V n e , l S V F r.n d >.! P u.1.<.",
"<.` +.1.<.} ` ! >.6.&.+.` ! n < C v V E T 0 e n h V V i > p h V z a e O.! } &.` +.&.d < f h n S v y < d F &.r.w.t V <.} 9.9.<.<.",
"@.` &.&.! D P P } } ` ` 5.9.m > Z v c m C e w z k m f q 7 k x F z y e >.} +.} ` +.s.v $ 3 > 3 5 6 > o d m P V x 3 F &.+.i.} E } ",
"9.+.P S Z S F S ! ! ( ( 9.r.v < F Z Z V v 6 5 x x e A h q A V A m e q 9.<.&.} &.` &.l 8 C V V v z a > n z d x D d z s.s.` <.P &.",
"n l p s M D T ( F F P S T T a 2 y y p a t $ @ p a g T n t b V F V p 0 9.i.&.&.1.h.+.y d l.9.w.9.w.-.p p y q x F l t z Z v c l v ",
"p u 0 0 e 3 $ > f a d d z z 3 $ y p a a a 4 = p n O.v a z x m B Z x q <.i.<.9.9.i.+.8 d s.` >.5.n V > 3 t q e q t ; $ p a e e 8 ",
"Z ` ` } S 8 $ 7 z.9.6.5.f.w.z q E 6.<.Z V h q h x B v r p x z m Z V q &.r.&.s.9.&.9.0 z h.+.-.F T V = z ^ Z n T V # 6 S V -.T z "
};
