/* XPM */
static char *b9bd5eff1d56457ea5cca37de99a6ed3[] = {
/* columns rows colors chars-per-pixel */
"96 64 256 2 ",
"   c black",
".  c #010101",
"X  c #020202",
"o  c gray1",
"O  c #040404",
"+  c gray2",
"@  c #060606",
"#  c #070707",
"$  c gray3",
"%  c #090909",
"&  c gray4",
"*  c #0B0B0B",
"=  c #0C0C0C",
"-  c gray5",
";  c #0E0E0E",
":  c gray6",
">  c #101010",
",  c #111111",
"<  c gray7",
"1  c #131313",
"2  c gray8",
"3  c #151515",
"4  c #161616",
"5  c gray9",
"6  c #181818",
"7  c #191919",
"8  c gray10",
"9  c #1B1B1B",
"0  c gray11",
"q  c #1D1D1D",
"w  c #1E1E1E",
"e  c gray12",
"r  c #202020",
"t  c gray13",
"y  c #222222",
"u  c #232323",
"i  c gray14",
"p  c #252525",
"a  c gray15",
"s  c #272727",
"d  c #282828",
"f  c gray16",
"g  c #2A2A2A",
"h  c gray17",
"j  c #2C2C2C",
"k  c #2D2D2D",
"l  c gray18",
"z  c #2F2F2F",
"x  c gray19",
"c  c #313131",
"v  c #323232",
"b  c gray20",
"n  c #343434",
"m  c #353535",
"M  c gray21",
"N  c #373737",
"B  c gray22",
"V  c #393939",
"C  c #3A3A3A",
"Z  c gray23",
"A  c #3C3C3C",
"S  c gray24",
"D  c #3E3E3E",
"F  c #3F3F3F",
"G  c gray25",
"H  c #414141",
"J  c gray26",
"K  c #434343",
"L  c #444444",
"P  c gray27",
"I  c #464646",
"U  c gray28",
"Y  c #484848",
"T  c #494949",
"R  c gray29",
"E  c #4B4B4B",
"W  c #4C4C4C",
"Q  c gray30",
"!  c #4E4E4E",
"~  c gray31",
"^  c #505050",
"/  c #515151",
"(  c gray32",
")  c #535353",
"_  c gray33",
"`  c #555555",
"'  c #565656",
"]  c gray34",
"[  c #585858",
"{  c gray35",
"}  c #5A5A5A",
"|  c #5B5B5B",
" . c gray36",
".. c #5D5D5D",
"X. c gray37",
"o. c #5F5F5F",
"O. c #606060",
"+. c gray38",
"@. c #626262",
"#. c gray39",
"$. c #646464",
"%. c #656565",
"&. c gray40",
"*. c #676767",
"=. c #686868",
"-. c DimGray",
";. c #6A6A6A",
":. c gray42",
">. c #6C6C6C",
",. c #6D6D6D",
"<. c gray43",
"1. c #6F6F6F",
"2. c gray44",
"3. c #717171",
"4. c #727272",
"5. c gray45",
"6. c #747474",
"7. c gray46",
"8. c #767676",
"9. c #777777",
"0. c gray47",
"q. c #797979",
"w. c gray48",
"e. c #7B7B7B",
"r. c #7C7C7C",
"t. c gray49",
"y. c #7E7E7E",
"u. c gray50",
"i. c #808080",
"p. c #818181",
"a. c gray51",
"s. c #838383",
"d. c #848484",
"f. c gray52",
"g. c #868686",
"h. c gray53",
"j. c #888888",
"k. c #898989",
"l. c gray54",
"z. c #8B8B8B",
"x. c gray55",
"c. c #8D8D8D",
"v. c #8E8E8E",
"b. c gray56",
"n. c #909090",
"m. c gray57",
"M. c #929292",
"N. c #939393",
"B. c gray58",
"V. c #959595",
"C. c gray59",
"Z. c #979797",
"A. c #989898",
"S. c gray60",
"D. c #9A9A9A",
"F. c #9B9B9B",
"G. c gray61",
"H. c #9D9D9D",
"J. c gray62",
"K. c #9F9F9F",
"L. c #A0A0A0",
"P. c gray63",
"I. c #A2A2A2",
"U. c gray64",
"Y. c #A4A4A4",
"T. c #A5A5A5",
"R. c gray65",
"E. c #A7A7A7",
"W. c gray66",
"Q. c #A9A9A9",
"!. c #AAAAAA",
"~. c gray67",
"^. c #ACACAC",
"/. c gray68",
"(. c #AEAEAE",
"). c #AFAFAF",
"_. c gray69",
"`. c #B1B1B1",
"'. c #B2B2B2",
"]. c gray70",
"[. c #B4B4B4",
"{. c gray71",
"}. c #B6B6B6",
"|. c #B7B7B7",
" X c gray72",
".X c #B9B9B9",
"XX c gray73",
"oX c #BBBBBB",
"OX c #BCBCBC",
"+X c gray74",
"@X c gray",
"#X c gray75",
"$X c #C0C0C0",
"%X c #C1C1C1",
"&X c gray76",
"*X c #C3C3C3",
"=X c gray77",
"-X c #C5C5C5",
";X c #C6C6C6",
":X c gray78",
">X c #C8C8C8",
",X c gray79",
"<X c #CACACA",
"1X c #CBCBCB",
"2X c gray80",
"3X c #CDCDCD",
"4X c #CECECE",
"5X c gray81",
"6X c #D0D0D0",
"7X c gray82",
"8X c #D2D2D2",
"9X c LightGray",
"0X c gray83",
"qX c #D5D5D5",
"wX c gray84",
"eX c #D7D7D7",
"rX c #D8D8D8",
"tX c gray85",
"yX c #DADADA",
"uX c gray86",
"iX c gainsboro",
"pX c #DDDDDD",
"aX c gray87",
"sX c #DFDFDF",
"dX c gray88",
"fX c #E1E1E1",
"gX c #E2E2E2",
"hX c gray89",
"jX c #E4E4E4",
"kX c gray90",
"lX c #E6E6E6",
"zX c #E7E7E7",
"xX c gray91",
"cX c #E9E9E9",
"vX c #EAEAEA",
"bX c gray92",
"nX c #ECECEC",
"mX c gray93",
"MX c #EEEEEE",
"NX c #EFEFEF",
"BX c gray94",
"VX c #F1F1F1",
"CX c gray95",
"ZX c #F3F3F3",
"AX c #F4F4F4",
"SX c gray96",
"DX c #F6F6F6",
"FX c gray97",
"GX c #F8F8F8",
"HX c #F9F9F9",
"JX c gray98",
"KX c #FBFBFB",
"LX c gray99",
"PX c #FDFDFD",
"IX c #FEFEFE",
"UX c white",
/* pixels */
"gXgXyXhXvXSXVXxXvXxX:XrX@X*X>X5XiXuXjXOX|.jXpXlXyX3XvX`.Q.*XUXZXnXcXCXUX;X<XLXJXDXZX6X;X9X X~.Y.*XZXLXbX7XcXjXxXzXCXBXhXdXbXvX9X4XuXlXfXdXVXnX>X].%XdX;XeXsX].kX:X'.2X[.^.5Xh.H.[.2XrXyXiXgXDXcX",
"iX,X8XmXMXBXSXNX7XwX=X>XoXpXeXwXaXjXnX<XS.gX7XiXeX8XiX:X=XlXUXNXCXDXzXMXfXMXUXFXDXkX#X:X7XW.C._.8XDXAXSXvXkXnXMXGXFXkXuXxXzX8X>XiXlXbXlXyXtXeX$XL.'.9X=XzXzX5XuX7X5X-X{.}.^.#X-X%X<X;XtXxXcXSXgX",
"8X0XvXCXmXAXGXjX6X X%XpXwXnX&X(.9XlXbXyX!.,X2X<X@XtXpXqXgXNXCXBXPXUXnXbXBXHXZXVXbXjXyX*X4X`.).}.6XCXAXSXHXfXhXuXvXFXAXgXkXgX8XrXeXhXfXgXgXhXuX{.Y.`.3XyXNXGXkXfX6X+X6X~.v.I.1X<X^.&X;XpXjXdXMXlX",
"8XqXhXkXBXSXCXgXxX/..XiX>X6X@X%XqXlXpX6X,X*XeX4X:X5XtXuXnXIXsXhXKXDXVXSXVXZXVXHXFXzXNX2X&X].$XXXW.sXLXZXJXMXvXjXmXVXJXbXfXsX5X3XpXNXbXMXCXNXjX+X#XXXiXGXFXIXvXnX2XS.OX*X1.S.<X].x.@X:XdXsXeXCXxX",
"|.XXyXmXGXFXDXVXkX=X8XMXsXeX8XrXeXdXtX7X9XlXAXBXiX!.:X3XZXSXaXqXKXMXBXHXAXSXAXLXJXVXAXmX5X9X:X#XH.iXUXFXDXVXZXKXAXnXFXHXDXNXpXpXCXAXkXCXLXBXfX=X8X-XvXUXUXSXCXMX,X.X X:XP.#X,X(.[.*XhXfXkXAXzXlX",
"].E.qXJXGXDXHXDXiXyXyXhXzX2X3XeXkXlXpXrX&X7XVXBXuX%X;XsXlX|.<XqXHXSXCXZXGXFXVXDXFXUXGXnXyXfX&X_.6XCXHXPXHXxXnXDXsXxXZXAXJXDXcXCXVXMXpXxXKXZXsX*XtXrXhXLXGXCXKXVXaX0XdX XI.#X5X-X6XiXfXNXCXzXZXdX",
"tX(.-XBXCXCXBXVXyXpXsXpXsX].2XlXhXiX*XOX/.#XCXSXpX@XY.MXgXiXiXpXBXAXCXCXGXGXSXSXDXHXbXaXiXsX8X5XcXZXDXPXUXMXvXAXnXGXJXCXVXAXVXnXbXDXNXMXSXNXfXqXsXcXhXKXVXFXFXCXxXqXqX$X4X#X X X X$XaXmXNXfXZXnX",
"6X2XsXnXbXKXZXMXdX5XyXaXaX_.7XaXBXkX%X(._.hXvXcXgXM.2XMX7XbXnXhXZXVXCXGXGXDXGXBXZXLXnXgX=X5X*XoX5XyXJXAXFXZXxXSXbXnXGXFXgXjXDXSXSXDXmXMXDXmXjXvXjXvXGXLXLXFXvXbXbXiXlXtXiX4XoXwX).!.cXmXCXVXmXmX",
"XX7XVXNXVXvXkXSXgX3XsXnXfX[.yXpXvXqX4X4X'.+XxXlX,XD.8XvX7XMXZX0XVXLXLXHXLXJXSXHXSXJXbX<XC.`.L.|.7XcXkXbXcXlXcXhXpXtXNXGXCXqXBXHXJXAXCXZXmXJXGXNXjXfXAXGXBXFXSXbXcXjXAX0X&XyXwX9XXX1XvXjXAXbXBXzX",
"sXuXBXkXFXxXcXcXjXwXkXaX_..XlXuXMXsX+X*X(.#XjXlX8XZ.%XvXcXvXFXVXAXUXPXSXDXDXAXFXIXAXaX-X}./.(.=X%X4XqX1XiXqX0XaXdXhXAXZXFXmXbXLXGXLXGXBXJXZX5XzXmXmXcXxXBXZXxXpXdXtXdXxX%X2X-X>X%X3XbXhXDXKXjXiX",
"aXeXgXbXHXGXFXBXMXsXjXaX<X+XiXzXCXlX9X<X&XOXMXjX(.`.vXAXhXVXJXZXVXKXHXCXCXZXZXFXPXIXkXgXrX*X;X>X$X1X|.>X8XeXyXdXrXcXFXFXGXLXMXZXGXZXCXBXDXVXrXMXMXZXmXvXZXVXjXrXlX7XfXhXtX=XwX3X,X|.kXSXsXnXZXlX",
"hXkXNXJXAXGXGXcXsXVXwXiXzX:XlXZXDXBXpXeX-X=XxXxX;XCXBXgXdXAXNXDXVXDXFXDXFXSXAXFXLXUXnXBXfX9XyX7X4XjXqX8XdXpXgX1XwXnXVXBXzXCXJXvXKXSXMXVXbXBXZXCXCXvXvXfXjXbXnXhXVXiX6XtXyXaXpX3XuX7XtXmXBXVXSXNX",
"VXBXUXDXZXVXLXhXzXlXgXyX2XuXaXDXFXkX5XwXuX;X<XjXZXDXeXaXwXhXGXCXGXDXGXLXPXFXSXHXIXHXcXjXmXaXsXiX7XSXMX=X8XhXuXiXyXZXLXSXZXHXPXkXBXUXAXBXBXVXNXZXJXbXvXaXnXGXCXmXlXeXsX-XiX1XrXiXtXzXuXaXGXFXvXkX",
"GXNXDXZXmXCXCXyXjXhXpXNXhXaXSXNXSXdXcXsXyXiXbXwXuX2XkXBXNXBXDXUXHXSXDXLXLXFXGXPXUXIXdX0XxXmXwXyXkXBXIXFXiXbXxXdXNXGXFXuXmXFXSXSXbXKXLXZXBXVXkXAXmXnXkXrXCXBXdXlXxXvXsX3X].(.W.rXhXjXFXFXMXZXVXmX",
"lXeXdXAXnXJXAXVXAXSXCXMXvXpXNX9XjXzX5X9X6X9XeXCX3XI.dXAXVXGXMXGXDXSXHXKXGXFXKXUXUXJXuX3X2XaX1X7XnXHXJXkXvXwX7XpXZXJXKXxXKXIXGXIXSXFXPXGXvXMXzXlXMXGXcXiXNXdXkXCXNXmX7X2X}.2X.XuXgXhXbXFXmXmXgXvX",
"VXwXcXSXVXbXVXPXFXvXjXaX:X7XnXhXtXzXaX5X*XtXHXmXiX8XgXbXAXUXSXcXFXKXUXIXGXGXLXPXLXhXcXaX3X&X:X>X3XwXSXpX<XzXfXzXgXmXCXSXHXCXHXSXBXGXBXAXmXCXCXiXmXHXbXcXVXyXVXZXjXfXiX].*X:X<X@X:XgXuXZXNXBXlXvX",
"LXNXeXBXDXcXNXKXzXZXlXsXvXlXAXBXGXcXsXpX9X8XZXjXdXuXtXGXUXPXUXSXIXPXUXUXPXKXPXPXIXGXnX5X,X8X4XqX<XfXdX<X6XfXuX3XxXZXGXNXHXFXZXSXSXzXMXsXvXJXHXxXeXbXxXDXlXuXmXCXvXgX3X*XXX_.$X+XeXrXhXnXvXvXNXZX",
"JXVXvXZXDXGXAXKXAXHXjX6XgXBXCXdXnXZXVXgXhXzXcXnXjXxXzXLXPXJXUXHXIXUXIXLXKXLXIXUXUXLXpXoX$XaXmXbXyX0X.X=XoXrXtX8XbXSXCXbXlXCXSXIXPXiXZXpXDXHXIXhXrXCXcXgXkXmXaXMXBXzX3X_.^.aX.XXXjXwXhXJXDXvXZXNX",
"LXCXVXGXJXIXGXJXPXnXBXcXgXkXgX9XMXGXlXlXdXkXnX1XlXNXmXPXLXPXUXJXKXUXUXKXLXLXLXUXIXAXdXdXaXeXlXSXkXwXrXrX=XzX:X0XhXBXZXSXBXFXDXHXCXxXcXJXZXIXMXnXCXKXqX3XaXwXtXbXAXnX$Xv.R.-XiX&X9XlXjXnXJXVXpXxX",
"JXvXgXGXJXBXFXHXMXZXVXiXdXfXwXbXBXlXpXNXvXtX,XwXvXMXlXGXUXUXUXZXVXIXUXLXUXIXLXUXPXPXvXdXlXZXUXGXDXZXDXfXaXjX6XjXkXVXDXVXSXbXNXSXnXHXbXJXPXCXcXJXKXsXsX7XkXtXuXbXcXSXhXT.v./.sX8XeX6XkXCXCXdXzXzX",
"LXcXkXHXGXxXAXUXKXkXqX7XxXnXtXMXbXgXyXlXgXMXbXAXCXMXsXZXUXUXLXNXbXKXUXPXUXIXPXUXIXCXNXHXIXLXKXIXLXcXNXtXNXzXeXkXbXJXDXBXGXkXcXLXZXPXFXvXHXBXVXUXlXrXbXyXhXsXaXtXvXmXcX8X'.-XqXeX8XI.KXxXxXlXsXuX",
"UXCXLXGXVXxXxXKXZX5X6XzXgXiXpXvXUXvXqXzXpXmXKXbXZXNXsXCXIXPXPXHXSXUXUXIXLXJXJXIXIXHXJXKXDXZXZXZXUXdXzX6XfXVXaXfXjXVXhXBXPXSXBXUXZXHXLXAXjXIXCXIXnXJXDXBXMXmXbXjXfXVXfX8X6X%XgXkX7XtXMXxXAXBXnXsX",
"PXGXUXAXNXzXiXhXHXMXwXdXBXAXNXVXVXGXNXyXpXCXeX5XMXBXjXDXUXPXUXUXUXUXUXUXLXHXHXJXFXDXVXFXHXDXSXhXzXBXzXcXnXVXlX8XhXjX9XgXMXZXDXHXSXVXVXPXvXLXZXKXBXSXJXGXSXPXlXZXbXZXtX.X@XtXiXwXzXMXrXxXkXnXmXbX",
"KXUXUXGXLXMXgXrXCXDXpXfXiX8XtXjXlXgX6XqXzXDXbXpXbXZXcXHXUXPXUXIXUXLXPXUXIXIXPXKXmXDXVXPXJXBXJXcXhXVXzXvXBXCXiXlXvXcXjXkXzXgXZXmXUXSX6XPXFXGXZXPXHXPXZXFXAXAXVXMXNXiX0X,X;XyX2X6XtXlXxXzXvXAXCXaX",
"KXUXLXLXPXZXJXVXCXSXDXBXrX6X0XcXaXaXwXjXuXfXDXAXVXBXZXPXPXUXLXUXUXUXUXUXPXKXKXPXAXzXbXCXGXCXCXnXNXCXKXBXDXZXiXVXmXAXhXiXiXfXNXkXIXUXDXbXFXNXKXHXPXGXGXPXBXSXJXKXbXfXdX6X<X0X=XiXfXcXFXMXCXJXVXxX",
"DXSXPXLXGXNXAXDXFXVXnXCXCXBXMXNXAX2X,XMXuXfXLXVXCXBXVXGXHXUXUXIXIXIXUXUXIXPXPXIXKXBXDXFXKXBXnXsXhXZXvXlXbXMXiXvXzXSXeX8XgXtXZXLXPXCXvXMXDXBXNXUXLXLXCXVXvXmXLXLXeXcXVX9XiXaX0XMXuX7XnXgXnXAXcXCX",
"LXxXZXDXHXGXFXJXFXPXFXBXNXmXSXNXCX,X*XSXNXzXCXIXcXbXZXUXKXIXUXUXIXIXUXUXUXPXLXPXJXCXFXBXNXlXNXmXvXHXaX1X4XqXyXsXxXBXJXKXCXuXAXPXLXHXAXFXAXSXlXDXGXVXPXNXfXnXCXmXAXnXbXrXiXfXgXcX4XfXVXxXnXbXHXNX",
"cX8XaXnXJXUXIXGXHXGXjXyXcXZXAXqXjXMXgXvXCXUXJXDXxXxXBXUXUXPXIXUXUXUXUXUXUXPXKXKXFXZXSXnXaXtXvXGXBXpX4X<X2X|.8XnXzXZXGXlXFXLXgXeXhXVXAXDXCXFXvXVXFXnXFXFXsXrXBXsXhXMXGXcX7XvXDXkXdXdXVXnXbXlXpX0X",
"uX9XhXZXJXGXHXmXAXUXFXnXVXCXJXzXVXtXwXVXVXAXBXGXnXmXmXLXKXIXUXLXIXIXIXUXUXPXKXKXPXDXSXDXgXtXyXhXaX4XqX>X}.E.4XBXaXjXmXvXMXmX9XxXfXMXZXLXUXLXGXAXPXvXIXZXhXhXvXSXKXJXZXpX.X=XsXbXjXjXMXNXbXxXsX6X",
"lXjXBXFXGXZXAXbXGXJXZXBXVXNXDXVXVXdXmXJXVXLXLXFXsXBXBXFXFXPXUXIXPXLXPXUXUXIXPXPXUXZXMXDXmXkXuXeXgXhXhX,X X7XyXuXsXVXBXbXlXGXMXlXbXNXBXAXJXDXDXfXdXFXJXMXBXZXSXSXSXAXHXpX<XqXxXuXbXCXbXNXMXzXVX8X",
"lXaXbXMXDXGXAXCXLXHXCXVXBXSXJXIXvXbXIXSXCXLXFXmXuXNXmXDXJXPXUXUXIXPXPXUXUXUXUXUXLXNXnXzXxXjXlXdX&XpXVXbX9X3X>XdXnXPXvXgXmXmXaXNXmXlXMXDXJXLXLXxX0XkXSXxXmXPXmXNXPXZXIXSXvXkXxXkXsX=X8XdXAXxXmXjX",
"hXtXNXNXGXJXbXBXLXUXJXAXMXHXFXDXBXtXmXAXHXKXGXJXMXVXsXBXUXUXPXUXUXIXIXUXUXUXUXUXPXAXSXiXyX8XlXkX>XgXAXJXDXeX>XkXCXVXHXVXMXjXeXVXkX5XjXPXLXHXFXHXZXpXkXSXnXBXCXUXJXKXlXtXhXlX7XfX5X3XgXcXMX;XzXsX",
"MXrXFXCXBXPXDXSXZXKXNXAXGXFXPXMXnXnXAXAXHXIXHXHXGX8XrXvXFXUXLXUXUXKXKXIXIXIXUXPXGXUXAXeXgXsXyX:XwXiXpXJXVXuX[.vXDXKXGXnXMXMX9XfXbX9XlXPXFXGXHXMXZXKX3X2XHXAXFXDXJXBXvXkXjXcXvXxXhXbX0XcXpXwXJX:X",
"BX2XvXNXPXFXDXDXSXLXHXHXFXDXJXbXMXlXCXZXJXJXJXGXmXpXKXZXvXJXUXUXIXKXPXUXUXUXIXLXUXPXxXsXaXfX8XrXeXtXjXcXZXxX#XiXHXZXmXMXbXJXeX<XmXNXnXDXIXLXzXbXJXCXrXaXhXCXJXcXCXmXkXUXtXpXMXBXDX7XtXkXMXCXsX4X",
"yX1XfXFXJXPXJXPXFXSXHXFXBXSXKXCXZXjXNXBXGXSXKXGXvXjXdXKXAXUXLXIXKXJXPXUXUXUXIXKXGXHXSXFXaXjXdXeXhXuXqXfXmXmXlXiXbXbXvXbXCXFX8X;XvXvXNXJXCXKXBXcXMXVXFXZXrXhXAXNXHXDXBXAX2XmXBXCXFX}.qXbXaXbXSXhX",
"sXhXbXUXAXKXHXLXmXkXGXUXGXKXHXBXAXxXVXDXGXFXJXBXMX-X6XUXnXJXNXIXHXGXKXUXUXUXIXJXBXHXSXbXyXwXgX0XfXxX8XlXHXVXvXVXMXpXxXgXvXnXVXBXdXzXBXSXCXJXAXNXAXPXGXFXUXlXjXJXIXHXVXlXdXVXpXhXmXpXsXvXvXsXxXrX",
"CXZXDXPXJXCXKXPXHXgXNXJXSXJXLXJXCXBXDXUXJXPXDXkXZXaX7XNXUXDXHXSXHXGXJXPXIXIXPXHXUXUXCXsXBXrX<XaX9X2XpXmXBXcX9XsXlXbXcXeXNXlXgXSXbXnXGXFXKXHXZXvXzXFXGXnXvXCXLXrXZXUXcXeXdXsXuX9XzXmX7X<XnXmXjXpX",
"gXSXFXGXCXSXKXHXAXpXnXPXJXKXJXGXFXHXDXUXDXIXFXcXGXbXCXJXFXGXIXKXGXHXLXPXKXLXLXHXIXFXDXkXMXaX}.8XqXuXpXhXUXNXtXdX9XsXdX0XrXkXNXIXFXNXKXFXIXJXAXhXaXKXSXSXVXFXLXZXBXKXbX8X3XaXcXwXbXlX8XqXaXkXcX9X",
"uXKXHXSXcXHXFXBXCXdXcXFXSXFXPXIXPXLXCXGXAXHXJXAXCXFXpXDXPXGXDXDXBXSXLXPXHXHXPXPXUXSXKXnXaXkX7X0XyXpX7XkXCXvXSXfX1XvXBXkXjXxXxXFXZXGXFXvXFXAXbXvXaXVXAXDXCXIXIXAXCXvXVXcXeXiXMXlXbXZXwXyXtXuXvXnX",
"NXKXHXmXDXJXPXDXbXkXBXIXHXGXLXHXJXHXCXDXHXFXKXFXNXNXkXAXUXCXSXFXzXBXKXLXFXFXPXUXLXAXbXlXfXjXlXqX3XyXrXNXlXzXMXcXaXvXHXNXcXkXMXCXKXCXKXBXtXlXZXlXxXcXJXHXKXDXCXVXxXSXFXmXtX3XIXNXhXnXyXaXfXkXtXlX",
"FXKXGXFXLXZXJXDXSXPXFXHXKXKXLXDXZXGXGXFXDXGXKXZXCXSXnXCXBXLXHXIXcXGXKXLXIXIXIXUXUXmXdXjXZX;XvXfXpXMXhXuXzXHXNXlXnXFXDXBXhXhXDXJXUXZXCXKXqXjXUXJXbXzXDXPXCXMXAXZXCXJXBXAXfXfXJXAXMXcXVXpX0XHXsXdX",
"vXUXUXcXAXLXKXKXGXCXAXHXZXSXGXnXVXLXLXGXDXHXKXCXZXAXnXSXSXDXFXUXbXFXJXKXPXLXLXIXIXLXbXmXbXiXjXzXvXsXzX5XsXAXFXPXZXJXZXzXmXCXMXBXFXGXBXJXSXLXKXZXbXHXJXNXJXkXGXKXHXJXCXMXgXcXNXzXkXLXrX:X/.=XmX;X",
"NXMXJXAXGXIXGXSXxXaXAXIXVXSXLXmXZXPXKXGXJXGXMXpXfXVXBXGXIXLXKXLXDXKXPXLXPXGXDXFXLXUXGXxXcXxXlXZXMXVXyXtXbXLXMXVXGXKXNXjXFXFXdXcXCXUXcXdXJXUXNXnXDXHXyXHXDXDXZXFXGXDXZXbXcXFXmXxXVXIXaXeX6X|.aXhX",
"hXjXGXLXJXUXGXkXCXjXJXFXgXvXPXJXGXIXJXHXKXZXkXwXpXbXkXxXSXGXLXHXDXSXLXLXUXLXKXIXJXJXPXbXMXmXnXHXxXVXgXdXPXJXGXBXZXAXnXnXKXVXhXGXUXHXDXcXzXDXUXlXvXpXSXUX0X3XnXNXJXGXAXNXZXIXVXBXAXlXcXCXkXlXeX5X",
"eXnXAXJXPXGXCXmXZXnXUXJXzXzXDXGXHXLXJXJXDXmXnXnXMXvXaXzXFXDXGXLXDXCXPXPXUXUXUXUXSXHXLXHXNXGXAXDXaXqXMXMXBXBXDXAXFXDXNXZXBXgXbXUXIXDXIXGXSXDXIXAX2XrXIXvXzXgXjXCXKXGXcXnXCXZXcXlXBXvXcX6X&X*XpX8X",
"xXAXCXKXGXCXSXDXHXnXFXBXkXgXHXUXHXAXZXJXFXBXZXZXZXbXlXNXHXIXKXPXGXCXUXLXUXPXLXPXAXFXPXZXVXHXUXFXNXgXgXZXDXAXSXGXJXDXBXNXgXpXVXSXJXfXVXLXAXBXLXLXMXnXJXSXsXFXgXmXGXZXaXcXZXVXbXjXGXcXtX2X>X`.pXhX",
"nXDXGXGXNXGXJXCXFXkXVXDXcXrXVXJXKXMXMXJXJXDXSXxXmXlXcXmXcXHXGXUXZXmXUXJXUXIXUXUXGXDXUXMXFXDXKXJXGXmX5X2XGXxXGXFXAXbXMXVXxXmXJXFXSXbXvXmXDXmXzXHXLXBXzXdXdXmXCXLXFXAXkXBXHXLXHXCXJXvXhXvXXX6XnXkX",
"dXbXAXLXJXCXlXUXFXpXvXDXhX3XZXUXUXCXCXLXGXGXJXvXvXsXNXPXmXZXnXIXSXNXUXKXIXLXLXKXLXLXUXIXKXJXkXDXGXFXlXwXbXBXZXFXKXnXHXUXJXKXHXGXVXBXZXVXCXvXyXiXuXcXMXxXbXjXUXFXZXAXnXCXAXJXGXZXGXBXFXdXpXCXSX#X",
"dXhXHXDXGXGXSXHXbXvXMXuXpXmXKXUXPXAXbXIXUXDXJXZXSXfXAXPXUXHXIXPXZXMXUXLXIXKXUXHXIXiXlXJXKXAXmXDXKXxXbXgXpXiXGXFXPXVXVXLXLXLXSXFXcXhXIXmXMXbXyXwXdXlXnXCXzXnXUXmXFXBXbXLXGXCXMXMXZXFXsXtXmXnXNX[.",
"BXzXAXHXSXHXSXFXNXbXLXVXSXBXGXKXIXBXkXLXcXIXGXFXMXvXBXPXnXUXVXHXUXGXSXUXUXIXZXUXcXfXDXLXCXVXZXKXPXJXZXxXyXfXSXIXPXMXvXCXZXGXSXKXBXGXAXJXZXVX,X2XkXBX4XnXHXSXmXDXGXHXZXbXxXHXGXZXZXhXMXVXBXHXzX4X",
"mXgXzXPXIXnXrXMXVXnXSXVXVXMXGXUXLXBXKXFXGXPXFXFXmXhXKXCXLXIXJXJXDXKXKXUXPXKXUXAXfXlXFXZXnXDXAXnXDXHXAXNXmXDXHXGXAXvXvXAXSXHXAXGXLXUXUXFXSXMXsX:XaXIX8XnXUXHXbXHXPXFXBXhXjXGXHXLXAXSXGXNXxXVXcXdX",
"lXfXBXIXGXHXGXPXAXFXSXJXnXZXBXDXJXHXGXnXPXJXNXKXCXfXVXHXJXJXIXUXGXBXHXUXUXLXKXuXpXbXLXCXvXSXAXcXsXxXJXAXAXAXJXFXmXbXCXLXJXLXAXSXGXPXUXFXvXvXxX7XtXKXCXHXIXDXKXHXLXZXcXzXmXDXDXGXGXbXSXaXVXCXwXBX",
"xXBXZXNXJXZXMXKXFXJXAXLXNXDXCXAXJXJXNXvXUXAXCXGXAXlXfXDXiXfXZXHXAXDXUXUXHXUXBXNXfXMXLXJXDXPXJXNXlXzXKXSXbXNXKXHXCXCXFXLXSXHXDXJXGXLXIXJXDXvXgXzXaXxXKXUXGXnXFXSXAXKXnXcXSXKXJXxXMXcXBXkXKXFX7XpX",
"SXlXnXFXIXCXSXKXPXDXNXCXVXCXPXUXLXJXGXGXDXlXKXDXLXGXKXJXkXtXUXGXDXLXHXDXbXzXLXZXxXBXHXPXIXUXJXBXAXmXAXAXdXAXGXSXHXHXPXLXAXJXJXUXUXKXUXLXFXNXCXZXxXNXPXUXVXcXmXCXSXUXVXNXLXKXLXkXzXGXSXGXNXBXfXqX",
"HXLXMXcXFXDXVXSXUXPXGXFXFXDXUXIXJXIXCXJXiXgXHXJXNXKXPXPXvXhXFXCXNXAXUXUXjX}.AXDXbXGXUXPXDXAXGXGXvXNXFXBXtXMXBXSXFXJXUXUXGXIXKXLXJXLXSXUXjXNXGXMXCXUXUXJXCXAXSXZXJXUXSXSXUXFXKXAXAXmXJXIXmXZXfXMX",
"VXSXMXFXPXIXFXGXSXUXFXDXBXPXUXPXZXSXAXnXMXxXPXAXmXHXGXGXZXMXZXAXZXmXIXKXUXHXJXVXGXUXLXDXSXJXIXJXCXSXJXxXzXHXDXAXAXFXPXIXGXIXHXGXSXIXKXPXGXpXVXvXVXHXmXmXSXDXPXMXGXIXKXDXUXGXLXUXJXJXGXFXPXHXzXdX",
"MXzXcXVXKXDXvXNXDXAXDXvXAXHXJXUXZXFXFXGXKXGXGXPXGXSXHXDXGXVXNXvXSXUXIXKXPXMXAXnXvXCXLXLXIXKXUXGXZXBXGXlXvXJXGXDXGXJXUXHXDXFXUXJXPXHXIXUXnX1XlXbXvXGXMXMXFXDXGXKXLXUXHXSXLXJXGXLXnXuXUXSXKXDXxX<X",
"DXHXZXFXFXSXBXBXFXCXJXFXDXHXGXGXLXCXZXDXFXAXJXPXHXSXFXIXBXHXpX,XbXIXKXKXPXPXJXnXFXSXKXFXGXDXKXKXJXBXdXMXHXUXSXKXJXDXKXJXPXIXUXFXGXUXHXbXxXmXnXmXzXFXGXBXJXZXhXDXPXPXFXPXUXZXCXLXzXxXDXMXJXGXbXMX",
"0XBXVXCXGXVXkXGXnXIXIXVXAXIXSXBXHXDXAXVXHXSXHXUXgXzXFXUXxXfXhXeXfXAXJXPXHXUXGXAXUXFXUXHXJXHXJXPXSXGXuXgXJXSXUXLXSXAXUXPXVXlXVXLXPXUXLXAXMXMXNXPXVXzXVXAXCXGXJXIXUXFXVXJXJXMXBXGXHXlXgXVXJXAXhXjX",
"2XyXUXzXhXKXNXDXVXbXmXBXhXvXvXhXBXFXhX9XSXKXDXPXCXMXIXIXCXSXGXZXvXmXGXIXJXHXZXLXLXZXLXAXDXKXHXLXHXSXSXpXCXLXPXUXUXDXKXUXFXvXVXPXPXSXDXLXGXmXIXHXIXIXAXGXKXGXUXUXIXJXFXJXDXAXJXHXCXkXcXlXwX,XpXbX",
"OXsXcXmXLXVXPXFXVXAXzXhXgXlXdXfX4XBXAXcXKXSXBXIXBXBXUXDXfXDXxXJXLXNXGXPXUXKXSXLXPXDXPXNXCXLXLXLXKXHXbXCXGXHXUXJXUXGXJXUXUXUXUXPXJXUXUXJXAXFXUXmXnXSXFXLXGXAXJXSXCXGXPXIXDXFXPXSXkXkXmX0XtX1XbXVX",
"/.*XBXFXGXAXJXJXAXZXVXbXgXCXHXgXmXZXAXSXJXLXKXUXFXSXBXAXxXtXlXKXPXSXUXPXUXKXJXKXPXKXUXDXFXIXPXGXPXZXCXVXGXFXIXHXJXUXUXGXBXLXUXKXKXJXJXJXAXHXcXDXvXfXAXSXcXDXIXFXSXAXSXGXGXKXPXZXMXeXcXhXGXsXnXqX",
"Q.zXFXzXnXDXFXKXDXbXzXCXFXMXAXDXCXSXFXPXCXDXSXFXDXFXFXLXbXoXmXUXFXJXUXPXSXFXLXPXDXGXUXJXKXJXJXCXHXUXPXnXPXCXUXLXUXUXJXSXMXPXUXJXLXgXsXDXLXJXkXPXUXPXJXBXBXSXCXKXPXKXSXDXJXUXUXGXnXyXFXSXNX4XeX1X",
".XVXzXNXSXAXZXJXKXzXcXJXJXbXFXHXmXHXVXCXnXFXVXSXGXbXFXFXnXxXHXHXJXLXLXLXVXGXPXUXGXHXLXKXLXHXUXJXDXJXUXnXGXUXZXPXZXCXSXIXFXKXPXUXPXmXVXUXJXSXHXJXLXJXKXUXCXnXJXGXBXIXUXFXZXFXPXFXcXVXKXBXSXgX6X;X"
};
