/* XPM */
static char *_d9334667dc04ccfa0b6ed29070d77839I1mFjoriJf1vd7X[] = {
/* columns rows colors chars-per-pixel */
"64 64 4 1 ",
"  c #1F1B2D",
". c #140B3E",
"X c #28243A",
"o c #315883",
/* pixels */
"XXXXXXXXXXXXXX..XXXXXXXXXXXXXXXXXX..XXXXXXXXXXXXXXXXXX..XXXXXXXX",
"XXXXXXXXXXXXXX..XXXXXXXXXXXXXXXXXX..XXXXXXXXXXXXXXXXXX..XXXXXXXX",
"    XXXXXXXX....XXXXXXXXXXXXXXXX....XXXXXXXXXXXXXXXX....XXXXXXXX",
"    XXXXXXXX....XXXXXXXXXXXXXXXX....XXXXXXXXXXXXXXXX....XXXXXXXX",
"  XXXXXXXX......XXXXXXXXXXXXXX......XXXXXXXXXXXXXX......XXXXXXXX",
"  XXXXXXXX......XXXXXXXXXXXXXX......XXXXXXXXXXXXXX......XXXXXXXX",
"................................................................",
"................................................................",
"oooooooooo........oooooooooooo........oooooooooooo........oooooo",
"oooooooooo........oooooooooooo........oooooooooooo........oooooo",
"XXXXXXXXXXoo....ooXXXXXXXXXXXXoo....ooXXXXXXXXXXXXoo....ooXXXXXX",
"XXXXXXXXXXoo....ooXXXXXXXXXXXXoo....ooXXXXXXXXXXXXoo....ooXXXXXX",
"XXXXXXXXXXXXoo..XXXXXX  XXXXXXXXoo..XXXXXXXXXXXXXXXXoo..XXXXXXXX",
"XXXXXXXXXXXXoo..XXXXXX  XXXXXXXXoo..XXXXXXXXXXXXXXXXoo..XXXXXXXX",
"XXXXXXXXXXXXXX..XX    XXXXXXXXXXXX..XXXXXXXXXXXXXXXXXX..XXXXXXXX",
"XXXXXXXXXXXXXX..XX    XXXXXXXXXXXX..XXXXXXXXXXXXXXXXXX..XXXXXXXX",
"XXXXXXXXXXXX....  XXXXXXXXXXXXXX....XXXXXXXXXXXXXXXX....XXXXXXXX",
"XXXXXXXXXXXX....  XXXXXXXXXXXXXX....XXXXXXXXXXXXXXXX....XXXXXXXX",
"XXXXXXXXXX......XXXXXXXXXXXXXX......XXXXXXXXXXXXXX......XXXXXXXX",
"XXXXXXXXXX......XXXXXXXXXXXXXX......XXXXXXXXXXXXXX......XXXXXXXX",
"................................................................",
"................................................................",
"oooooooooo........oooooooooooo........oooooooooooo........oooooo",
"oooooooooo........oooooooooooo........oooooooooooo........oooooo",
"XXXXXXXXXXoo....ooXXXXXXXXXXXXoo....ooXXXXXXXXXXXXoo....ooXXXXXX",
"XXXXXXXXXXoo....ooXXXXXXXXXXXXoo....ooXXXXXXXXXXXXoo....ooXXXXXX",
"XXXXXXXXXXXXoo..XXXXXXXXXXXXXXXXoo..XXXXXXXXXXXXXXXXoo..XXXXXXXX",
"XXXXXXXXXXXXoo..XXXXXXXXXXXXXXXXoo..XXXXXXXXXXXXXXXXoo..XXXXXXXX",
"XXXXXXXXXXXXXX..XXXXXXXXXXXXXXXXXX..XXXXXXXX  XXXXXXXX..XXXXXXXX",
"XXXXXXXXXXXXXX..XXXXXXXXXXXXXXXXXX..XXXXXXXX  XXXXXXXX..XXXXXXXX",
"XXXXXXXXXXXX....XXXXXXXXXXXXXXXX....XXXXXX  XXXXXXXX....XXXXXXXX",
"XXXXXXXXXXXX....XXXXXXXXXXXXXXXX....XXXXXX  XXXXXXXX....XXXXXXXX",
"XXXXXXXXXX......XXXXXXXXXXXXXX......XXXXXX  XXXXXX......XXXXXXXX",
"XXXXXXXXXX......XXXXXXXXXXXXXX......XXXXXX  XXXXXX......XXXXXXXX",
"................................................................",
"................................................................",
"oooooooooo........oooooooooooo........oooooooooooo........oooooo",
"oooooooooo........oooooooooooo........oooooooooooo........oooooo",
"XXXXXXXXXXoo....ooXXXXXXXXXXXXoo....ooXXXXXXXXXXXXoo....ooXXXXXX",
"XXXXXXXXXXoo....ooXXXXXXXXXXXXoo....ooXXXXXXXXXXXXoo....ooXXXXXX",
"XXXXXXXXXXXXoo..XXXXXXXXXXXXXXXXoo..XXXXXXXXXXXXXXXXoo..XXXXXXXX",
"XXXXXXXXXXXXoo..XXXXXXXXXXXXXXXXoo..XXXXXXXXXXXXXXXXoo..XXXXXXXX",
"XXXXXX  XXXXXX..XXXXXXXXXXXXXXXXXX..XXXXXXXXXXXXXXXXXX..XXXXXXXX",
"XXXXXX  XXXXXX..XXXXXXXXXXXXXXXXXX..XXXXXXXXXXXXXXXXXX..XXXXXXXX",
"XXXX  XXXXXX....XXXXXXXXXXXXXXXX....XXXXXXXXXXXXXXXX....XXXXXXXX",
"XXXX  XXXXXX....XXXXXXXXXXXXXXXX....XXXXXXXXXXXXXXXX....XXXXXXXX",
"XXXX  XXXX......XXXXXXXXXXXXXX......XXXXXXXXXXXXXX......XXXXXXXX",
"XXXX  XXXX......XXXXXXXXXXXXXX......XXXXXXXXXXXXXX......XXXXXXXX",
"................................................................",
"................................................................",
"oooooooooo........oooooooooooo........oooooooooooo........oooooo",
"oooooooooo........oooooooooooo........oooooooooooo........oooooo",
"XXXXXXXXXXoo....ooXXXXXXXXXXXXoo....ooXXXXXXXXXXXXoo....ooXXXXXX",
"XXXXXXXXXXoo....ooXXXXXXXXXXXXoo....ooXXXXXXXXXXXXoo....ooXXXXXX",
"XXXXXXXXXXXXoo..XXXXXXXXXXXXXXXXoo..XXXXXXXXXXXXXXXXoo..XXXXXXXX",
"XXXXXXXXXXXXoo..XXXXXXXXXXXXXXXXoo..XXXXXXXXXXXXXXXXoo..XXXXXXXX",
"XXXXXXXXXXXXXX..XXXXXXXX  XXXXXXXX..XXXXXXXXXXXXXXXXXX..    XXXX",
"XXXXXXXXXXXXXX..XXXXXXXX  XXXXXXXX..XXXXXXXXXXXXXXXXXX..    XXXX",
"XXXXXXXX    ....XXXXXX  XXXXXXXX....XXXXXXXXXXXXXXXX....XXXX  XX",
"XXXXXXXX    ....XXXXXX  XXXXXXXX....XXXXXXXXXXXXXXXX....XXXX  XX",
"XXXXXX  XX......XXXXXX  XXXXXX......XXXXXXXXXXXXXX......XXXXXX  ",
"XXXXXX  XX......XXXXXX  XXXXXX......XXXXXXXXXXXXXX......XXXXXX  ",
"................................................................",
"................................................................"
};
