/* XPM */
static char *f1881926f3644311e2ca81add4a832e8qLaZzssS3vb2XSkt[] = {
/* columns rows colors chars-per-pixel */
"110 64 256 2 ",
"   c black",
".  c #010101",
"X  c #020202",
"o  c gray1",
"O  c #040404",
"+  c gray2",
"@  c #060606",
"#  c #070707",
"$  c gray3",
"%  c #090909",
"&  c gray4",
"*  c #0B0B0B",
"=  c #0C0C0C",
"-  c gray5",
";  c #0E0E0E",
":  c gray6",
">  c #101010",
",  c #111111",
"<  c gray7",
"1  c #131313",
"2  c gray8",
"3  c #151515",
"4  c #161616",
"5  c gray9",
"6  c #181818",
"7  c #191919",
"8  c gray10",
"9  c #1B1B1B",
"0  c gray11",
"q  c #1D1D1D",
"w  c #1E1E1E",
"e  c gray12",
"r  c #202020",
"t  c gray13",
"y  c #222222",
"u  c #232323",
"i  c gray14",
"p  c #252525",
"a  c gray15",
"s  c #272727",
"d  c #282828",
"f  c gray16",
"g  c #2A2A2A",
"h  c gray17",
"j  c #2C2C2C",
"k  c #2D2D2D",
"l  c gray18",
"z  c #2F2F2F",
"x  c gray19",
"c  c #313131",
"v  c #323232",
"b  c gray20",
"n  c #343434",
"m  c #353535",
"M  c gray21",
"N  c #373737",
"B  c gray22",
"V  c #393939",
"C  c #3A3A3A",
"Z  c gray23",
"A  c #3C3C3C",
"S  c gray24",
"D  c #3E3E3E",
"F  c #3F3F3F",
"G  c gray25",
"H  c #414141",
"J  c gray26",
"K  c #434343",
"L  c #444444",
"P  c gray27",
"I  c #464646",
"U  c gray28",
"Y  c #484848",
"T  c #494949",
"R  c gray29",
"E  c #4B4B4B",
"W  c #4C4C4C",
"Q  c gray30",
"!  c #4E4E4E",
"~  c gray31",
"^  c #505050",
"/  c #515151",
"(  c gray32",
")  c #535353",
"_  c gray33",
"`  c #555555",
"'  c #565656",
"]  c gray34",
"[  c #585858",
"{  c gray35",
"}  c #5A5A5A",
"|  c #5B5B5B",
" . c gray36",
".. c #5D5D5D",
"X. c gray37",
"o. c #5F5F5F",
"O. c #606060",
"+. c gray38",
"@. c #626262",
"#. c gray39",
"$. c #646464",
"%. c #656565",
"&. c gray40",
"*. c #676767",
"=. c #686868",
"-. c DimGray",
";. c #6A6A6A",
":. c gray42",
">. c #6C6C6C",
",. c #6D6D6D",
"<. c gray43",
"1. c #6F6F6F",
"2. c gray44",
"3. c #717171",
"4. c #727272",
"5. c gray45",
"6. c #747474",
"7. c gray46",
"8. c #767676",
"9. c #777777",
"0. c gray47",
"q. c #797979",
"w. c gray48",
"e. c #7B7B7B",
"r. c #7C7C7C",
"t. c gray49",
"y. c #7E7E7E",
"u. c gray50",
"i. c #808080",
"p. c #818181",
"a. c gray51",
"s. c #838383",
"d. c #848484",
"f. c gray52",
"g. c #868686",
"h. c gray53",
"j. c #888888",
"k. c #898989",
"l. c gray54",
"z. c #8B8B8B",
"x. c gray55",
"c. c #8D8D8D",
"v. c #8E8E8E",
"b. c gray56",
"n. c #909090",
"m. c gray57",
"M. c #929292",
"N. c #939393",
"B. c gray58",
"V. c #959595",
"C. c gray59",
"Z. c #979797",
"A. c #989898",
"S. c gray60",
"D. c #9A9A9A",
"F. c #9B9B9B",
"G. c gray61",
"H. c #9D9D9D",
"J. c gray62",
"K. c #9F9F9F",
"L. c #A0A0A0",
"P. c gray63",
"I. c #A2A2A2",
"U. c gray64",
"Y. c #A4A4A4",
"T. c #A5A5A5",
"R. c gray65",
"E. c #A7A7A7",
"W. c gray66",
"Q. c #A9A9A9",
"!. c #AAAAAA",
"~. c gray67",
"^. c #ACACAC",
"/. c gray68",
"(. c #AEAEAE",
"). c #AFAFAF",
"_. c gray69",
"`. c #B1B1B1",
"'. c #B2B2B2",
"]. c gray70",
"[. c #B4B4B4",
"{. c gray71",
"}. c #B6B6B6",
"|. c #B7B7B7",
" X c gray72",
".X c #B9B9B9",
"XX c gray73",
"oX c #BBBBBB",
"OX c #BCBCBC",
"+X c gray74",
"@X c gray",
"#X c gray75",
"$X c #C0C0C0",
"%X c #C1C1C1",
"&X c gray76",
"*X c #C3C3C3",
"=X c gray77",
"-X c #C5C5C5",
";X c #C6C6C6",
":X c gray78",
">X c #C8C8C8",
",X c gray79",
"<X c #CACACA",
"1X c #CBCBCB",
"2X c gray80",
"3X c #CDCDCD",
"4X c #CECECE",
"5X c gray81",
"6X c #D0D0D0",
"7X c gray82",
"8X c #D2D2D2",
"9X c LightGray",
"0X c gray83",
"qX c #D5D5D5",
"wX c gray84",
"eX c #D7D7D7",
"rX c #D8D8D8",
"tX c gray85",
"yX c #DADADA",
"uX c gray86",
"iX c gainsboro",
"pX c #DDDDDD",
"aX c gray87",
"sX c #DFDFDF",
"dX c gray88",
"fX c #E1E1E1",
"gX c #E2E2E2",
"hX c gray89",
"jX c #E4E4E4",
"kX c gray90",
"lX c #E6E6E6",
"zX c #E7E7E7",
"xX c gray91",
"cX c #E9E9E9",
"vX c #EAEAEA",
"bX c gray92",
"nX c #ECECEC",
"mX c gray93",
"MX c #EEEEEE",
"NX c #EFEFEF",
"BX c gray94",
"VX c #F1F1F1",
"CX c gray95",
"ZX c #F3F3F3",
"AX c #F4F4F4",
"SX c gray96",
"DX c #F6F6F6",
"FX c gray97",
"GX c #F8F8F8",
"HX c #F9F9F9",
"JX c gray98",
"KX c #FBFBFB",
"LX c gray99",
"PX c #FDFDFD",
"IX c #FEFEFE",
"UX c white",
/* pixels */
"(..XOX'.&X&X^._.~.^.~.]._.`./.'.`.].(.|./.)._.(.OX=XOX].XXoX|.OX#XXX[.Q.].}.[._.'.].!.`./.{.*X&X{.|.oX|..XoX'.+X[.|.).{.`.(.[._./././._.`.).`.`.]._._.}.!.`.^.'.%X*X}.{.oX X X#X+X.X).~.|.}.[.(.|./.).).(.oX-XOX[.XXoX|.oX$X",
"^.@X@X[.*XXX{.`.Q.).!.!.).W.~.{.|.`.`.`.'.[.}.{.OX}.XXoX#XoX|.}.XX].|.[.OX+X|.)._.).[.{.|.|.XX}.oX+X+XXX{.oX.X|.|.[.(.{..X.X~.'.|.W.~.~.(.E.'.|.]._.`.).{.].{.}.OX|.OXOX@XXX{..X}.}.{.|.@XoX{._._.'.].}.[.OX}.XXOX#XOX}.}.XX",
"].oX@XOX;XoXXX].!.^.!.].^.).]./.(.`.}.{.|.|.}.`.|.XX[.&X|. X}.OX}. X|. X}.{._.}.].|.}. X_.[.XX{.OX@X}.|..X=X@X X$X[.~.}.'./.).~.OX].`._.^.`.{.Q.).[.[. X{. X'.[..X}..X%X}.|..XXX{..X{..X[.{._.}.[.|.|.{.'.|..X[.&X X X|.OX}.",
"oX}.}.#X%X+X}.|.Q.(.|./.W. X`._.'.(.(.}.'.{.[. X[..X{.XX|.XX X@XOXXX$X@X|./.'./.{.[.].[. X{.|.{. X|.XX|.oX X|.+X$X(.Q..X(.(.oX}.^._.`.!.).}._.).]./.[.{.'.[.|.|.{.}.}..XXX XOX@XXX@X#XOX_._._._.|.'.[.[..X[. X].XX|..X X@X+X",
"_.].OXOX+X X).'.'.}.|.'.).'.'.}.~.].^.`.'.{.|.}. X}.{.|.XX'.]./.|.XXOXoX}.(.).(._._.[.{.}.[.|.].}.XX{.].oX(. X|.+X{.).'./.@X+XW./. X]._._.].[._.(.).(._.].{. X}. X].}..X|.].).'. XXX#X}.{.^.].^.`.`.{. X}.}.}.[.|..X'.'.(.|.",
"+X|.+X=X$X|.}. X].+X X{.`.|.[.'.}.^.).[.XX].}.`.}.XX X/.}.}.].OXXXXXoX.X_.}._.)._.oX].}.`.}. X+X_.`. X'.XX|.].}.XX$X.X|._.|.}. X~.[.'.].[. X`.{.'.(._..X{.{.'.{.|.@X].)..X]..XOXOX.XOX].`.[.^._.{.XX{. X'.}.OX X(.}.{.].OX X",
" XoX^.|.&X&X+X|.|.[..X}.{. X|.XX@X X].{./.XXOX].].]..X X{./.+X(.`..X'.oX|.+X.X{.[.`.`.$X}.[.'.|.oX{._.[.%X[..X{.OX*X.X@X%X.X|.#X).'.XX}. X X|.+XoX}.[.]._.#X|.[.'.{.oX}.`.`.OXQ.XX{.}.oXoX=X@X|.|.`.|.XX].].[..X.X[.(.OX/.`.",
"+X.X'.|.+XOX.X].).OXXXXX|.~.(.`.(./.XX}._.`.`.|.`.|. X$X(.}..X_.@X}. X.X_.'.Q.|. X'.'.(..X_.|.{.$X{.).OXoX#X.X@X@XXX+X+X|.}..X(.OX=XXX X].~.).`.Q.{..X].'.(. X'.}.{.+X.X/.OX`.|.OX}.oX`.$XOXoXOX`.|.`.oXoX[.}. X#X(.|..X_.#X",
"+X#X|.OX#X].`.(.[.+X'.].[.E.`.E._./.].].'.|.).[.'.{./.{. X X|.+XoXOX}./.}.!.`.).{._.|.].`.].[.).].|.oX[.$X#X}.#X+X@X.XOX.X.X]._._.&X|. X~.~.(.W.`./.{.`.{.[._.'.[.`.`.}.oX|.XX+XoXOX].!..X+X@X.X@X].{.oX[.XXoX).|. X.X|.OXoX",
"oXoX.X+X&X_.}._./.oX'.[._.OX].(.{.(.[.|.`.oX XXX|.OX}.{. XoXoX&X]..X]. X_.'.]._.}.XX}.'.XX`.{.}.[.[.OX.X#X X.X.XoX.X}..X|.~.[.XX).XX|.].[.oX(.'.[./. X[.[.+X XOX|.OX'.{.oX.X$XoXU.}.(..X$XOX{.{.OXoXOX{.].|..X}.]. XoXoX&X`.",
"OX&X+X.X+X;X$X'./.|.`. X[.(.'.`.|.{._.^.].[.{.+X].}..X[._.oX+X|.OXXX}.).{. X}.[.|.}.}.@X].(.@X.X+X|.|.OXoX.X X|.{.).].}. X}.OXOX[.}.'.XX(.`.`.}.|.|.^.(.).|. X+X%X#XOX.XoX+XoX]. X[.].+X@XOX$X#X X XoXXX{.[.|.%X.X_.oX@X|.oX",
"`.{.oX*X=X@XOX{.^.'.XX X}.XX(./.[.}.].)._. X_.OX.X^. X[.{.{.#X&X]./._.|.].|. XOX.X X+XOX!.{.(.(._.XX|.oX&X@X.XoXoX{.{.|.+X.X&X.X_..X.X|.{..XQ.].].]./.oX[.'.{.#X$X$X*X-X$X.X].`.`.).].oX+X&XOX+XoX+X[..X{. X XOXoXXX].@X*X#X",
"(.].].%X%X&X#X&X{..X.X).oX>X/.'._.'. XOXOXoX{..X'.^.}..X_.[.+X@X].).'. X].OX.X{.[.@XOXoX X X}.'.OX X X`..XOX'.|.[.+X}._..XOX.X XOXXX{.`.&X+XR..X/.`. X XXXoX%X{.@X#X&X%X XoX(.|.oX'.{.oX@X%X#X-X=XoX|.oX X XXXOX#X[.].+X+X}.",
"{.|.].XX%X>X;XOX+X{..X XoXOX`..X_._.}.@X*X#X$X*X XQ.@X}.'.|.oX[.[. X}._..X{.'.{.}.oXOX@X_.OX}.].XX}.|.].}..X.XoX^.}.}.].{.OX&X$X}.OX X{.{..X^._.|.#XXX.X].W.OXoX.X@X;X+X X}.XX|.|.oXOX+X[.&X@X=XOX.X.XOX.X@X[. XoX X}.oX^. X",
" X[.}..X*X%X|.-X#XOX].+XoXoX{. XXX+XOX.XOX%X*X-XXX]. X.X{.oX'.^.!.{.]..X@X_.'..XoXoX%X+X]./.}..XXX X[.|./. XOX{.^.{..X].`.+X$X.XOX$X.X'.).}.].[.oXOXXX'.].).XX$X X.X=XOXoXOX+XXX X^.).@XoXXX&X;X.X|.XXOX+X+X[.oXXX_.oXXX}.'.",
"oX X}.}.@X.X[.oX|.@XXX XoX@X X.X}.(.@X|.+X@X&X%X}.OX@X[.`.{.^.)._.'. X].).'./..XoXoX#X+XoX/.{.+X).`.].oX_._.{.}.~..X.X_.{.OX~.}.XXOX#X`.'.|..X{.{._.`.|.`.[.|.&X-X.X|.$XoX.XOX|.'._.].@X@X{.+X&X+X.X{.|..X/.OX+XoX_.].+X{. X",
".X XOX}.{.[. X$X XXXOX|.+X+XOX[.'.!.XX&X}.oX:XOXXX[.XX~.}.{.[.|.`._.[. X|.@X].XXOX+XoX@XoX.X{..XXX@X%X`. X[.XXoX!. X X[.XXoX X`.{.oX#XOXXX.X@X#X.X~.|.+X{..X|.+X%X.X{..X].{.(.{.|.)..X.X>X%X{.oX#X XXXoX[. X+X$XoX X{.+X+XoX",
"OX`.|..XoX|.@X}.%X@X.X.X}.[.'.[.].]..X$X&X|.XX$X+X|. X{.[.].].].XX}.].@X%X].{.@X|. X#X{.OXOX].+X#X@XOX+XoX[.+X.X'.OX}.`._.OX{.{.|.[.OXXX+X@X#X%XoX'.}.}.XX|.}.XX{..X X].OX'./.+X.X X.X.X@X$X[. X{. XOX XoX#X+X{.oX{._.+X%X{.",
"oX}.#X+X#X(.$X'.@X#X.XXX X^.}.+X].|.|.$X;X+X].+X].OXoX|.).|.XX[./.^.].@X-X|.}.oX.X X}.{._.'.{.oX;X+X@X X`.}.}.].'..X^.'.}.+XoXoX.X X+X=X%XXX-X$X+X.X`.OX{.`.}.'.}.XX{.{.%X`.}.{..X X}.|..X{.oX'.|.+X). XXX).}.#X X_. X.X|..X",
"+X X|.*XOX[.{.oX=XXXoX%XOX).{. XoX X}..X X X|.[..X.X'.oX{.}.{.[.).XXXXoX+X[.#XXX`.!.~.{.!.).).'.+XoXoXXX[.[.}.XX|.|.^.{.'.XX*X XOXoX+X=X#XXXOX X].].'.|.+X|.!.'.OX+XOXoX).oX].{.OX).{.'.`..XXX].+XoX[. X@X).+X.XOX'. X].XX}.",
"@XoX+X$X{. X[.`.'.}.$X=X@XXX].XX}.`.|.{.{.XX{._.&X].`.oX}..X{._.(.@X[.}.oX}. X#X).}.|.}.!. X^.{.OXOXXX|.@X[.}.OX[.).'.'.{. X.X{.}.'..X|..X#X}. XoX`.OXoX|._.[. X|.'.@X[.).oX`.|.{.$X/.^.|.@XOX@X{.'. XOX X{. XOX+X X X{..XoX",
"XX@X$X@XoX'._.{. X{.#XXX[.}.(..XoX|./.(..X+XXXXX}.}.XXXXOX[.#X.X[. X|.[. X+XXX|.@X%X$X[.[.[.{.%X#XXX XoX|.+XoX{.'. X'.'.|.{.|.[.[.'.|.{.XX+X+X{..X|.OX+X.X.X.X|.'.].}._.].$X'.$X X].`.}.}.{.{.@X(.}.oXoX X#X XoXOX@X.X.X}.@X",
"}.@X#X`.].}.`.oX.XXX|..X|.'..X.X X].(..XOX.X@X|._.}.OX{.|.|. XoX[.[.}.].}.#XOX{.#X&X[.|.'.].[.#XXX&X@X+X XXX}. X|.XX`.{.XX}.'.'. X XXX X X'.OX.X|.XX X$XXXoX|.OX#X.X/.oX@XXXXX+XoXXX.X X|.`. X].).oX@X|.oX%X XXX@XoXXX.X X'.",
"[.#X[.'.|.]._.$XoXXX$X[.OX[.+X+X X].oX{._.).oX'._.$X.XOXoX}.].XX{.}.]..X.XoXoX%X+X$X'.}.).).{.+X*X%XOX%X$XXX|.'.XX@X}..XoX/. X}.XX X}..X}.#XoXXX#X|.^.}.}.XX@X+X@X&X]. X.X$X.XOX+X.XoX|.#X+X]._.%XXX+X}.`.|.].OXXX[..X}.#X@X",
"[.XXXX.X{._.!.[.{.oX@X.X[.XX.X$XoX+X}.oX+X X).}.OXOXXX].].{.^. XOXXX XXX|.oX#X$XXXXX{..XXXXXoX+XXX%X&X=X@X.X|.[.[. XOXXX|.|..X{.|. XOX X].$X}.).oX X.X X X+X:X*X.X.X|.~.OX_.'.oX.X|.@X@XoX%XOX[.|.+X@X|.+XXX}.[.{.OX%X@X+XoX",
".X|.oX(.|.{.].|.}.}.XX.X+X X_.XX|..X+XoX#X$X_.OXOX#X+X}.]./.{.XX|.[. X%X].{.oXXX.X@X X X|._.@X}.OX#X%X&X XXX|..X.XXXOX.XOX%X|.$X.X+X`./.}.%X XOXOXOX'.`.XXoX#XXX+X).{.{.|.).|. X|..X&X,X#X|..X_.'.oX/..XOX.X}.'.|.+X#X}.oXoX",
"|.OXOX`.^.-X*XXX|.].`. XXX}.`..X}.OX*X=XXX#X X(..XXX'.$XOX|. X{.`.|. XoX X+X+X|.OX@X@X|.].Q.}.&X|.oX:X@X.X[. X.X.X#XoX|.+XOX|.@X$X X X|.!.]. X+X#X_.(. X).}.{.XX@X[.}.@X[._.{.)..XXXOX.X+XXX_.{..X'.[. X|..X X].}.|.OX'.OX+X",
".X#X.X+X.XOX*X=X`.`._.'. X+X.X'.+XoX&X+X+X`.}._.OX^.{.oX{.+X.X(.[.oXXX@X$X+X X.X}.}.[.'.[.'.XX@X%X|.XX$X#XXXXX].oXoX#X_.|.]. X X$X*XOX.X X.X|.oX&X{.{.}.{. X X|..X.X|.&X X_.).). X.XXX+X+XXX'.XX.X`.`.{..X/.].}.[.'.}.&XXXoX",
"oXOX%X XoX#X|.=X&X{.XX|.+X[.~.|.'.}.|..X@X].{.OX{.].{.{..X_._.].).+XXX@X@X%X.X X X).].@X].{. X#X:X$X[..X+X|..XoX}.#X XOXOX.X}..X$XoX|.oX}.). XXX@X.XoXXX.X|.XX.X.X{..X[.XX].`..XoXXXoX%X+X}.{.OXOX_.`.[.oX'._.oX X.X+X.XoX|.",
"_.oX:X$X#X@X{.+X.X#X X+X@X`.`.}.].|.}..X+XXX|.&X X(.'.}.|. XOXXX}.XXOXoX@XoXXX+X#X^.`..XXXXX|.|..X.X}.[..X}.+X@X@X[.).+XXX|.'.}./..XXX).}.}.).`.oX|.oXXX.X`..X+X XXX%X{.).{.OX.X#X$XOXXX}.#X|.'. XXX@X&X].|.{..X[.oX}..X}.{.",
"`.XX&XXX{.|.;X-X:X>X$X@XoXXXXX X.X XOX|.|.|.}.XXXX].oX}.[.=XoX'.|.@X[.OXXX|.@X X.XOXXX|. X[.{.oXXX[..X XoX*X[.(.|.#X).|.@X}.].(.).#XoX+X}.XXoX}.[.].oXXX|.[.XX#X.X*X+X`.).;X:XOX|.oX^..X'.OX+X{.OX$X#XOX@X@X].XX}.|.|. X#XOX",
"@X*X$XXX.X$X+X:X;X#X-X#X#X].'.XX.X].|.OXXX X#X'.).{.{.|.}.=X#X}.XXXX.X}.{.[.^.{.'.*X&X@XoX_.{.}.|.{.+X XXX.X X'. X'.).oX+X.X+X].[.OXoX.X+XXX$X#X_. XXX{. X[.|. X{.oX X`.].:X#X=X+X}.`.{.[.`.^.{.}.;X@X@X X`.}.{.|.|.+X}.@X.X",
"|.).=X$XXX#X*X$X$X`.oX@X{..X!._.+X[.oX@X}.@X=X+X{.[.{.@X X#X|.}.$X}.).E.`.'.Q.{.~..XOXoXOX X].'.oXOX.X@X@X|.#X@X[._.&XXX+X|._.].^.}.}.OX$X*XoX&X.X_.{.oX%X.X_.{.[.|.}.oX@X+X'.XX@X'.~.E.{.^.(.'.(.OXOXOXoX}.].[.@X|.OX@X|.'.",
" X'.|.|.'.{.@X@X|.{.}.@X[.K.'.[.'..X'.XX@XOX.X[.#X}..X}.`.XX.X|.OXXX'..XoX~.'.]._.XX+X.X}.oX.X X|.].}.@X+X@X+X*X+X{.{.@X@X XoX|.+X[.oXoX=X&X+X'.|./..XXX&X[.}.XX}.XX.X|.+XoX|. X#X`.|. X XW.|.).{.OXoX.X{.#X}..X}.'.XX@X X}.",
"}.oX].|.{.oX`.}.|.+X{.{.{.].XXXX`.}.'.#X$XOX.XOX|.oX+X|.{.|.|.$X{.oX%X#X+X`.}.`.XX&XOXoXXXXX}.@X.X}.].OX$X:X@X|..X_.].XX~.XXOX|./.'.}.}.oX|.+X[.'.XX}. X@X). XoX{.'.OXXX X.XXX+X}.#X&X@X|.].{.].$X@XOXXXoX{.oX+X|.[.|.|.@X[.",
"~.OX.X'.+X{.Q.*X X=X.X_.{.oX'.[.[.`.].+XoX%X@X+X.XXX[.oX].}. X%X XXX&XOX`.|._.]..XOX+X&X+XXX.X|.XX}.{.{.@X.XOX.X_.{..X'.[. X[.}.].|._.{.}. X@X.X{.$X X{.XX[.~.{.oX].$XXX+X}.OX@X X+X*X}.[.[.'.[.@XoX&X$XOX.XXX{.oX[.}. X%XXX",
"Q.{.).}.=X{.R.*XXXOX}.#XOX|.'.}.].).[.oX%X*XOX*X%XOX}.XX XXXOXoX$X%X$X.X'.|.).`.|.@X-XOX&X%X#X}. X X.X'.|.}.@XOX'.OXoX'.`.[._. X{. X X|.OX}.|..X{.+XoX|.|.oX'.oXoX|.'.OX.XXXOX.X&X+X$X'.}.].).[.oX%X&XoX*X%XoX{..X.XoXOXoX$X",
"].].XX[./.`.].$XOX X%X+X`.}.XX|.XXoXoXOX.X%X$X-X#X.X X+X}.OX}.OX#XOXOX.X}.XXXXXX+X X#X$X*X&XXX XXX|.XX{.XX}. XXX XOX#X}.)._.]..X$X XoX[.|.oXoX|.oX].}.|.}.{.{.OX'.[.`.[.|..X X+X%XXXOX}.|.XXOXoXOX.X&X$X-X@XXX XoX{.oX}.OX+X",
"XX^..X'._.*X*X@X%X$XOX.X.X|..X.X X)..XoXXX@X#X=X.X.X.X@XOX@X`. XXX.X+X+X X.X].`.#X}.$X@X=X+X|..X@XoX$X}..X.X.X.X|. X{.|.].{. X+XoX.XXX]. X#X{.oX&X X!.XX.XOX|.+X.X[.|.[.%X}.].oXXX.X#X.X X X).XX.XXX#X$X*X X.X.X#X+X@X'. XXX",
"{.}.oX XOX}.[.%X@X:XOXOX}.`.oX X].^.`.%XXX|.-X%X.X}..X{.oX].oX+X.X X+X+XoX[._.~.OX$X{.$X>X.XXX}.|. X}.|.{.+XXX|.#X@X`._. X$X'..X$X$X|.|.{.OXOX*XOX^. X XOXXX#X@XOXOXXX+X X[.+X@X|.oX@XOX X[.^.'.%XXX|.-X&X.X}.XX{.OX'.OX@XOX",
"+X$X X X&X+X{.%X$X&X|..X}.]._.'.}.`. XoX*X X|.@X$X.X}.OX].[.%XXX.X X}.].`.{._.{..X&X#X}.OX$X+X}.XX X_.oXOX$XoXOX=X].].].{.'.].%X#XoX X)./.{.oXOXXX X`.@X%XoX#X+XOXXX.X X(.XX$X XXX{.{.].].{.`. XoX=X X}.#X$X X}.oX'.[.oX#XXX",
"$X-X(.}.XX].XX*X$X#XOX.XXX'._.@X}.]. XoX;X&X].OX}. X+X}.oXoX@X#X.XXX}.^.XXXX`. X X*X-X X{.oX[.@X.X X+X$X.XOX X@X#X(.].XX|.`.+X&X+X%XOX[.}.OXoX`.^.oX'..X&X|.@XoXXXXX{. XOXOX%XOX.XXX`.).@X}.[..XoX;X&X].oX}.|.+X|.oX@X@X.X@X",
"[.+X'.}.`.{.'. XOX@X X#X$X).`. XXXoX}. X X X|.{.{.+X'. X X$X&X.XOX%X}.).|..XOX|.}. X X|.|.[.XX}.[.oX|.].XX|.`.|.XX].{.[.'.}.{.XX#X X.X+X'. XXX@X[. X|.}.oX`.oX'.XX|.[. X}.=X+X X@X%X_.`. XXXoX}. X X X X}.[.OX'..XXX{.|..XXX",
"].+X.X_.}..XXX/.|.[.XX&X$X+X{.{.XX). X}. X.XoX/.#XXX). XXX`.[.|.%X%X+X X].oX'.[.|.}.}.+X'.|.$X_.{.+X).{.%XXX(.}.[.$X'.[.{.@X].`.}.{..X|.|.OX=X$X@X@XoX].XX|.{.oX X|.].OX}.`.[.oX=X#XOX{.}.XX_. X{.|. XXX(.#X.X)..XoX~.#XOX@X",
"].oX#X@X|.[.&X XoX{..X%X'.|./. XoXXX).^.[.+X XoX X[..XXX+X).XX[.&X}.|.'.[..XOX'./._.XXoXXXXX{.|.XXOX[. XXX X`.[.}.+X#XOX'.oXOX.XXX.X{.~.].'.=XoXoX X_.|.]..X|.oX`.}..XoX|.{.|..X%X].oX^. XXXXX_.^.[.+XXXoX|.}..XXXoX].XX X+X",
"|.XX+X'.).}.|.#X#X+X|.[. X{.{.OX}. X(.[.oXoXXX#X(.[.oXXX}.XX.X.X[. X{.'.OX}.XX`.).XXOX.X#X].'.|.+X{.XX|.OX@X-X#X|.@X.X(.`.@X#XoX.X{.#X.X_.).OX@XoXXXoX`.|.oXOX X[.|.OXXX[.{..X X|. X].{.oX}. X/.{.oXoXXX#X(.{.oXXX}.|. XOX%X",
".X].}.|.[.Q. X XoXoX%X.X.X|. X$XXX[. X X'.(..X|./.OXOX.XoX*X|.#XXX}.oX{.$X+X}.[.XX[.(.[.XX(.{.#XXX.X&X@X}.$X#X%X{.{.{.|.(._..X}.oXOX+X%X+X].@X|. X{.@X.X|.{.|.$X#XXX#X#X(._.}.*X[.oX}..X#XXX]..X|.'.(..X|.^.+XOXXXOX*X}.OXoX",
"OX@X%XXX`.Q.XX#X=X{. X%X{.{. X#XOX@X|.|.@X X]._.XXoXOX[.}.|.{.+XOX|.[.oXoX#XOXoX{.+X.X X(. XXX+X X'.XX].oX$X-X+XoX$X$XoX{.|.|..X@X;X$X.XOX].`.%X.XXX[.OXoX|.(.[.].OX*X#XOX[. X$X.X{. X.X#XoX+X|.|.#X X[._.XXoXOX[. X|.{.+X#X",
"}.%X@XXX/.`.#XOX-X+XOX[..XOX_.}.XX}.@XXX@X%X[.|.@XOX$X|. X X[.|.+X.X#X{.`..X}.oXoX+X$XOX`.@XoX@XXX[.OX{. X|.+X{.+X#XoX.XoX'.[.oX+X@X+X.X_.[.[.@X|.XXOXoX$X@X.XOX{.OX#X]. X/. XoXOXOX@X`.|.XX}.@XoX@X%X[.|.@XOX#X}..X X}.}.@X",
" X'.}. X{.'.%X*X&X+XXX|.oX}.). X}.XX$X;XOX+XOX).'.+X`.XX@X X X'.{. XOX'.[. X|.@X=X$XXX@X[.(.+X}.{.$X.X.X}.).`..X{.].XX].`.{.]./..X|.OX+X_..XXX.X}.+X*X*X{. X$X@X+X X|..X[.|.oX|.[. XoX`. X}.XX%X;XOX+XOX).].+X`.XX@X X|.`.{.",
"{./.XXoX.X XoX&XOX+XOX'.`._.oX`. XoX&X$X@X].[.).oX_._..X.X.X).'.).[.oX@X}.].OX@X*X+X.X_.[.]..X~..X XOX_.'.`.+X%X/.}.OXOXXX XXX].|.`.XXoX XXX$X XoXOX&X@X(. X|.oXoX%X XXX}.XX#X X}.XXoX+X`. XoX%X#X#X].[._.oX).`.XX.X X_.].).",
").*X XXX{.|.oXoX[.oX*X].[.].^.].[.].XX|.+X|._.oX X'.}.[.{. X X|.|. X@X`.(.}.'..X|.oX+X_. XXX'.{.{.[..X X{.#X&X X(.XX@X|.oX|.#X#X{._.OX|.}.|.|..X_.|.|..X!.+X#X*X].OX#X{.{. X%XoX$X#X.X!.].{.]..X}.+X X_.oX X'.|.[.}..X.X}.oX",
"|.=X_.}.}.[. X.X X;X|.'.{.|./. X'.[. X}.OXoX{.$XOX)._._._.OXXX.X.X@X+X(.{.}.].|.[.oXOX XXX$X[./.].~.XXoX X.X.X X^.).|.}.+X$X+X$X#X[.{..XOX@X'.{.'.|.}. XoX@X+X-XOXoX[.XXXX_. X.X X@X}./.}.'.[.|.}.OXoX}.#XOX_._._._.OX.X XXX",
" X X{.`.}._..X).[.,X)..X.X}.OX XXX|.OX.X|. X{..X.X.X).'.XX|.{.[.@XoXoXXXXX.X|..XXX}. X}. X.XXX'.(.XX.X{.{. X+X'.}.oX|.oX$X:X#X|.|.`.'..X&XXX}.{.XX XoX}.oX%X*X&X+X.X}.oX[.`. X}.oX.XOXXX.X.X}.OX X|..X{.XXXX|.).'.XX|.}.[.@X",
"`.{.(.|.}.[.[.(.|.XX].[.].}.).oXXX{.[.oXoX X+X X`.]..XoX[.'.[. XXX@X$X(.}.OX X'..XOX.X X+X`.].}.OX}.].`. X|.OX).'.).{. X+X XXXXX).|.XX'.%X_.}.OX.X'. XOX.X@X%X.X@XXX_.'._.OX`. XoX%X.X).oXOX[.{.+XoX X+X X`.]..XoX[.'.[. XXX",
"(.OXE.`.]. X(.(.]. X@X).`..X'.^.|. X{.%X XXX*X.X_.].|.OX_.`..XoXOX$XoX X~.'.OX`.$XoX}.%X+X[._.}.OX[.).{.OXoXoX.XQ.{.[._.|.}.+XOX].oXOX[..XXX/._.XX].+X+X X@X.X[.+X*X'.{.].~.[..X#X@XoX'.!.|. X}.%X|.XX*XXX).]. XOX_.'..XoXOX",
"/.W.!..X).^.].^.}.+XOXOX|.|..X_.oXoX{.}.OX&X$X^.{.|.|.~. X/. X+XoX$X%X+X'.{.OX|.].OX@X=X_.'.}.XX/.].].`.+XOX'.[.XX|.|.}.XX|.|..X|.XX#X|.|..X}.].+X.X].oX+X&X|.oX:X[.].{.{.). XoX+X#X#X X_.oXXX{.}.+X&X@X^.}.|.}.^. X^. XOXXX",
"oX|.`.`.!..X^.)._.|.[.#X XXX{. XoX[.{.`.OX.X.X`.{.}.|.+XOX}.oXXX+XoXoX}.[.+X]. X/.OX.XoX].'.{.{.OX@X|. XXXOX+XXX'.OXoX|.}..XXX.X}..X'.XX[.oX'.OX[. X/.XX.XOX}.[.&X).OX X.XOXXXOXoXOX.X[. XoX{.[.'.OX.X.X'.{.}.}.+XoX}.oXXX@X",
"*X|._.`.[.XX~.].|.`.[.`.OX|. X|.+X}.[.`.}..X).'.$X}.`.OX'.'.@X X}.+X}.@X[.oXXX`.{.`..X{.~.+XOX(.XX}._.XXOX|.]. X_.`. X|.'.#XXX}.$X$X).[.XX.X|..XOX`.}._. X.X!.oXOX]. X X_.}.@X[.oX.XoXXX|.+X[.[.`.}.XX/.'.$X}.`.OX'.'.#X X{.",
"[._._. XXX'._._.}.}._.].|.@XOX#X+X+XoX/.W..X(.'.%X'.}. X.X[..XOX@X+X#X@XOX$XOX@X].T.[.[.!.%X|.{.|.XX[.|.oX+X'.^.}.^.[.@X'.OX+XOX-X'._.}..X@XOX$XoX@X}.Q.).|.!.+XXX'.}.oX{.}.OXoX$XoX&X+X#X+XOXoX/.W.XX/.].%X'.}..X X[..XOXoX",
"{.(.Y.}.}.]._.].OXoX|.'.#X@XXX$X@XOXoX{.`.].).]..X}.}..X X+X$X[..X@XXX X@X#XOX+X X`.].)._..X{. X XXX.X#X.X_.+X|.'.].+X|.XX/.#X+X@X{.].}.&X.X+X%XOXOX.X`.]._.).|.}.|.}.XX X#XoX`.%XoXoXXX$X@XOXOX}.`.'.).[. X}.}..X XOX#X[. X",
"/.`.~. X].].`..X[.'.@X'.OX%XOX@X{.|.*XXX[.`.}.`.oX%XXX}. X'.XX{.OX@XOX+X@X X|.OX*X`.}.'.[.{.$X$X].+X_.OX{.XX(.^.`./.`.].].]. X|.^.oX.X{.%X#X+XOX{.XX-X_.}._.{.].#X$X[.oX`.XX}. X@XOX#XOX@X{.|.-X.X].'.}._.OX$X.X|.|.].oX{.OX",
"/.'._.}._.].}.+X.X~.[.(. X.X].{..X}.OX`.&X}. XOXXX+XXX].$X@X X}..XXX X{.]..X}.OX].oX+X[.OXOXoX#X'.oX$XXX|.[.).(.).'._.}.`.{.}.#X'.(.'._.oX{.[.|. XXX{.}.$X].OX+XXX@X{..X%XoX}.|.oX X|.[.{..X{.oX`.&X}..X+XXX@XXX].$X@X X}.XX",
"'.(.].[.).oX X.X'.OX_.).OX X}.[.).|.{.]. X}.XX*X%X=XXX}.{.XX.X{.}.|. X X[.'.'.oX`. X X|.&X*X%X$X}.|. XoX.X].OX_._.`.}./.[..X|. X[.oXQ.}.XX}.{.'._.oX_.}.}.{.$X&X%X&X}. X|.XX X]..X{.XX[.[.(. X[.]. X}.XX=X$X*XXX|.}.XX.X{.[."
};
