/* XPM */
static char *_01d263b3a8f45998896516a0240305d[] = {
/* columns rows colors chars-per-pixel */
"96 64 152 2 ",
"   c #859DAA",
".  c #889FAB",
"X  c #8CA2AC",
"o  c #96A6A5",
"O  c #92A6AD",
"+  c #9BA4AB",
"@  c #96A9AD",
"#  c #9BACAD",
"$  c #8FA5B2",
"%  c #91A7B2",
"&  c #96ADB6",
"*  c #9BACB3",
"=  c #9EB0B3",
"-  c #9EB2B9",
";  c #A2AFAF",
":  c #A0B0AF",
">  c #A2AEB3",
",  c #A1AFB8",
"<  c #A4B3B5",
"1  c #A9B5B6",
"2  c #ABB9B7",
"3  c #A4B5BA",
"4  c #A9B6BB",
"5  c #A6B9BC",
"6  c #ACBBBD",
"7  c #B0BBB7",
"8  c #B1BDBE",
"9  c #B5C0BD",
"0  c #A3B7C0",
"q  c #A8B6C1",
"w  c #ADBCC2",
"e  c #B1BEC2",
"r  c #AEC1C4",
"t  c #AFC2C8",
"y  c #B4C2C4",
"u  c #B9C5C6",
"i  c #BCC8C7",
"p  c #B5C4C9",
"a  c #BAC6C9",
"s  c #B6C9CB",
"d  c #BDCACB",
"f  c #BECCD0",
"g  c #C0C9C6",
"h  c #C2CDCE",
"j  c #C6D0CF",
"k  c #C8D3CF",
"l  c #C3CED1",
"z  c #C5D1D2",
"x  c #CAD4D5",
"c  c #CED8D7",
"v  c #C6D5D8",
"b  c #CDD6D8",
"n  c #CED9DA",
"m  c #D1D6D6",
"M  c #D1DAD6",
"N  c #D1D6D9",
"B  c #D1DAD9",
"V  c #D1D9DB",
"C  c #D1DBDA",
"Z  c #D0DADB",
"A  c #D2DDD9",
"S  c #D2DCDB",
"D  c #D4DDDA",
"F  c #D5DEDB",
"G  c #D1DBDC",
"H  c #D1DBDD",
"J  c #D3DBDD",
"K  c #D1DDDD",
"L  c #D2DCDD",
"P  c #D3DDDC",
"I  c #D3DFDD",
"U  c #D3DDDF",
"Y  c #D2DEDE",
"T  c #D3DFDF",
"R  c #D4DDDC",
"E  c #D6DCDC",
"W  c #D7DDDD",
"Q  c #D5DEDD",
"!  c #D4DEDD",
"~  c #D5DFDE",
"^  c #D4DEDF",
"/  c #D6DFDE",
"(  c #D4DCDE",
")  c #D3DCDC",
"_  c #D9DFDF",
"`  c #D9DEDE",
"'  c #D6E0DF",
"]  c #D7E0DF",
"[  c #D7E0DF",
"{  c #D8E1DE",
"}  c #DAE1DE",
"|  c #D5DDE0",
" . c #D5DFE0",
".. c #D5DFE0",
"X. c #D9DEE1",
"o. c #D6E0E1",
"O. c #D6E0E2",
"+. c #D7E1E2",
"@. c #D6E1E3",
"#. c #D4E0E0",
"$. c #D6E1E1",
"%. c #D8E1E0",
"&. c #DAE0E0",
"*. c #D9E2E1",
"=. c #DAE3E0",
"-. c #D8E2E3",
";. c #D8E0E2",
":. c #DEE2E1",
">. c #DDE3E3",
",. c #DFE3E2",
"<. c #D9E4E0",
"1. c #DBE4E1",
"2. c #DDE6E1",
"3. c #DCE5E2",
"4. c #DBE3E5",
"5. c #DBE3E6",
"6. c #D8E4E4",
"7. c #DCE5E4",
"8. c #DDE6E5",
"9. c #DEE4E4",
"0. c #DBE3E2",
"q. c #DFE8E6",
"w. c #DDE7E8",
"e. c #DEE6E8",
"r. c #DFE9E9",
"t. c #E3E7E6",
"y. c #E0E6E6",
"u. c #E4E6E5",
"i. c #E1E6E5",
"p. c #E4E8E7",
"a. c #E3E8E6",
"s. c #E3E7E8",
"d. c #E3E7E9",
"f. c #E0E9E8",
"g. c #E3E9E9",
"h. c #E1EAE9",
"j. c #E6EAE9",
"k. c #E5E9EA",
"l. c #E4EAEA",
"z. c #E5EBEB",
"x. c #E7EBEA",
"c. c #E7EDED",
"v. c #E4EAE9",
"b. c #EAECEB",
"n. c #EFEFEF",
"m. c #EAEDEB",
"M. c #EEF0EF",
"N. c #ECF0EE",
"B. c #EEF2F1",
"V. c #EEF1F0",
"C. c #F2F3F5",
"Z. c #F2F4F4",
/* pixels */
"v p s z c 6.L  .n E  .L L x a u e a E G E j.p.>.%.L n z '  .x x n A L d l Z 8.z p z u.' l b n z l z v z x E Z n h A b 5 z n z u h l y d a 4 b n z x n l a h u a x z a x n x b x n z n #.n n s y ",
"a e d  .%.Z x z x A n z c a a d d E 2.G G n n z h u 2 h L n n G L n l 8 z 4.z 6 h j.' a w b G L b d z h L %.Z G x L u z 0.b l l d d l f 6 h >.%.b.L d l u d f l b h d d a w d d p w a z w q p z ",
"= u %.4.x x n b b b d u d z G L y.f.%.n l z z z d 6 8 F ' x x { %.x u 6 d z h h y.%.a 6  .#.z d d z l x n n G n x d 6 n G G G x l z d u 2 0.n.V.E l L z n c a a a a x z d d z d q w a 0 & * = 6 ",
"x M 2.n h l z d u a p x Z n n j.M.y.L a y y h Z h d _ f.8.8.s.c.E d l z 2 h d x Z p y n E x z y 5 6 y u f n n l y y n Z n  .b z x z d u < %.C.z a G L p d u d d p 6 < 5 y d a w 5 u d & X w 5 p ",
"' 8.' n z l y p z x n #.z l >.Z Z n u u l h u l l x E %.#.#.4.Z 5 d _ E h 2 < x %.Z n E z L b p a z n n %.j.e.x z Z j.E x G b d x d h F E f.n x Z d 3 3 4 5 z z a d y p f w - 3 3 w - - = 6 p a ",
"v b d a f d l a d a d z %.l d a 1 a x G n x x a z c u h z x x a y 4.u.{ x h z 8.E c d u  .L u y L E Z E j.j.Z x 8.8.#.#.n h d a d 4 = z j.A l n p t 3 * * d 9.a t p d u w w 5 3 5 = @ 3 6 d u d ",
"v z h d w 5 p p u 6 d >.x z b n m c z n n z l n Z x b b z l z z z A n z h _ j.n a z 6 h { d u u x z c { M.9.l x n L #.G z a w 2 8 6 6 z x M _ n p p < * d z d a a d a l d y y p 6 = O 5 w y d n ",
"d a y y w e p w a j.c.Z n G b x z 6 y z b ' E Z n z x x b d l z x x z a z h d e d A h >.L n z a z n A j.y.l p a x n n x a h d a y h %.{ ' E b b a y 1 2 a _ x h p y d l z l d u u d d y 4 d #.n ",
"x h y w r u u l >.r.G n Z d p n u ; 8 n E E x d d y a d h x  .x d h l y 3 4 d M G x %. .L G c h d x %.f.n a d x x x l a d n Z E 8.G Z E _ L n n u z %.>.x c E n u l f d l x l d a y d a 6 n N.x ",
"d y u u _ 2.' 6.Z a d l y d Z Z 5 m b.G l y y 2 5 < w e b j.Z u u d 6 < e b b.j.u.8. .n n Z z d d 0.F n p z q.b n y a z L %.n  .E Z M A  .L #.G G f.8.8.#.A { A z d a a p a d d a h u y 6 d n p ",
"f d x b 0.L z y 1 5 p p p d Z x h n n b h d z l h d y 6 d j d u u u l Z x D 2.>.Z G l h x z e e x E _ x 6 Z b b E h n G z h a b 8.' x L %.E  .z z n b n n L E A n a a 6 5 5 6 y y z n x x b d d ",
"y x G E h y 4 4 q e d a z b %.n z k j d y z n h z m h i h x G E _ z _ _ F y._ e y z w z h a d E n Z Z %.>.9.n 4.%.%.n a y l b E 8.h L n z z x x z G x x z d h d a y a a 6 y z l a a h n E E L ' ",
"z l a 2 5 2 4 a b F E h Z 8.n d u h b l u w 3 a z z b b h z n h 6 6 1 g _ A y u n n n x a l 2.>.l d d z L %.e.y.E x c %.%.n #.%.h u z h h h j b #.#.G b n n G x x z u a z u u y h l z n n b n #.",
"z y y x %.E %.} 2.>. .z G z h h a n %.b m z a h z b Z A F h z 6 * < x >.l u h { ' D E z a Z y.%.d u a x n E 8.L n Z Z n 8.a.n n E n v d 7 n E L x n 9.j.A n Z v a l l l Z 4.x d d l n E x b G l ",
"a u u a i h { c.c.j.j.n b h d h d h b n b x Z G n b x Z L Z h y 6 l 8.p w h b y.%.E Z b L ' y._ u i _ E G n f p x  .%.E G n b ' n Z Z 8 d n x h l L 4.b z G n x n G %.n E %.E #.4.r.#.x z z z 6 ",
"5 e p 8 2 2 L e.0.8.8.E Z z h h z x d z Z c Z } >.n E n x E h 8 D j.a 8 z n F y.n F b Z y. .Z n h 2._ G n h p w z l d z L n G n x z z x G z a z A n h d d a h x z j c A x d x x z x z l h h d u ",
"2.6.L x z E %.%.Z x d y h L M Z Z L E b x E L n b z x b A A x m y.b h n F D E  .x n j X.X.A p.E x X.n l b l u y z p w 6 a h l x x G E b x a l L z a e h l d a a z x >.x y 2 w p d n z x x z z h ",
"L n d 2 z y.' Z x x h u y h b A E Z A E z j N n l N x z x h n y.Z z M M n z M n %.n h 9.8.y.D l Z u i x l z d a z a u 6 n _ y u l n x d e h E b h d u d z z z z l G z y e a y w d l z z d #.%.n ",
"d w s 6 b %.n l l d l n b h h x n b h z n z h x u 6 < y d E %.L E %.D y._ l _ 8.' n x E M L z z n h l n h d u a n l u x n z 8 # y z n v y 0.V.E x d h h z z b n n x a d y e a z z l b x c L b x ",
"x y 6 x b 4.L x x u d h z x z h x x z d d h d d h u u b >.y._ Z Z %.y.d.y.i.j.9.x z n %.E G G n  .Z Z x x 1 u u z a z %.E h h Z L n z y 8 %.8.n #.E n z l d l d z d p u u 2 8 x q.6.L b L n z d ",
"h 8 x E c G n L d a d h d d d a u a y d h z L x u h x F 2.n n n b G G E n Z n x l b x E G d a x n l h z b h ' Z x d b x z l d h x x x u d L n x h x z z l z x x x z x x h a u L n n L L n z a y ",
"z n L p a x c x u u y u e d z h a 5 4 6 h h z n D b E _ z n x z h z b h y w h h z j Z %.b h d D x d a G h x E 0.%.Z n  .n n E h y y d h x n l h z z l x l L n n n x n  .x a d z d a z n d y q y ",
"x x a d x b z h 6 a a y u x.Z h u < 1 a h j z Z ' Z Z  .D x Z x u y h y < u c h b ' 2.E N E E m x l x x u h E n L z b b n x x L n h d z Z G a w j G n h d l h u h p l z l u z z x d l d 3 @ * - ",
"l z z x x x d h z h x 8 u c a d e h j j n c c c h h z h x z h h u h u 1 6 z x z F 4.E b G x x n x h n z u x G z d d l d d h h z x D %.4.L n z f.M.y.c z h 6 6 d a y w y y l c Z b h z p y < O . ",
"d G Z b E j z n b u j a d 6 y u D L n x Z x h d d x h 8 d h h d j E h 8 h b z z z n l x n h n G x n Z l x %.h h a l d d d z x n x Z Z G L Z j.n.8.L b x x z a p y e w 5 y n %.E L x z y a z d f ",
"d n 9.9. .n Z z x u a c x u y h z h z Z ' b u d u u a i z h x b h h y h X._ z z b z u a z Z z l z u h x %.4.b l a l l z x G n x n E x x b #.%.A L Z G n x x z h z z h y p d a d l z x h d a L b ",
"a z L Z z z z d n u h Z u x h d u u z b l a u h y u z %.E b n y 4 e y n Z z h h F x z h x  .u 1 x u 1 y z n n a l h h u u l z h G  .n n x z n n x z a e h n d l n n c E x y y 3 e f a p v b y & ",
"u d d a y 5 1 e a d n h u d y y u e e d y y h d h x c E N b h < y y E c u u u h x x Z  .h h h 6 6 n h x %.E l x h 6 1 1 2 l n b n h a x x h Z z d y d j l e d Z x x G 4.x l z a d , = d a < < < ",
"y y x e < y y 2 1 z L d d 6 2 y h h e a a u Z N _ M j a a h h y u y.>.Z l z E n x x h d l h a l e a E s. .l l a 6 1 y u u l n n x h u d z z z z h x L n x x z j Z #.n  .8.q.G G z 3 6 w 6 5 - y ",
"z u x h j L n 1 y z y 2 y u i y x x h b u u x F E h y e z a d Z >.b.0. .b { y.z a y h h a z n G n l X.4.a q w a p y u u e h G n  .x l l p f a h x z x h l x z G Z u h L %.8.f.f.x a z Z z 5 5 p ",
"E j. .Z D Z j h F h u h b z h h x h z z x N h u y d d z L l z %.%.A %.Z Z _ x h u h l l a d G n X.y.X.x e , w u a u e d z L %.Z n d l h l l l d d l d d h y p h y n A h d l x L z z j.z @ * 4 w ",
"y A 8.Z b x h n z z d h h h h x z d z x h M h 8 d l x Z Z N c.j.a.y.' M >.Z d z b Z n x l z x E 9.X.x a w 3 4 p a z h Z 2.%.n l z a d z #.n z x h 8 d d l n l d E _ y d w 6 p t z { y 5 5 p y < ",
"d 6 8 n ' E z x h Z u h h h h b A i b c 8 u x z Z _ %.%.x x E %.b.F x x b h h b >.9.8.>.4.9.x y h x f e , * e z x n N b >.#.l a d u u l z z l h l u 6 d d a x y.2.8 l f 6 2 e e e o * y 6 y h 6 ",
"h 8 9 z Z c x l a h d z z z u i d h z x M h u b d h z L x Z Z b _ E b n x h b G E %.l x n Z h z Z a a e + * 4 a l h n l x n y e p y h h p p y z w e u e h j { Z 9 u n u e e u y 4 1 4 < > w h y ",
"' 2.2.z h i d y 1 2 j z z h h b d x c z Z M x D E Z E A m _ _ %.{ _ E Z c { y.y.8. .z x x h  .D G n f 4 * 6 u e a l z n h h y y d d x l h a h a q y y h d i h j h x h e e y l h u n y @ 4 d h z ",
"E c h h h y 4 < u < j z x x y h h b Z M n x Z >.y.p.y.y.i.>.m F  .n x n b z x D E N c G a l #.Z V Z y 4 * 1 x x l l x n _ n z d h h x n z h l y d h h L l d n G n h a d x x L x j z a # d %.Z #.",
"Z l u h y u y 6 h d b x b k h z x Z z F Z x n c b E y.8.>.' b F E n b #.E { F E E b G G h n n b E p 4 1 e u 8 N X.b z x E E Z z n b h h l z z l d a L n z ' 4.#.L c L L n L L z a y a z ' >.%.0.",
"x h d z z z y h z 2 z L c j x z F _ b F A x x D G E ' E b z x c Z h b n b E 9. .l z h a z n n L n x l z n M 8.j.b.V.a.8.L Z D M Z Z b z h n G x h n x l z n n Z x c Z G x z h x v x l b E x #.Z ",
"h d h x L n h E x 1 8 A F x z m M n E ' L l M %.8. .h x E h a Z n z x x z x x h 8 u d x n n #.b z x  .E E X.b.n.y.i.b.9.Z z j j c d h x #.e.n x E Z z z Z L x n x n c z l v n n n b n n h n E x ",
"h a l x G z n %.x 7 h z b h k z z z b Z z Z >.8.c h z n F n u z l z x x h a y u x z l G n 9.n u a l n 6 6 6 z { x n x d h x u h z d x  .%.n n E G n G E E z x x x b z a l c n L n x z h G %.n x ",
"d h z z z n %.E j 2 { ' z h z k z b h z x x x h h E >.F z x y.b d h h a h d y y u h a h b x h h d n x d x m >.D D x h h x L b z n 2.{ n l l b #. .0.0.8.n n ' L #.n z b G l Z #.n x z  .#.n x z ",
"z z z z l b n Z h < _ b h h z b E z h z z b n z x b m c x x n x d y e 6 u h a y y h E E G n z n G Z Z l u z b A c h y 1 8 x b j z E A n c L L x L L x G Z %.E L L n x b z n #.n z x  .Z x z l h ",
"a h z n x x z b d y x d h k x b x z c i h n G j z h h h x d u h l d a y 8 u z u a u z Z l n x h z h h y 1 8 e u l n x h n z n n n x %.8.%.' G x G L x l n %.E n x z l l x l z l l G z a h l h d ",
"8 d n  .%.Z x z u u d h n ' A b d u a 8 y 6 1 < < 6 a z z l x a d x z h y 8 h 8 8 a z G z u h h z L x u 8 y h h u u b z l b Z n b x Z %.D L n b #.n x z z x n l h d l z d z d d x G b z l z d a ",
"h n G L Z A 8.n z b c E  .z u a 8 e p < 6 < 6 h c _ %.%.L x i 1 6 x b z a e < : ; 8 a d l u u d l h h x z h h u d h z d z Z Z n n x j b G n b n n b L L n x Z z d h d d h x l l z z x b z d d d ",
"y l n E L Z E #.L %.#.Z h e 2 2 2 a 6 + 8 j { { q.E D  .G n x y 1 < x b x u y u h h x d e 5 > a y a y d n u z z d u h x h h Z L  .E E n z x n n L %.n v x x a w y d h b x b x z z z h h l d d d ",
"x G n G  .#.L G G b z z d e 1 6 5 6 6 d n E b x m %.' Z n Z E %.b u h 0.E h u h z d u y 6 y u u a a u u h h p.x i h x h %.L n E E E G #.b x G b n l p w w 5 * 3 y z G x z z z z l l l h l d d d ",
"Z z.' Z n L n z z z h a y 8 2 6 6 u z l x b E >.%.Z z n Z Z E y.n.Z.j.y.>.A u ' 8.9.8.>.8.%.X.z 6 n z y v  .h h %.f.b z 2.' L Z #.Z n n x z z h a e &     X 3 w l n x z x z x l l z d d d p a d ",
"n #.L E b h h l z h y y u h a d a z h z x n 8._ A x d x n l b %.8.j.f.L n  .i z D Z D E n G G z 8 h a 1 n L x i.%.%.y.2.D _ Z b b G x x x d d w 3 X   . % 5 d b  .#.z l z z z l p d a a d d d f ",
" .x l z p y p z v h x x h n a d x n x n E 8.x x n l n E j v n x E E G x z n x L x x G G  .#.L c E E u x b d ' p.a.a.8.y.%.E n n x h h h d x e $ O * w d z G G x n L x z h l z f u a z x z z l d ",
"L f w 3 3 y z x z h L n h L x x n %.y.y.p.8.Z D n x L L #.n n %.L Z z d h n G ' G c Z A E E E _ y.j._ E n z Z >.E b z b ' E E %.E z a y w u * q h h z Z _ z d z n L x z z h l y y d x z z l l d ",
"x d a d b x n x v n z a h z z n Z G >.i.F b Z n c n 4.L L E E y.#.x z d h x L Z Z Z Z ' ' E F 2.p.8.{ %.E n G A G h 8 8 u h h x n h w < 6 w q h a x %.Z y y z L A L b z d l d w 5 u z z z d h f ",
"z z n L  .L d z z x z 6 d l l x z n E ' A Z G L G %.2.8.#.A A E x h h d z b x x x A L E A A %.E Z Z E E b z n x z h a h b n x Z x w 3 3 h a a h n L z y a x n #.6.L z z l f p 5 y f l d h z d p ",
"z c n E %.x x z h n j. .h x s.G E f.%.E %.%.0.y.' y.%.'  .G b z h h h d G b x x z b E c D %.G b L n G L G n n v z G E L Z z G x y w p b h f b G x a y d h d 8.%.%.n z z f d y w d n u p y q 3 * ",
"y n L L x x n n #.b x n E j.C.E %.>.E  .' %.>.>.s.8.' G n G x y l x z z b n L n z z ' E A n x G n G x n x d h x 0.{ E %.x x z y p e n j y z x z z x d h h z h d L b z d f u p y v z a 5 q * 5 t ",
"l #. .x z b d A z a z f b A m x n 0.' L n L X. .E  . .n x x d a d x h x Z G z z x h z n j x x x  .n z z z l b L #.L L  .n l d z u 5 6 d h h y y a d h n  .L x L 6.z d l d p 6 2 a f d w 3 < p f ",
"n E E L E u r a y y w t a L Z b 0.%.n n n G E #.L G Z L x z h u 8 6 a G L x h z h x a h n n y d b d x b x x L G z x x x h d x u 6 2 z l d d z x x a a l z x Z %.s.l d d p a y 5 < w d w # u w t ",
"z #.%.a.h a d 6 y y 6 u d L Z 8.n z x n n  .n h d l z n d e d y 6 u E ' z z h d a h l d x u 2 6 a x n n z d z u u b n z u u u 6 6 n E a d h z v x x x a a d l c n a p p w 4 3 w 3 f a < 5 y p f ",
"a b E ' G v a d d h d d d z z l l x x n  .n d w y p a f e u h d u G L z z d u a y y u x a 6 y u z x z z z h b b z d z a y y y d z b x z x v z _ #.#.z d d a d a z l d y = * 4 y 3 p y < z d z z ",
"a h n z h f d x b l x l j d z d z x b n z l u a d a a y y a x n %.Z x x l a y u h l x x 6 6 h b z l d a l n z l z h h y y a x b j h x b Z L %.%.' z d d a a a w t f p = @ = 5 d s z t d z z v f ",
"v z x h 6 a x x d d 6 h d z f d z x b z d f a d d h L l u d z E E n x z h a d d l Z E y 2 y d z z z x d x z u h n n h y u h z x z x n n c A E L d d a a d d z n d a - 3 y 6 v n z a r z b z a p ",
"E 6.d 6 5 u z b u 5 y j d A z x b z n x v v z n 0.j.f.u 2 z a z #.n n x x h u 6 d #.8 2 1 6 u z Z A a u h d l z n G x d h h z b n n x h d z n a y u d l d d L %.h y * = d z n Z y p d f p w 6 t ",
"n 8.v w d x a a x y z z u d d f a h z x L L %.f.p.f.x 6 = 6 h a d x n z u z h u h d < 6 6 y L x p a 6 l f u u a l x b d d h h x z z l l z n d r y p d d d n x d l 9 5 u y a a a u y d t 5 q p t ",
"x %.d f n z u a f v x d 6 w 5 5 w v z %.f.q.0.' %.A u < 2 < 2 d y u z d d x E E z u 8 5 e Z c.Z x d j z u w w w x z l y u d z n d h z x n l w p p a h z z h w a d 3 5 u d d y e r 5 w t w p p d "
};
